<svg width="18" height="17" viewBox="0 0 18 17" fill="none" xmlns="http://www.w3.org/2000/svg">
<path d="M2 11.5625H16V1.9375H2V11.5625ZM9.875 13.3125V15.0625H13.375V16.8125H4.625V15.0625H8.125V13.3125H1.125C0.88 13.3125 0.672917 13.2279 0.50375 13.0587C0.334583 12.8896 0.25 12.6825 0.25 12.4375V1.0625C0.25 0.829166 0.334583 0.625 0.50375 0.450001C0.672917 0.275 0.88 0.1875 1.125 0.1875H16.875C17.12 0.1875 17.3271 0.272083 17.4963 0.44125C17.6654 0.610416 17.75 0.8175 17.75 1.0625V12.4375C17.75 12.6708 17.6654 12.875 17.4963 13.05C17.3271 13.225 17.12 13.3125 16.875 13.3125H9.875Z" fill="#4F46E5"/>
</svg>
