<svg width="18" height="17" viewBox="0 0 18 17" fill="none" xmlns="http://www.w3.org/2000/svg">
<path d="M2.4375 1.9375V4.5625H14.6875V1.9375H2.4375ZM1.5625 0.1875H15.5625C15.8075 0.1875 16.0146 0.272083 16.1838 0.44125C16.3529 0.610417 16.4375 0.8175 16.4375 1.0625V5.4375C16.4375 5.6825 16.3529 5.88958 16.1838 6.05875C16.0146 6.22792 15.8075 6.3125 15.5625 6.3125H1.5625C1.3175 6.3125 1.11042 6.22792 0.94125 6.05875C0.772083 5.88958 0.6875 5.6825 0.6875 5.4375V1.0625C0.6875 0.8175 0.772083 0.610417 0.94125 0.44125C1.11042 0.272083 1.3175 0.1875 1.5625 0.1875ZM3.3125 8.0625H8.5625C8.8075 8.0625 9.01458 8.14708 9.18375 8.31625C9.35292 8.48542 9.4375 8.6925 9.4375 8.9375V11.5625H10.3125V16.8125H6.8125V11.5625H7.6875V9.8125H2.4375C2.1925 9.8125 1.98542 9.72792 1.81625 9.55875C1.64708 9.38958 1.5625 9.1825 1.5625 8.9375V7.1875H3.3125V8.0625ZM13.585 9.585L15.125 8.0275L16.665 9.585C16.945 9.865 17.1346 10.1917 17.2337 10.565C17.3329 10.9383 17.3329 11.3117 17.2337 11.685C17.1346 12.0583 16.945 12.385 16.665 12.665C16.385 12.945 16.0583 13.1346 15.685 13.2337C15.3117 13.3329 14.9383 13.3329 14.565 13.2337C14.1917 13.1346 13.865 12.945 13.585 12.665C13.305 12.385 13.1154 12.0583 13.0162 11.685C12.9171 11.3117 12.9171 10.9383 13.0162 10.565C13.1154 10.1917 13.305 9.865 13.585 9.585Z" fill="#4F46E5"/>
</svg>
