<svg width="18" height="17" viewBox="0 0 18 17" fill="none" xmlns="http://www.w3.org/2000/svg">
<path d="M7.0925 2.375L5.3425 4.125H2V14.625H16V4.125H12.6575L10.9075 2.375H7.0925ZM6.375 0.625H11.625L13.375 2.375H16.875C17.12 2.375 17.3271 2.45958 17.4963 2.62875C17.6654 2.79792 17.75 3.005 17.75 3.25V15.5C17.75 15.745 17.6654 15.9521 17.4963 16.1213C17.3271 16.2904 17.12 16.375 16.875 16.375H1.125C0.88 16.375 0.672917 16.2904 0.50375 16.1213C0.334583 15.9521 0.25 15.745 0.25 15.5V3.25C0.25 3.005 0.334583 2.79792 0.50375 2.62875C0.672917 2.45958 0.88 2.375 1.125 2.375H4.625L6.375 0.625ZM9 13.75C8.125 13.75 7.32 13.5342 6.585 13.1025C5.85 12.6708 5.26667 12.0875 4.835 11.3525C4.40333 10.6175 4.1875 9.8125 4.1875 8.9375C4.1875 8.0625 4.40333 7.2575 4.835 6.5225C5.26667 5.7875 5.85 5.20417 6.585 4.7725C7.32 4.34083 8.125 4.125 9 4.125C9.875 4.125 10.68 4.34083 11.415 4.7725C12.15 5.20417 12.7333 5.7875 13.165 6.5225C13.5967 7.2575 13.8125 8.0625 13.8125 8.9375C13.8125 9.8125 13.5967 10.6175 13.165 11.3525C12.7333 12.0875 12.15 12.6708 11.415 13.1025C10.68 13.5342 9.875 13.75 9 13.75ZM9 12C9.56 12 10.0733 11.8629 10.54 11.5887C11.0067 11.3146 11.3771 10.9442 11.6512 10.4775C11.9254 10.0108 12.0625 9.4975 12.0625 8.9375C12.0625 8.3775 11.9254 7.86417 11.6512 7.3975C11.3771 6.93083 11.0067 6.56042 10.54 6.28625C10.0733 6.01208 9.56 5.875 9 5.875C8.44 5.875 7.92667 6.01208 7.46 6.28625C6.99333 6.56042 6.62292 6.93083 6.34875 7.3975C6.07458 7.86417 5.9375 8.3775 5.9375 8.9375C5.9375 9.4975 6.07458 10.0108 6.34875 10.4775C6.62292 10.9442 6.99333 11.3146 7.46 11.5887C7.92667 11.8629 8.44 12 9 12Z" fill="#4F46E5"/>
</svg>
