<svg width="18" height="19" viewBox="0 0 18 19" fill="none" xmlns="http://www.w3.org/2000/svg">
<path d="M5.3425 16.5C5.1675 17.0133 4.8525 17.4333 4.3975 17.76C3.9425 18.0867 3.435 18.25 2.875 18.25C2.39667 18.25 1.95625 18.1333 1.55375 17.9C1.15125 17.6667 0.833333 17.3487 0.6 16.9462C0.366667 16.5438 0.25 16.1033 0.25 15.625C0.25 15.065 0.413333 14.5575 0.74 14.1025C1.06667 13.6475 1.48667 13.3325 2 13.1575V5.8425C1.48667 5.6675 1.06667 5.3525 0.74 4.8975C0.413333 4.4425 0.25 3.935 0.25 3.375C0.25 2.89667 0.366667 2.45625 0.6 2.05375C0.833333 1.65125 1.15125 1.33333 1.55375 1.1C1.95625 0.866667 2.39667 0.75 2.875 0.75C3.435 0.75 3.9425 0.913334 4.3975 1.24C4.8525 1.56667 5.1675 1.98667 5.3425 2.5H12.6575C12.8325 1.98667 13.1475 1.56667 13.6025 1.24C14.0575 0.913334 14.565 0.75 15.125 0.75C15.6033 0.75 16.0437 0.866667 16.4463 1.1C16.8487 1.33333 17.1667 1.65125 17.4 2.05375C17.6333 2.45625 17.75 2.89667 17.75 3.375C17.75 3.935 17.5867 4.4425 17.26 4.8975C16.9333 5.3525 16.5133 5.6675 16 5.8425V13.1575C16.5133 13.3325 16.9333 13.6475 17.26 14.1025C17.5867 14.5575 17.75 15.065 17.75 15.625C17.75 16.1033 17.6333 16.5438 17.4 16.9462C17.1667 17.3487 16.8487 17.6667 16.4463 17.9C16.0437 18.1333 15.6033 18.25 15.125 18.25C14.565 18.25 14.0575 18.0867 13.6025 17.76C13.1475 17.4333 12.8325 17.0133 12.6575 16.5H5.3425ZM5.3425 14.75H12.6575C12.7858 14.3767 12.99 14.05 13.27 13.77C13.55 13.49 13.8767 13.2858 14.25 13.1575V5.8425C13.8767 5.71417 13.55 5.51 13.27 5.23C12.99 4.95 12.7858 4.62333 12.6575 4.25H5.3425C5.21417 4.62333 5.01 4.95 4.73 5.23C4.45 5.51 4.12333 5.71417 3.75 5.8425V13.1575C4.12333 13.2858 4.45 13.49 4.73 13.77C5.01 14.05 5.21417 14.3767 5.3425 14.75ZM2.875 4.25C3.12 4.25 3.32708 4.16542 3.49625 3.99625C3.66542 3.82708 3.75 3.62 3.75 3.375C3.75 3.13 3.66542 2.92292 3.49625 2.75375C3.32708 2.58458 3.12 2.5 2.875 2.5C2.63 2.5 2.42292 2.58458 2.25375 2.75375C2.08458 2.92292 2 3.13 2 3.375C2 3.62 2.08458 3.82708 2.25375 3.99625C2.42292 4.16542 2.63 4.25 2.875 4.25ZM15.125 4.25C15.37 4.25 15.5771 4.16542 15.7463 3.99625C15.9154 3.82708 16 3.62 16 3.375C16 3.13 15.9154 2.92292 15.7463 2.75375C15.5771 2.58458 15.37 2.5 15.125 2.5C14.88 2.5 14.6729 2.58458 14.5037 2.75375C14.3346 2.92292 14.25 3.13 14.25 3.375C14.25 3.62 14.3346 3.82708 14.5037 3.99625C14.6729 4.16542 14.88 4.25 15.125 4.25ZM15.125 16.5C15.37 16.5 15.5771 16.4154 15.7463 16.2462C15.9154 16.0771 16 15.87 16 15.625C16 15.38 15.9154 15.1729 15.7463 15.0038C15.5771 14.8346 15.37 14.75 15.125 14.75C14.88 14.75 14.6729 14.8346 14.5037 15.0038C14.3346 15.1729 14.25 15.38 14.25 15.625C14.25 15.87 14.3346 16.0771 14.5037 16.2462C14.6729 16.4154 14.88 16.5 15.125 16.5ZM2.875 16.5C3.12 16.5 3.32708 16.4154 3.49625 16.2462C3.66542 16.0771 3.75 15.87 3.75 15.625C3.75 15.38 3.66542 15.1729 3.49625 15.0038C3.32708 14.8346 3.12 14.75 2.875 14.75C2.63 14.75 2.42292 14.8346 2.25375 15.0038C2.08458 15.1729 2 15.38 2 15.625C2 15.87 2.08458 16.0771 2.25375 16.2462C2.42292 16.4154 2.63 16.5 2.875 16.5Z" fill="#4F46E5"/>
</svg>
