<?xml version="1.0" encoding="UTF-8"?>
<!DOCTYPE svg PUBLIC "-//W3C//DTD SVG 1.1//EN" "http://www.w3.org/Graphics/SVG/1.1/DTD/svg11.dtd">
<!-- Creator: CorelDRAW X7 -->
<svg xmlns="http://www.w3.org/2000/svg" xml:space="preserve" width="3000px" height="3000px" version="1.1" style="shape-rendering:geometricPrecision; text-rendering:geometricPrecision; image-rendering:optimizeQuality; fill-rule:evenodd; clip-rule:evenodd"
viewBox="0 0 3000 3000"
 xmlns:xlink="http://www.w3.org/1999/xlink">
 <defs>
  <style type="text/css">
   <![CDATA[
    .fil0 {fill:#1B21CC}
    .fil1 {fill:#E8E8E8}
   ]]>
  </style>
 </defs>
 <g id="Layer_x0020_1">
  <metadata id="CorelCorpID_0Corel-Layer"/>
  <g id="_1695020645808">
   <path class="fil0" d="M623 1507l-163 -394 -181 -28 -279 725c31,-1 63,-3 93,-9 22,-5 44,-11 64,-20 145,-60 250,-195 395,-253 23,-9 47,-16 71,-21zm1886 -405l0 488c55,3 109,9 162,16 0,0 0,-312 0,-329 26,-6 71,-8 94,-1 26,7 73,30 73,108l0 254c55,13 109,28 162,46l0 -315c0,-105 -62,-198 -155,-231 -32,-11 -66,-13 -99,-10 -25,3 -51,13 -77,13 -20,0 -36,-6 -50,-19 -4,-4 -7,-7 -10,-11 -33,-4 -66,-7 -100,-9zm-129 -6c-46,0 -94,2 -143,4l0 488c49,-3 97,-4 143,-4 6,0 13,0 19,0l0 -488c-6,0 -12,0 -19,0zm-154 -164c0,53 37,89 93,87 55,-1 91,-38 91,-91 0,-2 0,-4 0,-5 -2,-52 -38,-87 -91,-85 -56,1 -93,39 -93,94zm-261 -34l0 252c-57,-26 -154,-28 -221,13 -84,51 -126,148 -126,254 0,69 18,144 67,186 62,54 133,51 194,32 51,-15 111,-78 158,-29 30,-4 61,-7 90,-9l0 -120c-1,0 -1,-597 -1,-597 -51,5 -104,11 -161,18zm-197 501c-6,-78 44,-126 100,-132 63,-7 96,31 96,31l0 149c0,0 -50,46 -101,46 -50,0 -91,-37 -95,-94zm-645 -111c-65,56 -91,139 -91,233 0,188 126,226 187,226 120,0 160,-90 160,-90l0 56c47,-7 94,-16 142,-24l19 -3 0 -355 1 -8 0 -124c-1,2 -79,13 -88,15 -11,15 -28,27 -46,31 -21,4 -43,-2 -63,-6 -21,-4 -43,-6 -64,-6 -56,0 -114,18 -157,55zm74 132c17,-28 49,-52 81,-56 45,-4 91,11 99,16 0,10 0,159 0,159 0,0 -51,55 -112,51 -78,-4 -106,-106 -68,-170zm-454 371l-107 -256c-21,4 -41,13 -62,25 -50,30 -73,98 -54,156l25 75 198 0zm44 -717l0 717c52,-3 105,-7 161,-12l0 -717c-57,6 -109,10 -161,12zm-425 186l87 199 -56 -21c-39,17 -109,61 -140,100l109 -278z"/>
   <path class="fil1" d="M1655 1980c-118,26 -225,46 -303,53 -78,8 -126,4 -126,28 0,20 48,65 126,86 77,23 185,20 303,-5 119,-26 226,-46 304,-53 77,-9 125,-4 125,-28 0,-20 -48,-65 -125,-86 -78,-23 -185,-20 -304,5z"/>
  </g>
 </g>
</svg>
