<?xml version="1.0" encoding="UTF-8" standalone="no"?>
<svg
   xmlns:dc="http://purl.org/dc/elements/1.1/"
   xmlns:cc="http://creativecommons.org/ns#"
   xmlns:rdf="http://www.w3.org/1999/02/22-rdf-syntax-ns#"
   xmlns:svg="http://www.w3.org/2000/svg"
   xmlns="http://www.w3.org/2000/svg"
   version="1.1"
   id="svg5390"
   viewBox="0 0 218.98906 101"
   height="101"
   width="218.98906">
  <defs
     id="defs5392" />
  <metadata
     id="metadata5395">
    <rdf:RDF>
      <cc:Work
         rdf:about="">
        <dc:format>image/svg+xml</dc:format>
        <dc:type
           rdf:resource="http://purl.org/dc/dcmitype/StillImage" />
        <dc:title></dc:title>
      </cc:Work>
    </rdf:RDF>
  </metadata>
  <g
     transform="translate(-246.68929,-681.0122)"
     id="layer1">
    <g
       transform="matrix(0.45599635,0,0,0.45599635,134.69988,424.91749)"
       id="g35088">
      <path
         d="m 537.83929,671.0122 0,60.15 0,1.95 0,1.8 -0.3,3.3 -0.3,1.5 -0.3,1.35 -0.3,1.2 -0.45,1.05 -0.45,0.9 -0.45,0.9 -0.6,0.9 -0.6,0.9 -0.75,0.75 -0.75,0.75 -0.9,0.6 -0.9,0.6 -1.05,0.6 -0.9,0.45 -1.05,0.45 -1.2,0.3 -1.05,0.3 -1.35,0.15 -1.2,0.15 -1.35,0 -6.15,0 1.8,-8.25 2.25,0 1.65,0 1.5,-0.15 1.35,-0.3 1.05,-0.45 0.9,-0.45 0.9,-0.75 0.75,-0.9 0.6,-1.05 0.3,-0.6 0.15,-0.9 0.15,-0.9 0.15,-1.05 0.15,-1.35 0.15,-1.5 0,-3.3 0,-49.95 0,-0.75 0.15,-0.6 0.3,-1.35 0.45,-1.05 0.15,-0.45 0.3,-0.45 0.75,-0.9 0.6,-0.75 0.9,-0.6 0.75,-0.6 0.75,-0.45 0.75,-0.3 0.75,-0.3 0.75,-0.15 0.9,-0.3 0.3,-0.15 z m 143.85,60.9 -0.9,-0.15 -0.6,-0.15 -0.45,-0.15 -1.05,-0.45 -0.6,-0.45 -0.45,-0.45 -0.45,-0.45 -0.45,-0.6 -0.45,-0.6 -0.3,-0.75 -0.3,-0.9 -0.15,-1.05 -0.15,-1.05 -0.15,-1.35 0,-13.95 0,-1.5 0,-1.35 -0.15,-1.2 -0.3,-1.05 -0.15,-1.05 -0.45,-0.9 -0.3,-0.9 -0.45,-0.6 -0.45,-0.75 -0.6,-0.45 -0.6,-0.45 -0.75,-0.3 -0.9,-0.3 -0.9,-0.3 -0.9,0 -1.05,-0.15 -1.35,0.15 -1.35,0.3 -1.2,0.3 -1.2,0.6 -0.6,0.45 -0.45,0.45 -1.2,0.9 -1.05,1.05 -0.9,1.35 0,28.2 -7.95,0 0,-39.3 7.95,0 0,4.95 1.35,-1.35 1.35,-1.2 0.6,-0.6 0.75,-0.45 1.5,-0.75 1.5,-0.6 1.5,-0.45 0.75,-0.3 0.9,0 0.75,-0.15 0.9,0 1.8,0.15 0.9,0.15 0.75,0.15 0.9,0.3 0.75,0.3 0.9,0.45 0.75,0.45 0.75,0.45 0.75,0.6 1.35,1.2 0.6,0.6 0.45,0.75 0.45,0.75 0.45,0.9 0.45,0.9 0.3,0.9 0.3,1.2 0.15,1.2 0.3,1.35 0,0.75 0.15,0.75 0,1.65 0,1.8 0,22.5 -0.3,0 -1.05,0 z m 1.35,0 -1.35,0 1.05,0 0.3,0 z m -67.05,-23.7 19.8,0 -0.15,-1.2 -0.15,-1.05 -0.3,-1.05 -0.3,-0.9 -0.3,-0.9 -0.45,-0.75 -0.6,-0.75 -0.6,-0.6 -0.6,-0.6 -0.75,-0.6 -0.75,-0.3 -0.75,-0.45 -0.9,-0.3 -0.9,-0.15 -0.9,-0.15 -1.05,0 -1.05,0 -1.05,0.15 -0.9,0.15 -0.9,0.3 -0.75,0.45 -0.75,0.3 -0.75,0.6 -0.75,0.6 -0.6,0.6 -0.6,0.75 -0.45,0.75 -0.6,0.9 -0.3,0.9 -0.45,1.05 -0.3,1.05 -0.15,1.2 z m 27.45,4.65 -27.6,0 0.15,1.35 0.15,1.35 0.3,1.2 0.45,1.2 0.6,1.05 0.6,1.05 0.6,0.9 0.9,0.9 0.9,0.75 0.45,0.45 0.45,0.3 1.05,0.6 1.2,0.45 1.05,0.3 1.2,0.3 1.35,0.15 1.35,0 1.95,0 1.8,-0.3 1.8,-0.3 1.8,-0.45 1.8,-0.75 1.65,-0.75 0.9,-0.45 0.75,-0.6 1.65,-1.05 0,7.5 -0.9,0.6 -0.9,0.6 -1.65,0.9 -1.8,0.75 -1.8,0.6 -1.8,0.45 -2.1,0.3 -2.1,0.15 -2.25,0.15 -1.65,0 -1.5,-0.15 -0.75,-0.15 -0.6,-0.15 -1.35,-0.3 -1.35,-0.3 -1.2,-0.45 -1.05,-0.6 -1.05,-0.6 -1.05,-0.75 -0.9,-0.75 -0.9,-0.75 -0.75,-0.9 -0.9,-0.9 -0.6,-1.05 -0.75,-1.05 -0.6,-1.05 -0.6,-1.2 -0.45,-1.2 -0.45,-1.35 -0.3,-1.2 -0.3,-1.35 -0.15,-1.35 -0.15,-1.5 0,-1.5 0,-2.25 0.3,-1.95 0.15,-1.05 0.3,-1.05 0.15,-0.9 0.3,-0.9 0.75,-1.8 0.9,-1.65 1.05,-1.65 1.2,-1.35 0.6,-0.75 0.75,-0.6 1.35,-1.2 1.5,-0.9 0.75,-0.45 0.9,-0.45 0.75,-0.3 0.9,-0.3 0.9,-0.15 0.9,-0.3 1.95,-0.15 0.9,-0.15 1.05,0 1.8,0.15 1.95,0.15 1.65,0.45 1.65,0.6 1.5,0.75 1.35,1.05 0.75,0.45 0.6,0.6 1.2,1.35 1.05,1.35 1.05,1.5 0.3,0.9 0.45,0.75 0.6,1.8 0.6,1.95 0.3,1.95 0.15,1.05 0.15,1.05 0,2.25 0,1.05 z m -67.5,-14.1 14.55,-14.25 0,8.1 12.45,0 0,7.05 -12.45,0 0,19.2 0.15,1.5 0.3,1.5 0.15,0.6 0.3,0.45 0.3,0.6 0.3,0.45 0.3,0.3 0.45,0.3 0.45,0.3 0.45,0.3 0.6,0.15 0.6,0.15 1.35,0.15 1.05,0 1.05,-0.15 1.05,-0.3 1.05,-0.3 1.2,-0.3 1.05,-0.45 1.2,-0.6 1.2,-0.6 0,7.2 -1.2,0.6 -1.2,0.45 -1.2,0.45 -1.2,0.3 -1.2,0.3 -1.2,0.15 -1.35,0.15 -1.35,0 -1.2,0 -1.35,-0.15 -1.2,-0.15 -1.05,-0.45 -0.6,-0.15 -0.45,-0.3 -1.05,-0.45 -1.05,-0.6 -0.9,-0.75 -0.45,-0.6 -0.6,-0.45 -0.3,-0.6 -0.45,-0.45 -0.75,-1.35 -0.45,-1.8 -0.3,-1.2 -0.15,-1.5 0,-2.1 0,-2.4 0,-17.4 -6.9,0 0,-0.9 z m -12.3,25.35 0,-11.7 -5.25,1.95 -1.8,0.9 -1.5,0.75 -1.35,0.75 -0.9,0.9 -0.45,0.3 -0.3,0.45 -0.45,1.05 -0.3,0.45 0,0.6 -0.15,0.45 0,0.6 0,0.6 0.15,0.6 0,0.6 0.3,0.45 0.15,0.45 0.3,0.45 0.3,0.45 0.3,0.45 0.45,0.3 0.45,0.3 0.9,0.6 1.05,0.3 1.2,0 1.05,0 0.9,-0.15 0.75,-0.3 0.45,-0.15 0.45,-0.15 0.9,-0.45 0.9,-0.45 0.75,-0.6 0.75,-0.75 z m 13.5,0.9 -0.45,1.05 -0.45,1.2 -0.45,0.75 -0.3,0.75 -1.05,1.35 -0.6,0.6 -0.75,0.6 -0.75,0.45 -0.75,0.3 -0.9,0.3 -1.05,0.15 -1.2,-0.15 -1.05,-0.15 -0.9,-0.3 -0.9,-0.45 -0.3,-0.15 -0.3,-0.3 -0.6,-0.75 -0.45,-0.75 -0.3,-0.9 -1.2,0.9 -1.35,0.75 -1.2,0.75 -1.35,0.45 -1.35,0.45 -1.35,0.3 -1.35,0.15 -1.35,0.15 -1.05,0 -0.9,-0.15 -1.05,-0.3 -0.75,-0.3 -0.9,-0.3 -0.75,-0.45 -0.45,-0.3 -0.3,-0.3 -0.75,-0.6 -0.6,-0.75 -0.6,-0.75 -0.45,-0.75 -0.45,-0.9 -0.3,-0.9 -0.15,-0.9 -0.15,-0.45 0,-0.45 0,-1.05 0,-0.9 0.15,-0.9 0,-0.45 0.15,-0.45 0.3,-0.75 0.45,-0.9 0.45,-0.75 0.45,-0.75 0.6,-0.75 0.75,-0.75 0.75,-0.75 0.9,-0.6 0.9,-0.6 2.1,-1.05 1.05,-0.45 1.2,-0.45 9.9,-3.45 0,-2.1 0,-0.9 0,-0.75 -0.15,-0.75 -0.3,-0.75 -0.15,-0.6 -0.3,-0.6 -0.45,-0.6 -0.3,-0.45 -0.6,-0.3 -0.45,-0.45 -0.6,-0.3 -0.6,-0.3 -0.75,-0.15 -0.75,-0.15 -1.65,0 -1.65,0 -1.5,0.3 -0.75,0.3 -0.9,0.3 -0.75,0.3 -0.75,0.3 -0.75,0.45 -0.75,0.6 -1.5,1.05 -1.65,1.35 -0.75,0.75 -0.75,0.75 0,-8.4 0.6,-0.75 0.6,-0.6 1.35,-1.05 0.75,-0.45 0.75,-0.45 1.5,-0.75 1.65,-0.6 1.8,-0.45 1.95,-0.15 2.1,-0.15 1.5,0 1.5,0.15 1.5,0.3 1.2,0.45 1.35,0.45 1.05,0.6 1.2,0.6 0.9,0.75 0.6,0.6 0.6,0.75 0.6,0.75 0.6,0.75 0.45,0.9 0.3,0.9 0.3,0.9 0.15,0.9 0.3,2.55 0,4.2 0,16.8 0.15,0.9 0.15,0.6 0.3,0.15 0.15,0.15 0.6,0.15 0.9,-0.15 0.9,-0.3 0.6,-0.3 0.6,-0.3 1.5,-0.9 z m 112.05,-18.75 0,-1.65 0.3,-1.35 0.3,-1.35 0.45,-1.35 0.75,-1.2 0.75,-1.05 0.9,-1.05 1.05,-1.05 1.2,-0.75 1.35,-0.75 1.35,-0.75 1.5,-0.45 1.65,-0.45 1.8,-0.3 1.8,-0.15 1.95,0 9.6,0 2.7,0 6.15,0 0,0.3 -0.15,0.6 -0.45,0.9 -0.3,0.45 -0.45,0.6 -0.45,0.6 -0.6,0.45 -0.75,0.6 -0.9,0.45 -1.05,0.3 -1.2,0.45 -1.35,0.15 -1.5,0.15 -1.05,0 1.05,1.2 0.9,1.05 0.75,1.05 0.45,1.05 0.45,0.9 0.3,1.2 0.15,1.05 0,1.2 -0.15,1.5 -0.3,1.65 -0.45,1.5 -0.75,1.5 -0.6,0.6 -0.45,0.75 -0.45,0.6 -0.6,0.6 -0.6,0.6 -0.6,0.45 -0.6,0.45 -0.75,0.45 -0.6,0.45 -0.9,0.3 -2.1,0.6 -1.2,0.45 -1.2,0.15 -3,0.6 -1.95,0.45 -0.75,0.3 -0.6,0.3 -0.45,0.45 -0.3,0.45 -0.3,0.45 0,0.6 0,0.3 0.15,0.3 0.3,0.6 0.15,0.3 0.3,0.3 0.75,0.45 1.05,0.45 1.2,0.45 1.65,0.45 2.1,0.45 3.3,0.75 2.55,0.75 1.95,0.45 1.5,0.6 0.9,0.45 1.05,0.6 0.9,0.75 0.75,0.75 0.75,0.75 0.6,0.75 0.45,0.75 0.45,0.9 0.3,0.9 0.15,0.9 0.15,1.05 0,1.05 0,1.35 -0.3,1.35 -0.3,1.2 -0.3,0.6 -0.3,0.6 -0.75,1.05 -0.75,1.05 -0.6,0.45 -0.45,0.45 -1.2,0.9 -1.35,0.75 -0.6,0.3 -0.75,0.3 -0.75,0.3 -0.75,0.3 -1.65,0.45 -1.65,0.45 -1.8,0.3 -1.95,0.15 -2.1,0 -1.95,0 -1.95,-0.15 -1.95,-0.3 -1.65,-0.45 -1.65,-0.45 -1.5,-0.6 -1.35,-0.6 -1.35,-0.75 -1.2,-0.9 -1.05,-1.05 -0.9,-0.9 -0.6,-1.2 -0.6,-1.05 -0.15,-0.6 -0.3,-0.75 0,-0.6 -0.15,-0.6 -0.15,-1.35 0.15,-1.05 0,-0.9 0.3,-0.9 0.15,-0.9 0.45,-0.75 0.45,-0.75 0.45,-0.75 0.6,-0.6 0.6,-0.6 0.75,-0.6 0.75,-0.6 0.9,-0.45 1.05,-0.45 1.05,-0.45 1.05,-0.3 1.2,-0.3 -0.9,-0.6 -0.75,-0.75 -0.75,-0.6 -0.45,-0.6 -0.45,-0.6 -0.3,-0.6 -0.3,-0.6 0,-0.75 0.15,-0.9 0.3,-0.75 0.15,-0.45 0.3,-0.45 0.75,-0.75 0.45,-0.45 0.45,-0.3 1.05,-0.6 1.2,-0.6 1.35,-0.3 -1.95,-1.05 -0.9,-0.6 -0.9,-0.6 -0.75,-0.75 -0.75,-0.6 -0.6,-0.75 -0.6,-0.75 -0.45,-0.75 -0.45,-0.9 -0.45,-0.9 -0.3,-0.9 -0.15,-0.9 -0.15,-1.05 -0.15,-0.9 0,-1.05 z m 14.55,-6.9 -0.75,0 -0.75,0.15 -0.75,0.15 -0.6,0.15 -0.75,0.3 -0.6,0.45 -0.6,0.45 -0.6,0.45 -0.45,0.6 -0.45,0.6 -0.45,0.6 -0.3,0.6 -0.3,0.6 -0.15,0.75 0,0.75 -0.15,0.75 0.15,0.6 0,0.75 0.15,0.75 0.3,0.6 0.3,0.6 0.3,0.6 0.45,0.6 0.6,0.45 0.6,0.45 0.6,0.45 0.6,0.3 0.6,0.3 0.75,0.3 0.75,0.15 1.65,0 0.75,0 0.75,0 0.75,-0.15 0.75,-0.3 0.6,-0.3 0.6,-0.3 0.6,-0.45 0.6,-0.45 0.6,-0.6 0.45,-0.45 0.3,-0.6 0.3,-0.6 0.3,-0.75 0.15,-0.6 0.15,-0.75 0,-0.75 0,-0.75 -0.15,-0.75 -0.15,-0.75 -0.3,-0.6 -0.3,-0.6 -0.3,-0.6 -0.45,-0.6 -0.6,-0.45 -0.6,-0.6 -0.6,-0.3 -0.6,-0.45 -0.75,-0.3 -0.6,-0.15 -0.75,-0.15 -1.65,-0.15 z m -1.8,34.5 -1.95,0 -1.65,0.3 -0.75,0.3 -0.75,0.3 -1.35,0.75 -0.6,0.3 -0.45,0.6 -0.45,0.45 -0.45,0.45 -0.15,0.6 -0.3,0.6 0,0.6 -0.15,0.6 0.15,0.75 0,0.75 0.15,0.3 0.15,0.3 0.3,0.6 0.3,0.45 0.6,0.6 0.45,0.45 0.75,0.3 0.6,0.45 0.9,0.3 1.8,0.45 2.25,0.3 1.2,0 1.35,0.15 1.35,-0.15 1.05,0 1.2,-0.15 1.05,-0.15 0.9,-0.15 0.9,-0.3 0.9,-0.3 0.75,-0.45 0.6,-0.3 0.6,-0.45 0.45,-0.45 0.45,-0.6 0.3,-0.6 0.15,-0.45 0.15,-0.75 0.15,-0.6 -0.15,-0.75 -0.15,-0.6 -0.3,-0.6 -0.3,-0.6 -0.6,-0.45 -0.6,-0.6 -0.75,-0.45 -0.75,-0.45 -1.05,-0.45 -0.9,-0.3 -1.05,-0.3 -1.2,-0.3 -1.2,-0.15 -1.2,-0.15 -1.35,0 -1.35,0 z m -337.35,-1.05 -20.7,0 0,-61.05 16.05,0 1.8,0 1.8,0.15 1.65,0.15 1.5,0.15 1.35,0.3 1.35,0.45 1.2,0.3 1.2,0.45 0.9,0.6 1.05,0.6 0.9,0.6 0.75,0.75 0.9,0.6 0.6,0.9 0.75,0.75 0.6,0.9 0.45,0.9 0.45,0.9 0.45,1.05 0.3,0.9 0.15,1.05 0.3,1.2 0,1.05 0.15,1.2 -0.15,1.05 0,1.05 -0.3,1.05 -0.15,1.05 -0.45,0.9 -0.3,0.9 -0.45,0.9 -0.6,0.75 -0.6,0.75 -0.75,0.75 -0.75,0.75 -0.75,0.6 -1.05,0.75 -0.9,0.6 -1.05,0.45 -1.2,0.6 1.65,0.3 1.65,0.45 1.35,0.6 1.35,0.6 1.35,0.75 1.2,0.75 1.05,0.9 1.05,1.05 1.05,1.05 0.75,1.2 0.3,0.6 0.3,0.6 0.6,1.2 0.45,1.35 0.3,1.35 0.15,1.35 0.15,1.5 -0.15,1.05 0,1.2 -0.3,1.05 -0.15,1.05 -0.45,1.05 -0.3,1.05 -0.6,0.9 -0.45,0.9 -0.75,0.9 -0.6,0.9 -0.75,0.75 -0.9,0.9 -0.9,0.6 -1.05,0.75 -1.05,0.6 -1.05,0.6 -1.2,0.6 -1.35,0.45 -1.35,0.45 -1.35,0.3 -1.5,0.15 -1.65,0.3 -1.65,0 -1.65,0.15 z m -4.35,-53.25 -7.5,0 0,18.3 5.7,0 1.8,0 1.5,-0.15 0.75,-0.15 0.75,0 1.2,-0.3 1.2,-0.45 1.05,-0.45 0.9,-0.6 0.45,-0.3 0.45,-0.3 0.6,-0.6 0.6,-0.75 0.6,-0.75 0.3,-0.9 0.45,-0.9 0,-0.45 0.15,-0.45 0.15,-1.05 0,-1.05 0,-1.05 -0.15,-0.9 -0.15,-1.05 -0.3,-0.75 -0.45,-0.9 -0.45,-0.6 -0.6,-0.75 -0.6,-0.6 -0.75,-0.45 -0.9,-0.45 -0.9,-0.3 -1.05,-0.45 -1.05,-0.15 -1.2,-0.15 -1.2,-0.15 -1.35,0 z m 0.6,26.1 -8.1,0 0,19.35 8.55,0 3.3,-0.15 1.35,0 1.35,-0.15 1.2,-0.15 0.9,-0.15 0.9,-0.3 0.75,-0.3 1.2,-0.6 0.6,-0.3 0.45,-0.45 1.05,-0.9 0.75,-1.2 0.45,-0.6 0.3,-0.6 0.45,-1.2 0.3,-1.35 0,-1.2 0,-0.75 0,-0.75 -0.3,-1.2 -0.3,-0.6 -0.3,-0.75 -0.3,-0.6 -0.3,-0.6 -0.45,-0.45 -0.45,-0.6 -0.6,-0.45 -0.6,-0.45 -0.6,-0.45 -0.6,-0.3 -0.75,-0.3 -0.6,-0.3 -0.9,-0.3 -0.9,-0.3 -1.05,-0.15 -1.05,-0.15 -1.35,-0.15 -1.35,-0.15 -3,0 z m 61.65,20.1 -0.45,1.35 -0.45,1.2 -0.6,0.9 -0.6,0.9 -0.6,0.75 -0.75,0.6 -0.75,0.6 -0.75,0.45 -1.2,0.45 -1.2,0.3 -0.75,0.15 -0.3,0 -1.05,-0.15 -0.45,-0.15 -0.45,-0.15 -0.45,-0.15 -0.45,-0.15 -0.3,-0.15 -0.45,-0.3 -0.6,-0.45 -0.45,-0.75 -0.45,-0.75 -0.15,-0.75 -1.35,0.9 -0.6,0.45 -0.75,0.3 -1.2,0.75 -1.35,0.45 -1.5,0.45 -1.35,0.3 -1.35,0.15 -1.5,0.15 -1.05,0 -0.9,-0.15 -0.9,-0.3 -0.9,-0.3 -0.9,-0.3 -0.75,-0.6 -0.9,-0.45 -0.6,-0.75 -0.75,-0.75 -0.6,-0.75 -0.45,-0.75 -0.3,-0.9 -0.45,-0.9 -0.15,-0.9 -0.15,-1.05 0,-0.9 0,-1.05 0.15,-0.9 0.15,-0.9 0.3,-0.75 0.45,-0.9 0.45,-0.75 0.6,-0.9 0.6,-0.75 0.75,-0.75 0.75,-0.6 0.9,-0.75 0.9,-0.6 1.05,-0.6 1.05,-0.45 1.2,-0.6 1.2,-0.45 10.2,-3.45 0,-2.1 -0.15,-0.9 0,-0.9 -0.15,-0.75 -0.15,-0.6 -0.3,-0.75 -0.3,-0.6 -0.45,-0.45 -0.3,-0.45 -0.6,-0.45 -0.45,-0.45 -0.6,-0.3 -0.75,-0.3 -0.6,-0.15 -0.75,-0.15 -0.9,0 -0.9,-0.15 -1.65,0.15 -1.5,0.3 -0.9,0.3 -0.75,0.3 -0.75,0.3 -0.9,0.45 -0.75,0.45 -0.75,0.45 -1.65,1.2 -1.5,1.35 -0.75,0.75 -0.75,0.75 0,-8.7 0.6,-0.6 0.6,-0.6 0.6,-0.6 0.75,-0.6 1.5,-0.9 0.75,-0.45 0.75,-0.3 1.8,-0.6 0.9,-0.3 0.9,-0.15 1.95,-0.15 1.05,-0.15 1.05,0 1.65,0 1.5,0.15 1.5,0.3 1.35,0.45 1.2,0.45 1.2,0.6 1.05,0.6 1.05,0.9 0.6,0.6 0.6,0.6 1.2,1.65 0.45,0.9 0.3,0.9 0.3,0.9 0.3,0.9 0,1.2 0.15,1.5 0,4.2 0,17.25 0.15,0.9 0.15,0.3 0.15,0.3 0.15,0.15 0.3,0.15 0.6,0.15 0.75,-0.15 1.05,-0.3 1.2,-0.6 1.5,-0.9 z m -13.65,-0.9 0,-12 -5.4,1.95 -1.05,0.45 -0.9,0.45 -1.5,0.75 -0.75,0.45 -0.6,0.45 -0.45,0.45 -0.45,0.3 -0.75,0.9 -0.3,0.45 -0.3,0.6 -0.15,0.45 -0.15,0.6 -0.15,1.2 0,0.6 0.15,0.6 0.15,0.45 0.15,0.6 0.45,0.9 0.3,0.45 0.45,0.45 0.45,0.3 0.45,0.45 0.45,0.15 0.45,0.3 0.6,0.15 0.6,0.15 1.2,0 0.9,0 0.9,-0.15 0.9,-0.15 0.9,-0.45 0.45,-0.15 0.45,-0.3 0.9,-0.45 0.75,-0.6 0.9,-0.75 z m 25.35,-32.25 0,4.95 1.35,-1.35 1.35,-1.2 0.75,-0.45 0.75,-0.6 0.75,-0.45 0.75,-0.3 0.75,-0.45 0.75,-0.3 1.65,-0.45 0.75,-0.15 0.75,0 0.9,-0.15 0.9,0 1.8,0.15 0.9,0.15 0.9,0.15 0.9,0.3 0.75,0.3 0.9,0.45 0.75,0.45 1.5,1.05 0.75,0.6 0.6,0.6 0.6,0.75 0.6,0.75 0.45,0.75 0.45,0.9 0.45,0.9 0.3,0.9 0.3,1.2 0.15,1.35 0.3,1.35 0,1.5 0.15,1.65 0,1.8 0,23.1 -0.3,-0.15 -0.9,-0.15 -0.6,-0.3 -0.75,-0.3 -0.6,-0.3 -0.75,-0.45 -0.75,-0.6 -0.75,-0.75 -0.75,-0.75 -0.6,-1.05 -0.45,-1.2 -0.15,-0.6 -0.3,-0.6 -0.15,-1.5 -0.15,-0.75 0,-0.9 0,-12.6 0,-1.5 -0.15,-1.5 -0.15,-1.2 -0.15,-1.2 -0.3,-1.05 -0.3,-0.9 -0.45,-0.75 -0.3,-0.75 -0.6,-0.6 -0.6,-0.6 -0.6,-0.45 -0.75,-0.45 -0.9,-0.15 -0.9,-0.3 -0.9,-0.15 -1.05,0 -1.5,0.15 -1.2,0.15 -0.75,0.3 -0.6,0.15 -1.2,0.6 -0.6,0.45 -0.6,0.45 -1.05,0.9 -0.6,0.6 -0.45,0.6 -1.05,1.35 0,28.8 -8.1,0 0,-40.2 8.1,0 z m 58.8,0 9.6,0 -17.1,19.65 20.55,20.55 -1.8,-0.15 -1.65,-0.15 -1.65,-0.3 -1.5,-0.3 -1.5,-0.45 -1.35,-0.6 -1.2,-0.45 -1.2,-0.6 -1.95,-1.05 -1.5,-1.05 -1.2,-0.9 -14.25,-14.55 17.7,-19.65 z m -18.15,-20.85 0,61.05 -7.95,0 0,-52.65 0.15,-1.5 0.15,-1.35 0.45,-1.05 0.45,-1.05 0.6,-0.75 0.75,-0.75 0.75,-0.45 0.75,-0.45 0.75,-0.3 0.6,-0.3 0.75,-0.15 0.6,-0.15 0.9,-0.15 0.3,0 z"
         style="fill:#000a63;fill-opacity:1;fill-rule:nonzero;stroke:none"
         id="path9550" />
      <path
         d="m 348.23929,668.1622 1.5,-1.8 1.95,-2.1 2.7,-2.85 3.3,-3.3 4.05,-3.9 4.65,-4.2 2.4,-2.25 2.7,-2.25 2.85,-2.4 2.85,-2.4 3,-2.4 3.15,-2.4 3.3,-2.4 3.45,-2.55 3.45,-2.4 3.6,-2.25 3.75,-2.4 3.75,-2.25 3.9,-2.25 3.9,-2.1 4.05,-2.1 4.2,-1.95 4.2,-1.8 2.1,-0.9 2.1,-0.75 -5.7,25.95 -1.5,0.3 -4.2,1.05 -3.15,0.9 -3.75,1.05 -4.2,1.35 -4.8,1.65 -5.4,1.95 -5.7,2.4 -6.15,2.55 -6.6,3 -3.45,1.65 -3.6,1.8 -7.2,3.75 -3.75,2.1 -3.9,2.25 -3.9,2.25 -3.9,2.4"
         style="fill:#fa1c24;fill-opacity:1;fill-rule:evenodd;stroke:none"
         id="path9554" />
      <path
         d="m 336.53929,675.6622 -1.8,2.1 -2.1,2.7 -2.85,3.45 -3.3,4.5 -1.8,2.55 -1.95,2.7 -4.05,6.15 -2.1,3.3 -2.25,3.45 -2.25,3.75 -2.25,3.75 -2.4,4.05 -2.25,4.2 -2.25,4.2 -2.25,4.5 -2.1,4.65 -2.25,4.65 -2.1,4.8 -1.95,4.95 -1.95,5.1 -0.9,2.55 -0.9,2.7 -0.9,2.55 -0.75,2.7 -0.9,2.7 -0.75,2.55 -1.35,5.55 -1.35,5.55 -35.85,-22.95 0.45,-0.9 1.65,-2.7 1.2,-2.1 1.5,-2.25 1.8,-2.7 2.1,-3 2.55,-3.45 2.85,-3.6 3.15,-3.9 3.45,-4.05 3.9,-4.35 4.35,-4.5 4.65,-4.65 2.55,-2.4 2.55,-2.4 5.25,-4.65 5.1,-4.35 4.8,-4.05 4.8,-3.6 4.35,-3.3 4.35,-3 3.9,-2.7 3.6,-2.25 3.3,-2.1 2.85,-1.8 2.7,-1.35 2.1,-1.2 3,-1.5 1.05,-0.6"
         style="fill:#fa1c24;fill-opacity:1;fill-rule:evenodd;stroke:none"
         id="path9558" />
      <path
         d="m 292.73927,652.1122 -37.65,-1.95 8.55,-8.85 29.1,10.8 z m 130.20001,-89.4 16.05,7.65 -1.95,1.2 -5.4,3.15 -7.65,4.95 -4.5,3 -4.95,3.3 -4.95,3.6 -5.1,3.75 -5.1,4.05 -2.55,2.1 -2.55,2.1 -4.65,4.2 -1.2,1.2 -1.05,1.05 -2.25,2.1 -1.95,2.25 -1.95,2.25 -1.8,2.1 -1.65,2.25 0.3,-0.75 1.2,-2.25 1.8,-3.45 1.2,-2.1 1.35,-2.4 1.65,-2.55 1.8,-2.85 2.1,-3 2.1,-3.15 2.55,-3.3 2.7,-3.45 2.85,-3.45 3.15,-3.6 5.85,-6.3 2.4,-2.55 2.25,-2.25 3.45,-3.6 2.7,-2.4 1.8,-1.65 1.2,-0.75 0.6,-0.45 0.15,0 z m -59.55,53.25 10.95,7.05 -3.15,3.6 -3.45,4.05 -4.05,5.1 -2.25,3 -2.4,3 -2.25,3.15 -2.25,3.15 -2.25,3.15 -1.95,3.3 -1.95,3.15 -1.65,3 0.15,-1.05 0.75,-2.85 1.2,-4.5 1.8,-5.85 1.05,-3.3 1.2,-3.6 1.35,-3.6 1.65,-3.9 1.65,-3.9 1.8,-4.05 1.95,-4.05 2.1,-4.05 z m -12,12.3 0.15,-1.05 0.3,-3 0.6,-4.35 0.3,-2.4 0.6,-2.55 0.6,-2.7 0.75,-2.55 1.5,-4.65 1.2,-3.45 0.6,-1.35 6.75,0.45 -0.9,1.2 -0.9,1.5 -1.05,1.8 -1.2,2.1 -1.05,2.25 -1.2,2.25 -2.1,4.8 -1.95,4.5 -1.5,3.75 -1.5,3.45 z m -2.1,-19.5 -0.15,-1.8 -0.15,-1.95 0,-2.55 -0.15,-3 0,-3.3 0.15,-3.45 0.3,-3.6 0.15,-1.8 0.3,-1.8 0.3,-1.65 0.3,-1.65 0.75,-3.15 0.75,-2.7 0.75,-2.25 0.6,-1.8 0.6,-1.5 11.25,0.45 -0.75,1.05 -0.75,1.05 -1.35,2.55 -1.5,2.85 -0.75,1.35 -0.6,1.5 -2.7,6.3 -1.2,3 -1.2,3.15 -2.1,5.7 -1.5,4.65 -1.35,4.35 z m -3.00001,9.75 -0.15,0.75 -0.45,2.55 -0.75,5.1 -0.3,3.75 -0.45,4.65 -0.45,4.95 -0.3,4.65 -0.3,4.2 -0.15,3.6 -0.15,5.25 0,1.8 -0.6,-1.35 -0.6,-1.35 -1.05,-3.15 -1.05,-3.15 -0.75,-3.15 -0.3,-1.65 -0.45,-1.65 -0.45,-3.3 -0.45,-3.3 -0.45,-3 -0.45,-5.7 -0.3,-4.5 -0.15,-3 0,-1.05 10.5,-1.95 z m -15.15,14.25 0.15,1.8 0.15,1.95 0.3,2.1 0.45,2.25 0.75,4.5 0.9,4.5 0.9,4.05 0.75,3.3 0.75,3 -1.35,-1.5 -1.2,-1.8 -1.2,-1.8 -1.05,-1.8 -1.05,-1.95 -0.9,-1.8 -1.65,-3.6 -1.35,-3.3 -0.9,-2.55 -0.9,-2.4 6.45,-4.95 z m -15.9,8.1 -0.75,-0.75 -2.1,-1.8 -1.5,-1.35 -1.8,-1.35 -1.95,-1.65 -2.4,-1.65 -2.4,-1.5 -2.25,-1.5 -3.75,-2.25 -3.6,-1.95 7.5,-3.45 2.55,2.85 1.2,1.5 1.35,1.5 2.4,3.3 2.4,3 3.6,4.95 1.5,2.1 z m 2.55,3.6 0.45,0.45 1.5,1.35 0.9,0.9 0.9,1.2 1.05,1.5 1.05,1.65 7.35,12.15 -3.9,-3.15 -1.95,-1.35 -1.95,-1.5 -3.75,-2.7 -3.6,-2.4 -3,-1.95 -2.55,-1.65 -2.1,-1.35 9.6,-3.15 z m 11.85,24.45 -14.4,-1.65 -4.2,-0.45 -4.2,-0.45 -7.65,-0.6 -8.1,-0.6 8.7,-9.75 3.45,1.05 3.15,1.05 3.15,1.2 2.7,1.2 5.1,2.25 4.35,2.1 3.45,1.95 2.4,1.5 2.1,1.2 z m -25.2,2.85 -2.7,0.15 -2.85,0.15 -2.85,0.3 -2.85,0.3 -5.4,0.75 -5.1,0.75 -7.8,1.5 -3,0.6 3.6,-8.55 3.9,0.15 3.6,0.3 3.15,0.3 3,0.3 5.1,0.75 3.9,0.6 1.5,0.3 1.35,0.3 1.95,0.6 1.5,0.45 z m 28.05,1.65 -25.35,9.6 -2.85,1.2 -2.85,1.35 -3,1.5 -3,1.65 -3.15,1.65 -3,1.8 -5.85,3.6 -2.7,1.8 -2.55,1.65 -4.2,2.7 -3.75,2.7 9.15,-21.15 2.55,-1.05 2.7,-1.05 2.55,-0.9 2.55,-0.9 2.55,-0.75 2.4,-0.75 4.8,-1.2 4.65,-1.05 4.35,-0.75 2.1,-0.3 2.1,-0.3 3.75,-0.45 3.45,-0.3 3.15,-0.3 2.7,0 2.4,0 3.15,0 1.2,0 z m -46.35,30.9 -3.6,2.55 -1.65,1.35 -1.95,1.5 -4.2,3.6 -2.25,1.95 -2.25,2.25 -2.1,2.1 -1.95,2.1 -2.85,3.3 -1.2,1.2 0,-10.35 2.4,-1.65 2.4,-1.5 2.25,-1.35 2.25,-1.2 4.05,-2.1 1.95,-0.75 1.65,-0.75 3,-1.05 2.25,-0.75 1.8,-0.45 z m -8.85,-22.95 -2.7,0.6 -2.85,0.75 -3.6,1.05 -4.2,1.2 -2.1,0.75 -2.25,0.6 -2.1,0.9 -2.25,0.75 -4.05,1.65 2.7,-7.8 1.35,-0.15 3.6,-0.3 4.5,-0.3 2.4,-0.15 2.1,0 3.9,0 2.85,0.15 2.7,0.3 z"
         style="fill:#fed207;fill-opacity:1;fill-rule:nonzero;stroke:none"
         id="path9562" />
    </g>
  </g>
</svg>
