<?xml version="1.0" encoding="UTF-8" standalone="no"?>
<svg
   xmlns:dc="http://purl.org/dc/elements/1.1/"
   xmlns:cc="http://creativecommons.org/ns#"
   xmlns:rdf="http://www.w3.org/1999/02/22-rdf-syntax-ns#"
   xmlns:svg="http://www.w3.org/2000/svg"
   xmlns="http://www.w3.org/2000/svg"
   version="1.1"
   id="svg17613"
   viewBox="0 0 211.82665 46.182017"
   height="46.182018"
   width="211.82664">
  <defs
     id="defs17615" />
  <metadata
     id="metadata17618">
    <rdf:RDF>
      <cc:Work
         rdf:about="">
        <dc:format>image/svg+xml</dc:format>
        <dc:type
           rdf:resource="http://purl.org/dc/dcmitype/StillImage" />
        <dc:title></dc:title>
      </cc:Work>
    </rdf:RDF>
  </metadata>
  <g
     transform="translate(-291.72953,-868.77119)"
     id="layer1">
    <g
       transform="translate(0.49999552,-0.50000231)"
       id="g18171">
      <g
         id="g17671"
         transform="matrix(1.25,0,0,-1.25,306.67993,886.43869)">
        <path
           d="M 0,0 -1.744,1.744 -3.489,0 -1.744,-1.744 0,0 Z m 9.785,-14.184 1.744,1.744 -1.744,1.745 -1.744,-1.745 1.744,-1.744 z m 4.637,0 1.744,1.744 -1.744,1.745 -1.744,-1.745 1.744,-1.744 z M 21.275,3.287 C 20.39,4.861 17.486,10.398 11.327,13.334 10.822,12.272 9.326,10.13 8.111,9.217 c 0,0 8.686,-1.501 12.623,-8.514 1.132,-2.116 2.781,-6.57 -1.107,-12.55 -1.969,-2.928 -4.159,-4.749 -7.382,-5.979 -4.307,-1.624 -4.922,-0.05 -6.89,-1.747 l -3.101,-3.175 c 0,0 7.801,-0.443 11.935,1.009 1.87,0.64 8.268,2.633 9.67,11.172 0.271,2.018 0.886,7.505 -2.584,13.854 M 6.378,-8.829 l 6.441,0 c 2.969,0 4.413,1.608 5.086,2.461 1.591,1.985 0.821,4.595 0.342,5.302 -1.782,2.987 -5.682,4.513 -5.682,4.513 2.251,-2.375 2.276,-4.541 1.205,-6.325 -1.513,-2.62 -4.614,-3.084 -5.622,-3.084 l -2.296,0 C 4.39,-2.331 4.4,3.256 6.438,8.561 6.438,8.561 4.452,7.347 3.115,5.686 1.713,3.914 0.86,0.284 2.188,-3.874 c 0,0 0.233,-0.8 0.741,-2.088 l -3.551,0 c 0.452,-0.327 1.615,-1.207 2.466,-2.21 0.681,-0.66 1.28,-0.657 1.28,-0.657 l 1.062,0 c 0.41,-1.022 1.2,-2.614 0.726,-5.397 -0.361,-1.542 -1.231,-2.468 -1.624,-2.776 -0.755,-0.537 -2.51,-1.44 -6.53,0.709 -2.723,1.493 -4.101,3.33 -4.839,5.233 -0.672,1.756 -0.246,4.872 0.361,5.791 0.836,1.345 2.903,4.216 2.903,4.216 0,0 -2.887,-2.428 -4.658,-4.987 -0.574,-0.837 -1.493,-2.083 -2.149,-4.331 -0.23,-0.82 -0.722,-2.69 0.213,-4.97 0.443,-1.149 2.133,-4.249 6.086,-5.84 2.018,-0.755 5.463,-1.296 7.497,0.738 1.148,1.263 3.708,3.888 4.085,6.184 0.308,1.21 0.353,3.316 0.121,5.43"
           style="fill:#73c167;fill-opacity:1;fill-rule:nonzero;stroke:none"
           id="path17673" />
      </g>
      <g
         id="g17675"
         transform="matrix(1.25,0,0,-1.25,360.55368,898.70869)">
        <path
           d="m 0,0 c -0.756,-0.718 -2.004,-0.832 -3.194,-0.832 l -3.572,0 0,11.132 -1.002,0 0,0.832 4.063,0 c 1.04,0 1.834,-0.095 2.495,-0.416 C -0.227,10.243 0.265,9.242 0.265,8.183 0.265,6.88 -0.227,5.896 -1.228,5.462 0.038,5.216 0.964,4.177 0.964,2.419 0.964,1.436 0.586,0.548 0,0 M -1.852,10.017 C -2.325,10.243 -2.929,10.3 -3.723,10.3 l -1.89,0 0,-4.554 2.06,0 c 0.945,0 1.398,0.037 1.89,0.34 0.643,0.396 0.831,1.247 0.831,2.022 0,0.737 -0.283,1.569 -1.02,1.909 M -1.323,4.63 C -1.852,4.914 -2.57,4.933 -3.742,4.933 l -1.871,0 0,-4.933 2.192,0 c 0.68,0 1.644,0.057 2.23,0.434 0.662,0.416 0.908,1.172 0.908,2.061 0,1.134 -0.398,1.795 -1.04,2.135"
           style="fill:#542988;fill-opacity:1;fill-rule:nonzero;stroke:none"
           id="path17677" />
      </g>
      <g
         id="g17679"
         transform="matrix(1.25,0,0,-1.25,373.66493,899.65369)">
        <path
           d="m 0,0 c -0.151,-0.095 -0.454,-0.132 -0.68,-0.132 -0.851,0 -1.229,0.397 -1.248,1.19 -0.416,-0.907 -1.55,-1.304 -2.589,-1.304 -1.852,0 -3.119,1.059 -3.119,2.949 0,2.192 1.645,3.005 3.61,3.005 0.813,0 1.607,-0.095 2.041,-0.189 l 0,0.737 c 0,1.587 -0.793,2.192 -2.324,2.192 -0.851,0 -1.777,-0.227 -2.571,-0.567 l -0.038,0.851 c 0.776,0.321 1.853,0.529 2.684,0.529 2.136,0 3.308,-0.775 3.308,-3.024 l 0,-4.593 c 0,-0.718 0.076,-0.983 0.529,-0.983 0.189,0 0.34,0.038 0.454,0.095 L 0,0 Z m -1.985,4.744 c -0.378,0.075 -1.19,0.189 -1.965,0.189 -1.493,0 -2.646,-0.511 -2.646,-2.174 0,-1.304 0.794,-2.211 2.154,-2.211 1.853,0 2.457,1.134 2.457,2.835"
           style="fill:#542988;fill-opacity:1;fill-rule:nonzero;stroke:none"
           id="path17681" />
      </g>
      <g
         id="g17683"
         transform="matrix(1.25,0,0,-1.25,385.21618,899.74744)">
        <path
           d="m 0,0 -1.059,0 0,5.783 c 0,1.04 -0.095,1.607 -0.548,2.079 -0.397,0.416 -1.001,0.605 -1.7,0.605 -0.775,0 -1.513,-0.208 -1.986,-0.737 -0.491,-0.548 -0.66,-1.247 -0.66,-2.438 l 0,-5.292 -1.06,0 0,8.354 -1.038,0 0,0.813 1.851,0 0.17,-1.135 c 0.283,0.416 0.699,0.756 1.21,0.983 0.492,0.227 1.04,0.321 1.719,0.321 0.946,0 1.834,-0.359 2.363,-0.907 C -0.077,7.749 0,6.766 0,5.859"
           style="fill:#542988;fill-opacity:1;fill-rule:nonzero;stroke:none"
           id="path17685" />
      </g>
      <g
         id="g17687"
         transform="matrix(1.25,0,0,-1.25,397.71243,899.60619)">
        <path
           d="m 0,0 c -0.17,-0.095 -0.473,-0.17 -0.718,-0.17 -0.662,0 -1.059,0.265 -1.474,0.983 l -2.174,3.817 -1.625,0 0,-4.743 -1.059,0 0,12.114 -1.039,0 0,0.813 2.098,0 0,-7.333 1.568,0 2.609,3.572 1.133,0 -2.834,-3.912 2.211,-3.894 c 0.246,-0.415 0.472,-0.623 0.907,-0.623 0.132,0 0.302,0.057 0.416,0.132"
           style="fill:#542988;fill-opacity:1;fill-rule:nonzero;stroke:none"
           id="path17689" />
      </g>
      <g
         id="g17691"
         transform="matrix(1.25,0,0,-1.25,417.94118,899.74869)">
        <path
           d="m 0,0 -1.72,0 0,8.694 C -1.758,8.335 -1.966,7.635 -2.136,7.239 L -5.16,0 -6.312,0 -9.545,7.447 c -0.151,0.34 -0.302,0.869 -0.359,1.266 l 0,-8.713 -1.701,0 0,11.964 1.909,0 3.535,-8.071 c 0.226,-0.51 0.453,-1.266 0.491,-1.587 l 0.019,0 c 0.037,0.302 0.283,1.134 0.472,1.587 l 3.346,8.071 1.833,0"
           style="fill:#542988;fill-opacity:1;fill-rule:nonzero;stroke:none"
           id="path17693" />
      </g>
      <g
         id="g17695"
         transform="matrix(1.25,0,0,-1.25,431.99618,899.39369)">
        <path
           d="m 0,0 c -0.283,-0.208 -0.718,-0.378 -1.304,-0.378 -0.699,0 -1.323,0.34 -1.474,1.002 -0.492,-0.7 -1.493,-1.078 -2.495,-1.078 -1.248,0 -2.211,0.397 -2.74,1.021 -0.454,0.529 -0.681,1.285 -0.681,2.419 l 0,5.897 1.853,0 0,-5.613 c 0,-0.832 0.056,-1.324 0.415,-1.739 0.303,-0.359 0.794,-0.548 1.455,-0.548 0.681,0 1.267,0.245 1.569,0.623 0.378,0.454 0.491,1.058 0.491,1.985 l 0,5.292 1.853,0 0,-7.352 c 0,-0.435 0.151,-0.624 0.472,-0.624 0.208,0 0.511,0.113 0.662,0.226"
           style="fill:#542988;fill-opacity:1;fill-rule:nonzero;stroke:none"
           id="path17697" />
      </g>
      <g
         id="g17699"
         transform="matrix(1.25,0,0,-1.25,444.18493,899.39369)">
        <path
           d="m 0,0 c -0.283,-0.208 -0.718,-0.378 -1.304,-0.378 -0.7,0 -1.285,0.302 -1.456,0.907 -0.453,-0.605 -1.436,-0.983 -2.4,-0.983 -1.928,0 -3.269,1.078 -3.269,3.062 0,2.079 1.417,3.156 3.648,3.156 0.698,0 1.474,-0.17 1.87,-0.302 l 0,0.265 c 0,0.699 -0.094,1.096 -0.396,1.454 -0.322,0.379 -0.889,0.586 -1.721,0.586 -0.831,0 -1.662,-0.207 -2.532,-0.68 l 0,1.342 c 0.831,0.416 1.739,0.624 2.797,0.624 1.304,0 2.363,-0.341 2.986,-0.983 0.492,-0.53 0.719,-1.228 0.719,-2.249 l 0,-4.309 c 0,-0.435 0.132,-0.605 0.453,-0.605 0.208,0 0.529,0.113 0.681,0.226 L 0,0 Z m -2.911,4.233 c -0.321,0.114 -1.058,0.246 -1.625,0.246 -1.455,0 -2.041,-0.756 -2.041,-1.795 0,-1.191 0.699,-1.872 1.739,-1.872 0.604,0 1.134,0.208 1.474,0.568 0.321,0.359 0.453,0.831 0.453,1.492"
           style="fill:#542988;fill-opacity:1;fill-rule:nonzero;stroke:none"
           id="path17701" />
      </g>
      <g
         id="g17703"
         transform="matrix(1.25,0,0,-1.25,462.98993,899.74869)">
        <path
           d="m 0,0 -1.852,0 0,5.613 c 0,0.832 -0.057,1.323 -0.416,1.739 C -2.571,7.692 -3.024,7.9 -3.667,7.9 -4.347,7.9 -4.858,7.654 -5.179,7.276 -5.557,6.823 -5.67,6.218 -5.67,5.292 l 0,-5.292 -1.852,0 0,5.613 c 0,0.832 -0.057,1.323 -0.416,1.739 -0.303,0.34 -0.756,0.548 -1.399,0.548 -0.68,0 -1.19,-0.246 -1.512,-0.624 -0.378,-0.453 -0.491,-1.058 -0.491,-1.984 l 0,-5.292 -1.852,0 0,7.806 -1.077,0 0,1.361 2.192,0 0.34,-1.078 c 0.529,0.794 1.531,1.247 2.703,1.247 1.228,0 2.343,-0.396 2.91,-1.36 0.605,0.964 1.701,1.36 2.779,1.36 1.228,0 2.135,-0.396 2.665,-1.02 C -0.227,7.787 0,7.031 0,5.897"
           style="fill:#542988;fill-opacity:1;fill-rule:nonzero;stroke:none"
           id="path17705" />
      </g>
      <g
         id="g17707"
         transform="matrix(1.25,0,0,-1.25,476.12368,899.39369)">
        <path
           d="m 0,0 c -0.283,-0.208 -0.718,-0.378 -1.304,-0.378 -0.699,0 -1.285,0.302 -1.455,0.907 -0.454,-0.605 -1.437,-0.983 -2.401,-0.983 -1.928,0 -3.269,1.078 -3.269,3.062 0,2.079 1.417,3.156 3.648,3.156 0.699,0 1.474,-0.17 1.87,-0.302 l 0,0.265 c 0,0.699 -0.094,1.096 -0.396,1.454 -0.322,0.379 -0.889,0.586 -1.72,0.586 -0.832,0 -1.663,-0.207 -2.533,-0.68 l 0,1.342 c 0.832,0.416 1.739,0.624 2.797,0.624 1.304,0 2.363,-0.341 2.986,-0.983 0.492,-0.53 0.719,-1.228 0.719,-2.249 l 0,-4.309 c 0,-0.435 0.132,-0.605 0.453,-0.605 0.208,0 0.529,0.113 0.681,0.226 L 0,0 Z m -2.911,4.233 c -0.321,0.114 -1.058,0.246 -1.625,0.246 -1.455,0 -2.041,-0.756 -2.041,-1.795 0,-1.191 0.699,-1.872 1.739,-1.872 0.604,0 1.134,0.208 1.474,0.568 0.321,0.359 0.453,0.831 0.453,1.492"
           style="fill:#542988;fill-opacity:1;fill-rule:nonzero;stroke:none"
           id="path17709" />
      </g>
      <g
         id="g17711"
         transform="matrix(1.25,0,0,-1.25,482.05118,899.39369)">
        <path
           d="m 0,0 c -0.283,-0.208 -0.737,-0.378 -1.323,-0.378 -0.567,0 -0.983,0.17 -1.247,0.472 -0.246,0.284 -0.341,0.718 -0.341,1.38 l 0,9.809 -1.077,0 0,1.361 2.93,0 0,-11.132 c 0,-0.435 0.132,-0.605 0.453,-0.605 0.208,0 0.53,0.113 0.681,0.226"
           style="fill:#542988;fill-opacity:1;fill-rule:nonzero;stroke:none"
           id="path17713" />
      </g>
      <g
         id="g17715"
         transform="matrix(1.25,0,0,-1.25,494.42993,899.39369)">
        <path
           d="m 0,0 c -0.283,-0.208 -0.718,-0.378 -1.304,-0.378 -0.7,0 -1.285,0.302 -1.455,0.907 -0.454,-0.605 -1.437,-0.983 -2.401,-0.983 -1.928,0 -3.269,1.078 -3.269,3.062 0,2.079 1.417,3.156 3.648,3.156 0.698,0 1.474,-0.17 1.87,-0.302 l 0,0.265 c 0,0.699 -0.094,1.096 -0.396,1.454 -0.322,0.379 -0.889,0.586 -1.721,0.586 -0.831,0 -1.662,-0.207 -2.532,-0.68 l 0,1.342 c 0.831,0.416 1.739,0.624 2.797,0.624 1.304,0 2.363,-0.341 2.986,-0.983 0.492,-0.53 0.719,-1.228 0.719,-2.249 l 0,-4.309 c 0,-0.435 0.132,-0.605 0.453,-0.605 0.208,0 0.529,0.113 0.681,0.226 L 0,0 Z m -2.911,4.233 c -0.321,0.114 -1.058,0.246 -1.625,0.246 -1.455,0 -2.041,-0.756 -2.041,-1.795 0,-1.191 0.699,-1.872 1.739,-1.872 0.604,0 1.134,0.208 1.474,0.568 0.321,0.359 0.453,0.831 0.453,1.492"
           style="fill:#542988;fill-opacity:1;fill-rule:nonzero;stroke:none"
           id="path17717" />
      </g>
      <g
         id="g17719"
         transform="matrix(1.25,0,0,-1.25,502.50868,899.37119)">
        <path
           d="m 0,0 c -0.435,-0.265 -1.096,-0.472 -1.834,-0.472 -0.869,0 -1.625,0.302 -2.003,0.775 -0.378,0.472 -0.51,1.039 -0.51,2.041 l 0,5.16 -1.399,0 0,1.36 1.399,0 0,2.344 1.833,0.548 0,-2.892 2.174,0 0,-1.36 -2.155,0 0,-5.047 c 0,-1.058 0.265,-1.568 1.153,-1.568 0.529,0 1.058,0.188 1.38,0.434"
           style="fill:#542988;fill-opacity:1;fill-rule:nonzero;stroke:none"
           id="path17721" />
      </g>
    </g>
  </g>
</svg>
