<?xml version="1.0" encoding="UTF-8" standalone="no"?>
<!-- Created with Inkscape (http://www.inkscape.org/) -->

<svg
   xmlns:dc="http://purl.org/dc/elements/1.1/"
   xmlns:cc="http://creativecommons.org/ns#"
   xmlns:rdf="http://www.w3.org/1999/02/22-rdf-syntax-ns#"
   xmlns:svg="http://www.w3.org/2000/svg"
   xmlns="http://www.w3.org/2000/svg"
   xmlns:sodipodi="http://sodipodi.sourceforge.net/DTD/sodipodi-0.dtd"
   xmlns:inkscape="http://www.inkscape.org/namespaces/inkscape"
   width="79.543839mm"
   height="10.540295mm"
   viewBox="0 0 79.543839 10.540295"
   version="1.1"
   id="svg1352"
   inkscape:version="0.92.2 (5c3e80d, 2017-08-06)"
   sodipodi:docname="Bank Bumi Arta.svg">
  <defs
     id="defs1346" />
  <sodipodi:namedview
     id="base"
     pagecolor="#ffffff"
     bordercolor="#666666"
     borderopacity="1.0"
     inkscape:pageopacity="0.0"
     inkscape:pageshadow="2"
     inkscape:zoom="1"
     inkscape:cx="150.31906"
     inkscape:cy="-162.74921"
     inkscape:document-units="mm"
     inkscape:current-layer="layer1"
     showgrid="false"
     fit-margin-top="0"
     fit-margin-left="0"
     fit-margin-right="0"
     fit-margin-bottom="0"
     inkscape:window-width="1600"
     inkscape:window-height="837"
     inkscape:window-x="-8"
     inkscape:window-y="-8"
     inkscape:window-maximized="1" />
  <metadata
     id="metadata1349">
    <rdf:RDF>
      <cc:Work
         rdf:about="">
        <dc:format>image/svg+xml</dc:format>
        <dc:type
           rdf:resource="http://purl.org/dc/dcmitype/StillImage" />
        <dc:title></dc:title>
      </cc:Work>
    </rdf:RDF>
  </metadata>
  <g
     inkscape:label="Layer 1"
     inkscape:groupmode="layer"
     id="layer1"
     transform="translate(62.828466,-143.56319)">
    <g
       id="g1973">
      <g
         style="fill:#234089;fill-opacity:1"
         transform="matrix(0.35277777,0,0,-0.35277777,-59.118164,148.83535)"
         id="g168">
        <path
           inkscape:connector-curvature="0"
           id="path170"
           style="fill:#234089;fill-opacity:1;fill-rule:nonzero;stroke:none"
           d="M 0,0 C 1.795,-0.822 6.205,-2.395 12.387,-0.123 18.718,2.205 21.871,3.397 25.9,2.799 25.816,3.111 25.715,3.417 25.602,3.717 21.46,3.916 18.255,3.439 14.268,1.727 7.613,-1.133 2.727,0.27 0.108,1.584 0.034,1.093 -0.003,0.589 -0.003,0.079 -0.003,0.053 0,0.026 0,0" />
      </g>
      <g
         style="fill:#234089;fill-opacity:1"
         transform="matrix(0.35277777,0,0,-0.35277777,-54.760473,150.01186)"
         id="g172">
        <path
           inkscape:connector-curvature="0"
           id="path174"
           style="fill:#234089;fill-opacity:1;fill-rule:nonzero;stroke:none"
           d="m 0,0 c 6.358,2.338 8.935,4.083 13.913,3.472 0,0.331 -0.019,0.662 -0.053,0.988 C 9.993,4.697 6.435,4.025 1.915,2.304 -5.487,-0.516 -9.925,1.02 -12.3,2.355 -12.237,1.733 -12.116,1.125 -11.943,0.533 -9.965,-0.475 -5.776,-2.124 0,0" />
      </g>
      <g
         style="fill:#234089;fill-opacity:1"
         transform="matrix(0.35277777,0,0,-0.35277777,-54.94339,147.97442)"
         id="g176">
        <path
           inkscape:connector-curvature="0"
           id="path178"
           style="fill:#234089;fill-opacity:1;fill-rule:nonzero;stroke:none"
           d="M 0,0 C 6.004,2.401 9.047,3.612 12.827,3.181 12.686,3.409 12.535,3.631 12.379,3.847 7.335,4.277 2.833,2.011 -1.49,0.709 -4.922,-0.325 -8.876,0.659 -11.067,1.542 -11.261,1.069 -11.42,0.582 -11.542,0.083 -9.55,-0.79 -5.332,-2.132 0,0" />
      </g>
      <g
         style="fill:#234089;fill-opacity:1"
         transform="matrix(0.35277777,0,0,-0.35277777,-54.760473,150.95032)"
         id="g180">
        <path
           inkscape:connector-curvature="0"
           id="path182"
           style="fill:#234089;fill-opacity:1;fill-rule:nonzero;stroke:none"
           d="M 0,0 C 6.221,2.286 8.817,4.007 13.589,3.507 13.654,3.764 13.71,4.022 13.758,4.286 10.243,4.484 5.346,3.212 2.208,2.044 -4.212,-0.344 -8.519,0.396 -11.579,2.12 -11.297,1.373 -11.041,0.972 -10.6,0.301 -8.314,-0.742 -4.662,-1.715 0,0" />
      </g>
      <g
         style="fill:#234089;fill-opacity:1"
         transform="matrix(0.35277777,0,0,-0.35277777,-53.935717,151.33961)"
         id="g184">
        <path
           inkscape:connector-curvature="0"
           id="path186"
           style="fill:#234089;fill-opacity:1;fill-rule:nonzero;stroke:none"
           d="m 0,0 c -4.026,-1.999 -8.734,-1.422 -11.985,0.152 2.401,-2.752 6.177,-4.528 10.426,-4.528 5.31,0 9.886,2.773 11.955,6.762 C 6.878,2.683 3.425,1.703 0,0" />
      </g>
      <g
         style="fill:#234089;fill-opacity:1"
         transform="matrix(0.35277777,0,0,-0.35277777,-54.538932,146.75523)"
         id="g188">
        <path
           inkscape:connector-curvature="0"
           id="path190"
           style="fill:#234089;fill-opacity:1;fill-rule:nonzero;stroke:none"
           d="M 0,0 C 3.667,2.071 6.548,3.048 9.022,2.704 6.685,4.587 3.572,5.738 0.151,5.738 -5.055,5.738 -9.55,3.075 -11.676,-0.787 -9.386,-1.832 -5.17,-2.923 0,0" />
      </g>
      <g
         style="fill:#234089;fill-opacity:1"
         transform="matrix(0.35277777,0,0,-0.35277777,-48.463851,146.65133)"
         id="g192">
        <path
           inkscape:connector-curvature="0"
           id="path194"
           style="fill:#234089;fill-opacity:1;fill-rule:nonzero;stroke:none"
           d="M 0,0 C 0.188,-0.259 0.364,-0.524 0.527,-0.792 1.941,-0.765 3.889,-1.032 4.916,-1.257 4.721,-0.904 4.505,-0.554 4.271,-0.212 3.621,-0.059 2.328,0.117 0,0" />
      </g>
      <g
         style="fill:#234089;fill-opacity:1"
         transform="matrix(0.35277777,0,0,-0.35277777,-47.907485,149.95086)"
         id="g196">
        <path
           inkscape:connector-curvature="0"
           id="path198"
           style="fill:#234089;fill-opacity:1;fill-rule:nonzero;stroke:none"
           d="m 0,0 c 0.965,-0.093 2.832,-0.296 3.904,-0.577 0.117,0.29 0.219,0.585 0.31,0.883 C 3.533,0.444 2.396,0.615 0.235,0.807 0.169,0.534 0.089,0.266 0,0" />
      </g>
      <g
         style="fill:#234089;fill-opacity:1"
         transform="matrix(0.35277777,0,0,-0.35277777,-47.860955,147.86126)"
         id="g200">
        <path
           inkscape:connector-curvature="0"
           id="path202"
           style="fill:#234089;fill-opacity:1;fill-rule:nonzero;stroke:none"
           d="M 0,0 C 0.828,0 2.919,-0.053 4.265,-0.572 4.182,-0.211 4.078,0.145 3.954,0.498 2.646,0.798 0.842,0.859 -0.297,0.861 -0.186,0.578 -0.086,0.291 0,0" />
      </g>
      <g
         style="fill:#234089;fill-opacity:1"
         transform="matrix(0.35277777,0,0,-0.35277777,-47.722139,148.83365)"
         id="g204">
        <path
           inkscape:connector-curvature="0"
           id="path206"
           style="fill:#234089;fill-opacity:1;fill-rule:nonzero;stroke:none"
           d="M 0,0 C 0,-0.07 -0.003,-0.141 -0.003,-0.211 0.77,-0.261 2.812,-0.42 4.091,-0.763 4.112,-0.51 4.121,-0.255 4.121,0 V 0.008 C 3.295,0.307 1.952,0.623 -0.019,0.616 -0.007,0.412 0,0.207 0,0" />
      </g>
      <g
         style="fill:#234089;fill-opacity:1"
         transform="matrix(0.35277777,0,0,-0.35277777,-48.250277,150.69071)"
         id="g208">
        <path
           inkscape:connector-curvature="0"
           id="path210"
           style="fill:#234089;fill-opacity:1;fill-rule:nonzero;stroke:none"
           d="m 0,0 c -2.923,-4.914 -9.814,-8.365 -17.852,-8.365 -10.687,0 -19.351,6.101 -19.351,13.629 0,7.528 8.664,13.632 19.351,13.632 6.276,0 11.854,-2.107 15.389,-5.37 l 4.282,-0.111 c -4.189,4.087 -11.432,6.789 -19.671,6.789 -12.963,0 -23.472,-6.689 -23.472,-14.94 0,-8.251 10.509,-14.938 23.472,-14.938 9.716,0 18.053,3.758 21.62,9.115 C 2.7,-0.339 1.352,-0.107 0,0" />
      </g>
      <g
         style="fill:#234089;fill-opacity:1"
         transform="matrix(0.35277777,0,0,-0.35277777,14.139739,149.58331)"
         id="g212">
        <path
           inkscape:connector-curvature="0"
           id="path214"
           style="fill:#234089;fill-opacity:1;fill-rule:nonzero;stroke:none"
           d="M 0,0 H 3.107 L 2.592,4.899 H 2.554 Z M 1.487,8.539 H 5.07 L 7.301,-5.07 H 3.736 L 3.414,-2.631 H -1.372 L -2.744,-5.07 H -6.463 Z M -2.781,5.49 H -6.782 L -9.015,-5.07 h -3.545 l 2.23,10.56 h -4.003 l 0.611,3.049 H -2.171 Z M -23.938,2.517 h 2.82 c 1.278,0 2.383,0.399 2.383,1.867 0,1.163 -0.971,1.411 -1.905,1.411 h -2.613 z m -2.288,6.022 h 6.673 c 2.477,0 4.363,-0.628 4.363,-3.526 0,-2.038 -0.97,-3.489 -3.107,-3.792 V 1.183 c 1.011,-0.25 1.392,-0.954 1.392,-2.27 0,-0.99 -0.056,-1.753 -0.056,-2.533 0,-0.479 0,-1.068 0.208,-1.45 h -3.563 c -0.058,0.266 -0.116,0.514 -0.116,0.781 0,0.706 0.096,1.43 0.096,2.345 0,1.199 -0.514,1.828 -1.771,1.828 h -2.365 l -1.029,-4.954 h -3.547 z M -37.188,0 h 3.108 l -0.514,4.899 h -0.036 z m 1.491,8.539 h 3.583 l 2.23,-13.609 h -3.565 l -0.324,2.439 h -4.786 l -1.372,-2.439 h -3.717 z m -15.801,0 h 3.543 L -50.794,-5.07 h -3.545 z m -17.631,0 h 4.879 l 0.647,-9.702 h 0.039 l 4.689,9.702 h 4.88 L -56.834,-5.07 h -3.355 l 2.553,10.807 h -0.036 L -63.048,-5.07 h -2.724 l -0.803,10.807 h -0.038 L -68.635,-5.07 h -3.353 z m -3.928,-7.776 c -0.762,-3.659 -1.867,-6.119 -6.785,-6.119 -3.545,0 -5.509,1.773 -5.509,3.927 0,1.143 0.193,1.965 0.381,2.859 l 1.544,7.109 h 3.547 l -1.583,-7.28 c -0.133,-0.65 -0.345,-1.354 -0.345,-2.077 0,-1.011 0.764,-1.621 2.04,-1.621 2.442,0 2.823,1.811 3.316,3.963 l 1.469,7.015 h 3.546 z m -21.576,2.421 h 2.518 c 1.429,0 2.134,0.458 2.134,1.505 0,0.99 -1.028,1.069 -1.79,1.069 h -2.326 z m -1.142,-5.471 h 2.782 c 1.239,0 2.421,0.267 2.421,1.733 0,1.259 -1.144,1.354 -2.056,1.354 h -2.499 z m -1.259,10.826 h 6.348 c 3.679,0 4.251,-1.485 4.251,-2.972 0,-1.793 -0.953,-3.013 -2.516,-3.356 V 2.174 c 1.201,-0.286 1.926,-1.448 1.926,-2.67 0,-2.765 -2.211,-4.555 -6.198,-4.574 h -6.652 z m -20.089,0 h 3.546 l -1.125,-5.337 h 0.04 l 5.545,5.337 h 4.688 l -6.499,-5.604 4.041,-8.005 h -4.041 l -2.802,5.718 -1.847,-1.582 -0.879,-4.136 h -3.545 z m -14.314,0 h 3.639 l 3.185,-8.9 h 0.037 l 1.697,8.9 h 3.431 l -2.841,-13.609 h -3.638 l -3.147,8.901 h -0.038 l -1.736,-8.901 h -3.429 z M -142.396,0 h 3.107 l -0.515,4.899 h -0.039 z m 1.487,8.539 h 3.582 l 2.231,-13.609 h -3.563 l -0.325,2.439 h -4.784 l -1.374,-2.439 h -3.714 z m -15.153,-5.355 h 2.515 c 1.43,0 2.135,0.458 2.135,1.505 0,0.99 -1.028,1.069 -1.792,1.069 h -2.324 z m -1.145,-5.471 h 2.783 c 1.238,0 2.422,0.267 2.422,1.733 0,1.259 -1.144,1.354 -2.06,1.354 h -2.496 z m -1.257,10.826 h 6.347 c 3.68,0 4.253,-1.485 4.253,-2.972 0,-1.793 -0.954,-3.013 -2.518,-3.356 V 2.174 c 1.2,-0.286 1.925,-1.448 1.925,-2.67 0,-2.765 -2.213,-4.555 -6.194,-4.574 h -6.654 z" />
      </g>
    </g>
  </g>
</svg>
