<?xml version="1.0" encoding="UTF-8" standalone="no"?>
<!-- Created with Inkscape (http://www.inkscape.org/) -->

<svg
   xmlns:dc="http://purl.org/dc/elements/1.1/"
   xmlns:cc="http://creativecommons.org/ns#"
   xmlns:rdf="http://www.w3.org/1999/02/22-rdf-syntax-ns#"
   xmlns:svg="http://www.w3.org/2000/svg"
   xmlns="http://www.w3.org/2000/svg"
   xmlns:sodipodi="http://sodipodi.sourceforge.net/DTD/sodipodi-0.dtd"
   xmlns:inkscape="http://www.inkscape.org/namespaces/inkscape"
   width="34.393471mm"
   height="7.9999652mm"
   viewBox="0 0 34.393471 7.9999652"
   version="1.1"
   id="svg1033"
   inkscape:version="0.92.4 (5da689c313, 2019-01-14)"
   sodipodi:docname="Bank Jatim logo.svg">
  <defs
     id="defs1027">
    <clipPath
       clipPathUnits="userSpaceOnUse"
       id="clipPath923">
      <path
         d="M 0,0 H 586.772 V 836.22 H 0 Z"
         id="path921"
         inkscape:connector-curvature="0" />
    </clipPath>
  </defs>
  <sodipodi:namedview
     id="base"
     pagecolor="#ffffff"
     bordercolor="#666666"
     borderopacity="1.0"
     inkscape:pageopacity="0.0"
     inkscape:pageshadow="2"
     inkscape:zoom="1"
     inkscape:cx="60.182531"
     inkscape:cy="-9.4876628"
     inkscape:document-units="mm"
     inkscape:current-layer="layer1"
     showgrid="false"
     fit-margin-top="0"
     fit-margin-left="0"
     fit-margin-right="0"
     fit-margin-bottom="0"
     inkscape:window-width="1920"
     inkscape:window-height="1001"
     inkscape:window-x="-9"
     inkscape:window-y="-9"
     inkscape:window-maximized="1" />
  <metadata
     id="metadata1030">
    <rdf:RDF>
      <cc:Work
         rdf:about="">
        <dc:format>image/svg+xml</dc:format>
        <dc:type
           rdf:resource="http://purl.org/dc/dcmitype/StillImage" />
        <dc:title></dc:title>
      </cc:Work>
    </rdf:RDF>
  </metadata>
  <g
     inkscape:label="Layer 1"
     inkscape:groupmode="layer"
     id="layer1"
     transform="translate(159.31578,-4.2262048)">
    <g
       transform="matrix(0.35277777,0,0,-0.35277777,-312.35519,282.74563)"
       id="g917">
      <g
         id="g919"
         clip-path="url(#clipPath923)">
        <g
           id="g925"
           transform="translate(525.9111,789.5039)">
          <path
             d="M 0,0 C -8.641,-7.559 -7.732,-17.244 -26.182,-20.547 -12.794,-18.439 -0.745,-12.369 0,0"
             style="fill:#ed1c24;fill-opacity:1;fill-rule:nonzero;stroke:none"
             id="path927"
             inkscape:connector-curvature="0" />
        </g>
        <g
           id="g929"
           transform="translate(530.7663,785.1884)">
          <path
             d="M 0,0 C -12.667,-6.001 -14.998,-15.741 -36.328,-16.428 -17.527,-17.522 -3.98,-9.013 0,0"
             style="fill:#cf181f;fill-opacity:1;fill-rule:nonzero;stroke:none"
             id="path931"
             inkscape:connector-curvature="0" />
        </g>
        <g
           id="g933"
           transform="translate(531.3058,779.7938)">
          <path
             d="M 0,0 C -15.453,-3.675 -18.697,-11.648 -40.438,-10.749 -23.005,-13.847 -3.605,-6.451 0,0"
             style="fill:#b01419;fill-opacity:1;fill-rule:nonzero;stroke:none"
             id="path935"
             inkscape:connector-curvature="0" />
        </g>
        <g
           id="g937"
           transform="translate(528.6178,774.9214)">
          <path
             d="M 0,0 C -14.804,-0.827 -22.291,-8.481 -42.643,-5.001 -25.709,-10.399 -11.118,-5.766 0,0"
             style="fill:#920f14;fill-opacity:1;fill-rule:nonzero;stroke:none"
             id="path939"
             inkscape:connector-curvature="0" />
        </g>
        <g
           id="g941"
           transform="translate(525.3718,771.7021)">
          <path
             d="M 0,0 C -15.274,1.269 -22.657,-6.146 -42.769,-0.885 -26.284,-7.527 -11.515,-4.923 0,0"
             style="fill:#730b0e;fill-opacity:1;fill-rule:nonzero;stroke:none"
             id="path943"
             inkscape:connector-curvature="0" />
        </g>
        <g
           id="g945"
           transform="translate(433.8825,775.1224)">
          <path
             d="m 0,0 c 0,-0.254 -0.003,-0.511 -0.009,-0.774 -0.009,-0.263 -0.017,-0.517 -0.026,-0.76 -0.012,-0.242 -0.023,-0.461 -0.035,-0.657 h 1.314 l 0.088,1.385 h 0.035 c 0.327,-0.549 0.73,-0.95 1.212,-1.204 0.482,-0.251 1.029,-0.377 1.645,-0.374 0.383,0 0.757,0.062 1.125,0.182 0.368,0.119 0.715,0.3 1.037,0.543 0.324,0.242 0.61,0.543 0.859,0.908 C 7.493,-0.388 7.689,0.035 7.829,0.52 7.972,1.005 8.042,1.548 8.045,2.156 8.042,2.799 7.954,3.383 7.782,3.909 7.61,4.437 7.361,4.89 7.043,5.273 6.725,5.653 6.348,5.948 5.91,6.155 5.468,6.359 4.984,6.465 4.452,6.468 3.996,6.468 3.584,6.403 3.216,6.278 2.848,6.152 2.524,5.977 2.246,5.746 1.972,5.515 1.741,5.244 1.56,4.925 H 1.525 v 5.328 H 0 Z m 1.525,2.717 c 0,0.122 0.009,0.236 0.023,0.344 C 1.566,3.167 1.586,3.269 1.613,3.365 1.721,3.754 1.893,4.087 2.127,4.37 2.36,4.654 2.635,4.87 2.95,5.024 3.263,5.179 3.596,5.255 3.944,5.258 4.361,5.255 4.726,5.171 5.045,5.004 5.36,4.838 5.626,4.61 5.839,4.318 6.053,4.028 6.213,3.692 6.321,3.313 6.43,2.936 6.485,2.533 6.485,2.103 6.485,1.452 6.383,0.879 6.178,0.394 5.977,-0.093 5.685,-0.473 5.302,-0.745 4.919,-1.014 4.455,-1.154 3.909,-1.157 3.532,-1.154 3.187,-1.078 2.872,-0.926 2.559,-0.774 2.29,-0.564 2.071,-0.295 1.849,-0.023 1.691,0.289 1.595,0.649 1.569,0.736 1.551,0.827 1.539,0.923 1.531,1.017 1.525,1.113 1.525,1.209 Z m 14.036,0.298 c 0.003,0.426 -0.044,0.841 -0.141,1.25 -0.096,0.406 -0.263,0.777 -0.499,1.107 -0.237,0.33 -0.567,0.596 -0.987,0.792 -0.421,0.198 -0.953,0.298 -1.598,0.304 -0.36,0 -0.707,-0.033 -1.046,-0.094 C 10.951,6.313 10.63,6.228 10.332,6.117 10.034,6.006 9.768,5.878 9.531,5.732 L 9.882,4.697 c 0.201,0.135 0.42,0.249 0.663,0.342 0.242,0.097 0.494,0.167 0.759,0.216 0.266,0.05 0.535,0.073 0.804,0.073 0.344,0 0.634,-0.041 0.867,-0.128 0.231,-0.088 0.421,-0.205 0.561,-0.351 0.143,-0.146 0.249,-0.306 0.322,-0.482 0.073,-0.172 0.119,-0.344 0.146,-0.517 0.023,-0.172 0.035,-0.327 0.032,-0.467 V 3.208 C 12.94,3.213 12.014,3.094 11.258,2.854 10.498,2.612 9.923,2.255 9.528,1.785 9.137,1.315 8.938,0.736 8.935,0.053 c 0,-0.31 0.056,-0.611 0.164,-0.9 0.108,-0.286 0.272,-0.546 0.491,-0.777 0.216,-0.234 0.485,-0.415 0.809,-0.552 0.324,-0.135 0.701,-0.205 1.13,-0.208 0.403,0.003 0.772,0.065 1.105,0.178 0.333,0.117 0.625,0.272 0.876,0.462 0.251,0.19 0.456,0.397 0.613,0.622 h 0.053 l 0.123,-1.069 h 1.384 c -0.044,0.292 -0.076,0.611 -0.093,0.958 -0.021,0.345 -0.029,0.704 -0.029,1.075 z m -1.49,-2.349 c 0,-0.07 -0.006,-0.149 -0.015,-0.231 -0.012,-0.084 -0.029,-0.172 -0.055,-0.26 -0.082,-0.242 -0.216,-0.473 -0.401,-0.686 -0.184,-0.216 -0.417,-0.392 -0.701,-0.526 -0.28,-0.134 -0.61,-0.205 -0.984,-0.207 -0.26,0 -0.5,0.052 -0.716,0.154 -0.216,0.106 -0.388,0.266 -0.52,0.485 -0.131,0.217 -0.198,0.494 -0.201,0.833 0.003,0.327 0.073,0.608 0.213,0.835 0.137,0.228 0.327,0.415 0.567,0.558 0.239,0.146 0.514,0.257 0.821,0.336 0.306,0.076 0.631,0.129 0.972,0.155 0.342,0.026 0.681,0.035 1.02,0.026 z m 3.607,-2.857 H 19.22 V 2.91 c 0,0.134 0.009,0.262 0.027,0.385 0.017,0.126 0.043,0.237 0.078,0.333 0.097,0.289 0.243,0.555 0.439,0.792 0.198,0.236 0.435,0.426 0.712,0.567 0.278,0.143 0.582,0.216 0.918,0.219 0.362,-0.003 0.669,-0.068 0.92,-0.199 0.251,-0.131 0.453,-0.313 0.607,-0.54 0.152,-0.231 0.263,-0.497 0.333,-0.798 0.071,-0.304 0.106,-0.625 0.103,-0.97 v -4.89 h 1.542 V 2.857 C 24.896,3.438 24.829,3.935 24.7,4.35 24.572,4.764 24.4,5.109 24.183,5.384 23.967,5.658 23.728,5.878 23.465,6.035 23.202,6.193 22.936,6.304 22.664,6.371 22.396,6.438 22.141,6.47 21.902,6.468 21.435,6.462 21.014,6.386 20.646,6.234 20.275,6.082 19.959,5.889 19.699,5.65 19.439,5.41 19.238,5.159 19.098,4.89 H 19.063 L 18.975,6.292 H 17.608 C 17.634,5.945 17.652,5.588 17.663,5.217 17.672,4.846 17.678,4.44 17.678,3.996 Z M 28.559,10.253 H 27.034 V -2.191 h 1.525 v 3.19 l 0.788,0.876 2.91,-4.066 h 1.893 l -3.733,4.995 3.26,3.488 H 31.836 L 29.33,3.365 C 29.204,3.213 29.079,3.053 28.947,2.883 28.819,2.714 28.702,2.553 28.594,2.401 h -0.035 z"
             style="fill:#cf181f;fill-opacity:1;fill-rule:nonzero;stroke:none"
             id="path947"
             inkscape:connector-curvature="0" />
        </g>
        <g
           id="g949"
           transform="translate(468.2427,769.1983)">
          <path
             d="m 0,0 c 0.359,0 0.724,0.035 1.09,0.102 0.365,0.07 0.712,0.178 1.04,0.327 0.33,0.147 0.619,0.336 0.867,0.57 0.257,0.254 0.468,0.552 0.634,0.894 0.167,0.342 0.289,0.739 0.368,1.192 0.079,0.453 0.12,0.973 0.12,1.56 v 7.624 H 1.963 V 5.258 C 1.963,4.797 1.954,4.402 1.931,4.072 1.91,3.745 1.878,3.467 1.835,3.246 1.791,3.021 1.732,2.834 1.659,2.682 1.589,2.533 1.501,2.404 1.402,2.296 1.227,2.112 1.002,1.972 0.727,1.87 0.456,1.77 0.143,1.709 -0.21,1.683 Z M 3.067,15.827 C 2.822,15.824 2.606,15.772 2.422,15.672 2.238,15.57 2.097,15.43 1.995,15.255 1.893,15.077 1.843,14.878 1.84,14.653 c 0,-0.213 0.05,-0.406 0.146,-0.581 0.097,-0.173 0.231,-0.313 0.409,-0.415 0.179,-0.105 0.392,-0.158 0.637,-0.161 0.257,0.003 0.479,0.056 0.66,0.161 0.184,0.102 0.325,0.242 0.421,0.415 0.096,0.175 0.146,0.368 0.146,0.581 -0.006,0.225 -0.058,0.424 -0.158,0.602 -0.096,0.175 -0.233,0.315 -0.409,0.417 -0.175,0.1 -0.385,0.152 -0.625,0.155 M 13.04,8.851 c 0.003,0.474 -0.052,0.926 -0.166,1.356 -0.114,0.429 -0.304,0.815 -0.57,1.154 -0.266,0.339 -0.628,0.604 -1.084,0.8 -0.455,0.196 -1.022,0.298 -1.703,0.301 C 9.068,12.459 8.647,12.424 8.258,12.351 7.87,12.281 7.522,12.19 7.212,12.076 6.906,11.962 6.646,11.84 6.433,11.708 l 0.42,-1.402 c 0.196,0.123 0.418,0.234 0.666,0.327 0.249,0.094 0.512,0.17 0.789,0.222 0.278,0.053 0.558,0.082 0.841,0.082 0.374,-0.003 0.678,-0.055 0.909,-0.155 0.231,-0.099 0.406,-0.225 0.526,-0.379 0.119,-0.155 0.198,-0.316 0.242,-0.485 0.041,-0.17 0.061,-0.328 0.059,-0.471 V 9.307 C 9.83,9.313 8.924,9.196 8.168,8.954 7.414,8.714 6.836,8.352 6.433,7.873 6.027,7.394 5.822,6.795 5.819,6.082 5.819,5.755 5.88,5.439 5.997,5.138 6.114,4.835 6.286,4.566 6.517,4.326 6.745,4.084 7.026,3.894 7.359,3.757 7.689,3.616 8.071,3.543 8.501,3.541 c 0.374,0.002 0.721,0.049 1.04,0.146 0.318,0.099 0.602,0.23 0.853,0.403 0.251,0.169 0.461,0.365 0.631,0.59 h 0.052 l 0.158,-0.947 h 1.946 C 13.128,4.002 13.093,4.312 13.073,4.668 13.049,5.022 13.04,5.396 13.04,5.784 Z m -2.103,-2.12 c 0,-0.079 0,-0.158 -0.006,-0.237 C 10.925,6.415 10.911,6.336 10.885,6.257 10.814,6.05 10.701,5.857 10.546,5.679 10.391,5.504 10.198,5.36 9.967,5.252 9.739,5.141 9.477,5.086 9.184,5.083 8.954,5.083 8.746,5.127 8.562,5.214 8.378,5.302 8.232,5.436 8.124,5.617 8.016,5.799 7.96,6.029 7.957,6.31 7.96,6.631 8.045,6.9 8.209,7.11 8.372,7.318 8.594,7.484 8.875,7.601 9.155,7.718 9.474,7.8 9.827,7.846 c 0.356,0.044 0.725,0.065 1.11,0.059 z m 4.627,7.133 v -1.595 h -1.209 v -1.612 h 1.209 V 6.643 c 0,-0.561 0.053,-1.04 0.164,-1.437 0.111,-0.398 0.283,-0.719 0.52,-0.964 C 16.452,4.02 16.709,3.85 17.025,3.727 17.34,3.605 17.7,3.543 18.106,3.541 c 0.336,0.002 0.64,0.023 0.911,0.067 0.272,0.043 0.488,0.096 0.649,0.16 l -0.035,1.63 C 19.511,5.363 19.388,5.34 19.263,5.328 19.134,5.317 18.976,5.311 18.789,5.311 c -0.271,0 -0.49,0.058 -0.651,0.175 -0.164,0.117 -0.281,0.292 -0.351,0.526 -0.07,0.234 -0.105,0.526 -0.102,0.876 v 3.769 h 2.051 v 1.612 h -2.051 v 2.191 z m 7.958,-1.595 H 21.366 V 3.733 h 2.156 z m -1.069,3.558 C 22.21,15.824 22,15.772 21.819,15.672 21.641,15.57 21.497,15.43 21.398,15.255 c -0.102,-0.178 -0.152,-0.377 -0.155,-0.602 0.003,-0.213 0.053,-0.406 0.149,-0.581 0.099,-0.173 0.237,-0.313 0.415,-0.415 0.178,-0.105 0.389,-0.158 0.628,-0.161 0.251,0.003 0.47,0.056 0.654,0.161 0.182,0.102 0.322,0.242 0.421,0.415 0.099,0.175 0.152,0.368 0.152,0.581 -0.006,0.225 -0.058,0.424 -0.158,0.602 -0.099,0.175 -0.236,0.315 -0.415,0.417 -0.178,0.1 -0.391,0.152 -0.636,0.155 m 3.4,-12.094 h 2.103 v 5.048 c 0,0.123 0.009,0.246 0.026,0.365 0.018,0.123 0.044,0.24 0.079,0.354 0.07,0.199 0.179,0.388 0.319,0.57 0.143,0.184 0.318,0.335 0.526,0.455 0.207,0.12 0.447,0.181 0.715,0.184 0.333,-0.003 0.608,-0.09 0.827,-0.263 0.216,-0.169 0.38,-0.409 0.485,-0.712 0.108,-0.304 0.161,-0.658 0.161,-1.058 V 3.733 h 2.103 v 5.118 c 0,0.126 0.009,0.252 0.026,0.38 0.018,0.126 0.044,0.24 0.079,0.339 0.076,0.207 0.187,0.397 0.327,0.57 0.143,0.169 0.316,0.306 0.514,0.411 0.199,0.103 0.421,0.155 0.667,0.158 0.344,0 0.63,-0.09 0.855,-0.271 0.225,-0.179 0.395,-0.436 0.506,-0.772 0.108,-0.336 0.163,-0.742 0.163,-1.218 V 3.733 h 2.104 v 5.031 c -0.003,0.68 -0.085,1.259 -0.246,1.732 -0.16,0.473 -0.377,0.853 -0.648,1.142 -0.272,0.289 -0.576,0.5 -0.909,0.631 -0.336,0.132 -0.683,0.196 -1.037,0.193 -0.356,0 -0.678,-0.044 -0.961,-0.129 -0.286,-0.087 -0.549,-0.213 -0.792,-0.379 -0.192,-0.123 -0.376,-0.272 -0.549,-0.45 -0.175,-0.175 -0.336,-0.383 -0.485,-0.619 h -0.035 c -0.122,0.318 -0.301,0.593 -0.528,0.829 -0.225,0.237 -0.497,0.418 -0.807,0.549 -0.312,0.132 -0.654,0.196 -1.031,0.199 -0.362,-0.003 -0.686,-0.047 -0.967,-0.134 -0.283,-0.085 -0.532,-0.202 -0.742,-0.342 -0.21,-0.143 -0.394,-0.301 -0.543,-0.47 -0.152,-0.17 -0.278,-0.339 -0.377,-0.509 h -0.053 l -0.105,1.262 h -1.84 c 0.017,-0.365 0.035,-0.759 0.049,-1.177 0.012,-0.421 0.021,-0.873 0.021,-1.364 z"
             style="fill:#231f20;fill-opacity:1;fill-rule:nonzero;stroke:none"
             id="path951"
             inkscape:connector-curvature="0" />
        </g>
      </g>
    </g>
  </g>
</svg>
