<?xml version="1.0" encoding="utf-8"?>
<!-- Generator: Adobe Illustrator 24.0.0, SVG Export Plug-In . SVG Version: 6.00 Build 0)  -->
<svg version="1.1"
	 id="svg13858" xmlns:cc="http://creativecommons.org/ns#" xmlns:dc="http://purl.org/dc/elements/1.1/" xmlns:rdf="http://www.w3.org/1999/02/22-rdf-syntax-ns#" xmlns:svg="http://www.w3.org/2000/svg"
	 xmlns="http://www.w3.org/2000/svg" xmlns:xlink="http://www.w3.org/1999/xlink" x="0px" y="0px" viewBox="0 0 270.4 43.3"
	 style="enable-background:new 0 0 270.4 43.3;" xml:space="preserve">
<style type="text/css">
	.st0{fill:#009F3C;}
	.st1{fill:#2B3078;}
	.st2{fill:#FFFFFF;}
</style>
<g id="layer1" transform="translate(-310.71327,-1127.8731)">
	<g id="g13890" transform="matrix(1.25,0,0,-1.25,278.93786,1199.739)">
		<g>
			<g id="g13892">
				<g id="g13898" transform="translate(135.8119,40.6101)">
					<path id="path13900" class="st0" d="M0,0c-0.9,2.6-1.8,5.1-2.6,7.7l-2-2.5V0c0-1.3-0.7-2.1-2.3-2.1h-0.9c0,6.1,0,12.1,0,18.2
						h0.7c0.3,0,0.6,0,0.9-0.1c1.1-0.2,1.6-1,1.6-2v0V8.3l5.7,6.8c0.8,0.9,1.3,0.9,2.5,0.9H4c-1.5-1.9-3-3.8-4.5-5.7
						C1.1,6.2,2.6,2.1,4.1-2.1H3.6c-0.7,0-1.4,0-2.1,0.3C1.1-1.6,0.7-1.3,0.4-0.9C0.2-0.6,0.1-0.3,0,0"/>
				</g>
				<g id="g13902" transform="translate(151.8216,40.8657)">
					<path id="path13904" class="st0" d="M0,0c-0.8-1.7-2.7-2.4-4.7-2.4c-3.1,0-4.8,1.7-5.6,4c-0.5,1.6-0.7,3.5-0.4,5.3
						c0.4,2.8,2.1,5.7,5.6,5.7c5.1,0,5.6-3.9,5.8-7.4h-8.5c-0.1-2.1,0.3-6,3.5-6c0.8,0,1.5,0.1,1.9,0.4C-1.6,0.1-1,0.5,0,0
						 M-2.2,6.5c-0.1,0.9-0.2,1.6-0.3,2.2c-0.8,3.4-4.2,3-5,0c-0.2-0.6-0.3-1.3-0.3-2.2H-2.2z"/>
				</g>
				<g id="g13906" transform="translate(157.105,40.6828)">
					<path id="path13908" class="st0" d="M0,0c0.6-0.4,1.2-0.6,2-0.6c0.8,0,1.4,0.2,1.8,0.6c0.4,0.4,0.6,0.9,0.6,1.5
						c0,0.4-0.1,0.8-0.2,1.1S4,3.1,3.7,3.3C3.5,3.5,3.3,3.7,3,3.8C2.7,3.9,2.4,4.1,2.1,4.2C1.5,4.4,0.9,4.7,0.3,4.9
						c-0.5,0.3-1,0.6-1.4,0.9C-1.4,6.2-1.8,6.6-2,7c-0.2,0.4-0.3,1-0.3,1.6c0,0.7,0.1,1.3,0.4,1.8c0.2,0.5,0.6,1,1,1.3
						c0.4,0.4,1,0.6,1.6,0.8s1.3,0.3,2,0.3c0.9,0,1.7-0.1,2.5-0.4s1.3-0.8,1.7-1.6c-1-0.7-1.7-0.2-2.4,0c-0.1,0.1-0.2,0.1-0.4,0.2
						c-0.4,0.1-0.8,0.2-1.2,0.2c-0.3,0-0.7,0-1-0.1c-0.3-0.1-0.6-0.2-0.8-0.4c-0.2-0.2-0.4-0.4-0.6-0.6C0.4,9.8,0.3,9.5,0.3,9.2
						c0-0.6,0.2-1.1,0.5-1.4C1.2,7.5,1.7,7.2,2.2,7c0.5-0.2,1.1-0.4,1.7-0.6c0.6-0.2,1.2-0.5,1.7-0.8c0.5-0.3,1-0.8,1.4-1.3
						C7.4,3.8,7.6,3,7.6,2.1c0-0.7-0.1-1.3-0.4-1.8c-0.3-0.5-0.6-1-1.1-1.4c-0.5-0.4-1-0.7-1.7-0.9C3.8-2.1,3.1-2.2,2.4-2.2
						C1.1-2.2,0.1-2-0.8-1.6c-0.9,0.5-1.5,1.1-1.9,2.1C-2.4,0.7-1.8,1-1.1,0.8C-0.7,0.6-0.4,0.3,0,0"/>
				</g>
				<g id="g13910" transform="translate(188.8409,49.5322)">
					<path id="path13912" class="st0" d="M0,0c0,0.7-0.2,1.2-0.5,1.5c-0.4,0.3-0.9,0.4-1.7,0.4c-0.6,0-1.2-0.1-1.7-0.4
						s-0.9-0.6-1.2-0.9V-9v0c0-1-0.5-1.7-1.5-1.9C-6.9-11-7.1-11-7.5-11h-0.6V7.2h0.6c0.3,0,0.6,0,0.9-0.1c1-0.2,1.5-0.9,1.5-1.9v0
						V3.8V2.2c0.4,0.5,1,0.9,1.7,1.3C-2.5,3.8-1.6,4-0.6,4C0.6,4,1.5,3.7,2.1,3C2.7,2.4,3,1.5,3,0.2V-11H2.4c-0.3,0-0.6,0-0.9,0.1
						C0.5-10.8,0-10,0-9v0V0z"/>
				</g>
				<g id="g13914" transform="translate(201.7949,46.8036)">
					<path id="path13916" class="st0" d="M0,0c-0.3-0.2-0.7-0.3-1.2-0.4c-0.5-0.1-0.9-0.2-1.3-0.3C-3.4-1-4-1.4-4.4-1.9
						C-4.8-2.4-5-3.1-5-3.9c0-0.9,0.2-1.6,0.6-2s0.9-0.6,1.7-0.6c0.6,0,1.1,0.1,1.6,0.4C-0.6-5.9-0.3-5.5,0-5L0,0z M0.2-6.2
						c-0.3-0.6-0.9-1.1-1.5-1.5s-1.5-0.5-2.4-0.5c-1.4,0-2.5,0.4-3.2,1.1c-0.7,0.7-1,1.7-1,2.9c0,1.3,0.3,2.2,0.8,2.9
						s1.4,1.2,2.5,1.5c0.4,0.1,0.8,0.2,1.2,0.3s0.8,0.1,1.2,0.2C-1.7,0.7-1.3,0.8-1,0.9C-0.1,1.1,0,1.3,0,1.9c0,0.3,0,0.6,0,0.8
						c0,0.8-0.2,1.3-0.5,1.7c-0.3,0.4-1,0.6-2,0.6c-0.7,0-1.3-0.1-1.9-0.4c-1-0.6-1.5-1-2.8-0.4c0.5,0.9,1.2,1.5,2,1.9
						c0.9,0.4,1.8,0.6,2.8,0.6c0.7,0,1.4,0,2-0.2C0.4,6.4,1,6.2,1.5,6c0.5-0.3,0.8-0.7,1.1-1.2S3,3.6,3,2.7v-3.1v-5.4v0v-2.5
						c-0.1,0-0.5,0-0.8,0C0.7-8.3,0.3-7.5,0.2-6.2"/>
				</g>
				<g id="g13918" transform="translate(215.5496,39.4817)">
					<path id="path13920" class="st0" d="M0,0c-0.5-0.3-1-0.6-1.5-0.7C-2-0.9-2.6-1-3.5-1c-1.3,0-2.3,0.4-3.1,1.1
						c-0.7,0.7-1.1,1.8-1.1,3.1v9.3h-0.5c-0.8,0-1.3,0.2-1.3,1.5h1.8v3.2H-7c0.3,0,0.6,0,0.9-0.1c1-0.2,1.5-0.9,1.5-1.9v0V14h1.8
						c0.8,0,1.3-0.2,1.3-1.5h-3.1V3.2c0-0.8,0.2-1.4,0.5-1.9c0.4-0.5,0.9-0.7,1.7-0.7c0.3,0,0.5,0,0.7,0.1C-0.8,0.8-0.3,0.7,0,0"/>
				</g>
				<g id="g13922" transform="translate(237.9098,49.5322)">
					<path id="path13924" class="st0" d="M0,0c0,0.7-0.2,1.2-0.5,1.5c-0.4,0.3-0.9,0.4-1.7,0.4c-0.6,0-1.2-0.1-1.7-0.4
						c-0.5-0.3-0.9-0.6-1.2-0.9V-9v0c0-1-0.5-1.7-1.5-1.9C-6.9-11-7.1-11-7.5-11h-0.6V4h0.6c0.3,0,0.6,0,0.9-0.1
						c1-0.2,1.5-0.8,1.5-1.8l0,0c0.4,0.5,1,0.9,1.7,1.3C-2.5,3.8-1.6,4-0.6,4C0.6,4,1.5,3.7,2.1,3C2.7,2.4,3,1.5,3,0.2V-11H2.4
						c-0.3,0-0.6,0-0.9,0.1C0.5-10.8,0-10,0-9v0V0z"/>
				</g>
				<g id="g13926" transform="translate(177.5598,40.8657)">
					<path id="path13928" class="st0" d="M0,0c-0.8-1.7-2.7-2.4-4.7-2.4c-3.1,0-4.8,1.7-5.6,4c-0.5,1.6-0.7,3.5-0.4,5.3
						c0.4,2.8,2.1,5.7,5.6,5.7c5.1,0,5.6-3.9,5.8-7.4h-8.5c-0.1-2.1,0.3-6,3.5-6c0.8,0,1.5,0.1,1.9,0.4C-1.6,0.1-1,0.5,0,0
						 M-2.2,6.5c-0.1,0.9-0.2,1.6-0.3,2.2c-0.7,3.4-4.2,3-5,0c-0.2-0.6-0.3-1.3-0.3-2.2H-2.2z"/>
				</g>
				<g id="g13930" transform="translate(224.5699,46.8036)">
					<path id="path13932" class="st0" d="M0,0c-0.3-0.2-0.7-0.3-1.2-0.4c-0.5-0.1-0.9-0.2-1.3-0.3C-3.4-1-4-1.4-4.4-1.9
						C-4.8-2.4-5-3.1-5-3.9c0-0.9,0.2-1.6,0.6-2s0.9-0.6,1.7-0.6c0.6,0,1.1,0.1,1.6,0.4C-0.6-5.9-0.3-5.5,0-5L0,0z M0.2-6.2
						c-0.3-0.6-0.9-1.1-1.5-1.5s-1.5-0.5-2.4-0.5c-1.4,0-2.5,0.4-3.2,1.1c-0.7,0.7-1,1.7-1,2.9c0,1.3,0.3,2.2,0.8,2.9
						c0.5,0.7,1.4,1.2,2.5,1.5c0.4,0.1,0.8,0.2,1.2,0.3c0.4,0.1,0.8,0.1,1.2,0.2C-1.7,0.7-1.3,0.8-1,0.9C-0.1,1.1,0,1.3,0,1.9
						c0,0.3,0,0.6,0,0.8c0,0.8-0.2,1.3-0.5,1.7c-0.3,0.4-1,0.6-2,0.6c-0.7,0-1.3-0.1-1.9-0.4c-1-0.6-1.5-1-2.8-0.4
						c0.5,0.9,1.2,1.5,2,1.9c0.9,0.4,1.8,0.6,2.8,0.6c0.7,0,1.4,0,2-0.2C0.4,6.4,1,6.2,1.5,6c0.5-0.3,0.8-0.7,1.1-1.2S3,3.6,3,2.7
						v-3.1v-5.4v0v-2.5c-0.1,0-0.5,0-0.8,0C0.7-8.3,0.3-7.5,0.2-6.2"/>
				</g>
				<g id="g13934" transform="translate(81.3068,48.4684)">
					<path id="path13936" class="st1" d="M0,0c2,0.1,2.6,1.8,2.6,3.3c0,1.5-0.2,3.3-2.2,3.3h-2.7l0-6.5H0z M0-8.4
						c1,0,1.7,0.3,2.2,0.8C2.6-7,2.9-6.1,2.9-4.9c0,1.6-0.2,3.2-2.4,3.5h-2.9v-7C-2.3-8.4,0-8.4,0-8.4z M-5.5-10v2.9V8.2h6.2
						c3.5,0,5.1-2.3,4.8-5.2c-0.1-1.4-0.7-2.8-2-3.5c3.4-1,3.4-5.9,1.4-8.1C4-9.5,2.6-10,0.8-10H-5.5z"/>
				</g>
				<g id="g13938" transform="translate(90.823,56.6454)">
					<path id="path13940" class="st1" d="M0,0h0.4h2.1h3.7c0.9,0,1.7-0.1,2.4-0.3c0.7-0.2,1.2-0.5,1.6-0.9C10.5-1.5,10.8-2,11-2.6
						c0.2-0.6,0.3-1.3,0.3-2c0-1.2-0.1-2.3-0.3-3.1c-0.2-0.8-0.5-1.5-1-2c-0.4-0.5-1-0.9-1.8-1.1c-0.7-0.2-1.6-0.3-2.7-0.3H3.2v-5
						c0-1.3-0.7-2.1-2.3-2.1H0C0-12.1,0-6.1,0,0 M5.2-9.5c0.5,0,0.9,0.1,1.3,0.2c0.4,0.1,0.6,0.4,0.9,0.7c0.2,0.3,0.4,0.7,0.5,1.3
						C8-6.9,8-6.2,8-5.4C8-4.7,8-4,7.9-3.6C7.8-3.1,7.7-2.7,7.5-2.4C7.3-2.1,7.1-1.9,6.8-1.8C6.5-1.7,6.1-1.6,5.7-1.6H3.2v-7.9
						C3.2-9.5,5.2-9.5,5.2-9.5z"/>
				</g>
				<g id="g13942" transform="translate(105.4548,56.6519)">
					<path id="path13944" class="st1" d="M0,0h0.7C1,0,1.3,0,1.6-0.1c1.1-0.2,1.6-0.9,1.6-2v0v-11.5c0-3-1.8-4.5-5.3-4.5
						c-0.2,0-0.3,0-0.5,0c-1.2,0-2.2,0.3-3.1,0.8c-0.9,0.5-1.6,1.3-2,2.3c0.7,0.3,1.4,0.5,2.1,0c0.3-0.2,0.5-0.4,0.8-0.6
						c0.3-0.2,0.7-0.4,1.1-0.5c0.9-0.2,2.1-0.2,2.9,0.2c0.8,0.5,0.9,1.4,0.9,2.2V0z"/>
				</g>
				<g id="g13946" transform="translate(114.1735,40.8889)">
					<path id="path13948" class="st1" d="M0,0c0.6-0.4,1.3-0.6,2.2-0.6c0.4,0,0.8,0.1,1.2,0.2s0.7,0.3,1,0.6C4.6,0.4,4.9,0.7,5,1
						c0.2,0.3,0.2,0.7,0.2,1.2c0,0.4-0.1,0.7-0.2,1C5,3.5,4.8,3.7,4.6,4C4.4,4.2,4.2,4.4,3.9,4.6C3.6,4.8,3.3,5,3,5.2
						C2.2,5.6,1.5,6,0.9,6.4C0.3,6.8-0.3,7.3-0.7,7.7c-0.5,0.5-0.8,1-1.1,1.5c-0.3,0.6-0.4,1.2-0.4,2c0,0.7,0.1,1.3,0.3,1.8
						c0.2,0.5,0.6,1,1,1.4c0.5,0.4,1,0.7,1.7,0.9c0.7,0.2,1.4,0.3,2.2,0.3c1.1,0,2-0.2,2.8-0.7c0.8-0.5,1.3-1.1,1.6-1.9
						c-0.9-0.4-1.6-0.2-2.3,0.4c-0.5,0.3-1,0.5-1.7,0.5c-0.9,0-1.6-0.2-2.1-0.7c-0.5-0.4-0.8-1.1-0.8-1.9c0-0.7,0.2-1.2,0.6-1.7
						C1.6,9.4,2,9,2.6,8.6c0.6-0.4,1.2-0.7,1.9-1c0.7-0.3,1.3-0.7,1.9-1.1c0.6-0.4,1.1-1,1.4-1.6c0.4-0.6,0.6-1.4,0.6-2.3
						c0-0.7-0.1-1.4-0.4-2C7.7,0,7.3-0.5,6.8-1C6.3-1.4,5.6-1.8,4.9-2S3.3-2.4,2.4-2.4c-1.2,0-2.3,0.3-3.2,0.8
						c-0.9,0.5-1.6,1.3-2,2.3c0.7,0.3,1.4,0.5,2.1,0C-0.5,0.4-0.3,0.2,0,0"/>
				</g>
				<g id="g13950" transform="translate(146.647,25.672)">
					<path id="path13952" class="st1" d="M0,0v3.8C0,4,0,4.2,0,4.3c0,0.2-0.1,0.3-0.1,0.5C-0.2,5-0.3,5.1-0.4,5.2
						c-0.1,0.2-0.3,0.3-0.6,0.4c-0.2,0.1-0.5,0.1-0.8,0.1c-0.2,0-0.5,0-0.6-0.1c-0.2-0.1-0.3-0.2-0.5-0.2C-3,5.4-3.1,5.3-3.1,5.2
						C-3.2,5.1-3.2,5-3.3,4.9v0.7h-1.1V0h1.1v3.5c0,0.1,0,0.2,0,0.4c0,0.1,0.1,0.3,0.1,0.4C-3.1,4.4-3,4.6-2.9,4.7
						c0.1,0.1,0.2,0.2,0.3,0.2C-2.4,4.9-2.3,5-2.1,5c0.2,0,0.4,0,0.6-0.1c0.1-0.1,0.2-0.2,0.3-0.3c0.1-0.1,0.1-0.3,0.1-0.4
						c0-0.2,0-0.3,0-0.5l0-3.6H0z M-6.6,3.3H-9c0,0,0,0.1,0,0.1c0,0.1,0,0.2,0,0.3c0,0.1,0.1,0.3,0.1,0.4c0.1,0.1,0.1,0.3,0.2,0.4
						c0.1,0.1,0.2,0.2,0.4,0.3C-8.1,4.9-7.9,5-7.7,5c0.2,0,0.4,0,0.5-0.1C-7.1,4.7-7,4.6-6.9,4.5c0.1-0.1,0.1-0.3,0.2-0.4
						c0-0.1,0.1-0.3,0.1-0.4c0-0.1,0-0.2,0-0.3C-6.6,3.3-6.6,3.3-6.6,3.3 M-5.5,2.5L-5.5,2.5v0.2v0.1c0,0.2,0,0.3,0,0.5
						c0,0.2,0,0.4-0.1,0.6c-0.1,0.2-0.1,0.4-0.2,0.7c-0.1,0.2-0.2,0.4-0.4,0.6c-0.2,0.2-0.4,0.3-0.6,0.4c-0.2,0.1-0.5,0.2-0.9,0.1
						c-0.4,0-0.7-0.1-0.9-0.2c-0.3-0.1-0.5-0.2-0.7-0.4c-0.2-0.2-0.3-0.4-0.4-0.6C-9.9,4.5-9.9,4.2-10,4c-0.1-0.2-0.1-0.4-0.1-0.7
						c0-0.2,0-0.4,0-0.6c0-0.2,0-0.3,0-0.5c0-0.2,0.1-0.4,0.1-0.6C-9.9,1.4-9.8,1.2-9.7,1c0.1-0.2,0.3-0.4,0.5-0.5
						C-9,0.3-8.8,0.2-8.5,0.1C-8.2,0-7.8-0.1-7.4-0.1c0.3,0,0.5,0,0.7,0.1c0.2,0,0.4,0.1,0.5,0.1C-6.1,0.2-6,0.2-5.9,0.3
						c0.1,0,0.1,0.1,0.1,0.1l0.2,1c0,0-0.1,0-0.1-0.1C-5.8,1.2-5.9,1.1-6,1.1C-6.2,1-6.3,1-6.5,0.9c-0.2,0-0.4-0.1-0.7-0.1
						C-7.6,0.9-7.8,0.9-8,1c-0.2,0.1-0.4,0.2-0.5,0.3c-0.1,0.1-0.2,0.3-0.3,0.4C-8.9,1.9-8.9,2-9,2.1c0,0.1,0,0.2,0,0.3v0.1v0
						C-9,2.5-5.5,2.5-5.5,2.5z M-11.4,7.7h-1.1V0h1.1V7.7z M-14.8,3.3h-2.4c0,0,0,0.1,0,0.1c0,0.1,0,0.2,0,0.3
						c0,0.1,0.1,0.3,0.1,0.4c0,0.1,0.1,0.3,0.2,0.4c0.1,0.1,0.2,0.2,0.4,0.3c0.1,0.1,0.3,0.1,0.5,0.1c0.2,0,0.4,0,0.5-0.1
						c0.1-0.1,0.2-0.2,0.3-0.3c0.1-0.1,0.1-0.3,0.2-0.4c0-0.1,0.1-0.3,0.1-0.4s0-0.2,0-0.3C-14.8,3.3-14.8,3.3-14.8,3.3 M-13.7,2.5
						L-13.7,2.5v0.2v0.1c0,0.2,0,0.3,0,0.5c0,0.2,0,0.4-0.1,0.6c-0.1,0.2-0.1,0.4-0.2,0.7c-0.1,0.2-0.2,0.4-0.4,0.6
						c-0.2,0.2-0.4,0.3-0.6,0.4c-0.2,0.1-0.5,0.2-0.9,0.1c-0.4,0-0.7-0.1-0.9-0.2c-0.3-0.1-0.5-0.2-0.7-0.4
						c-0.2-0.2-0.3-0.4-0.4-0.6c-0.1-0.2-0.2-0.4-0.3-0.7c-0.1-0.2-0.1-0.4-0.1-0.7c0-0.2,0-0.4,0-0.6c0-0.2,0-0.3,0-0.5
						c0-0.2,0.1-0.4,0.1-0.6c0.1-0.2,0.2-0.4,0.3-0.6c0.1-0.2,0.3-0.4,0.5-0.5c0.2-0.2,0.4-0.3,0.7-0.4c0.3-0.1,0.6-0.1,1.1-0.1
						c0.3,0,0.5,0,0.7,0.1c0.2,0,0.4,0.1,0.5,0.1c0.1,0.1,0.2,0.1,0.3,0.1c0.1,0,0.1,0.1,0.1,0.1l0.2,1c0,0-0.1,0-0.1-0.1
						c-0.1-0.1-0.2-0.1-0.3-0.2C-14.4,1-14.6,1-14.8,0.9c-0.2,0-0.4-0.1-0.7-0.1c-0.3,0-0.6,0.1-0.8,0.1c-0.2,0.1-0.4,0.2-0.5,0.3
						C-16.9,1.5-17,1.6-17,1.7c-0.1,0.1-0.1,0.3-0.1,0.4c0,0.1,0,0.2,0,0.3v0.1v0C-17.2,2.5-13.7,2.5-13.7,2.5z M-18.7,5.7h-1.1
						L-21,1.3l-1.3,4.4h-1.1l1.8-5.7l-0.1-0.4c0-0.1-0.1-0.2-0.1-0.3c0-0.1-0.1-0.2-0.2-0.2C-22.1-0.9-22.2-1-22.3-1
						c-0.1,0-0.3,0-0.4,0.1c-0.1,0-0.2,0.1-0.3,0.1C-23-0.8-23-0.8-23-0.8l0.1-0.9c0,0,0,0,0.1-0.1c0.1,0,0.2-0.1,0.3-0.1
						c0.1,0,0.3,0,0.5,0c0.2,0,0.4,0,0.6,0.1c0.2,0.1,0.3,0.2,0.4,0.3c0.1,0.1,0.2,0.3,0.3,0.5c0.1,0.2,0.1,0.4,0.2,0.6
						C-20.5-0.3-18.7,5.7-18.7,5.7z M-24.1,0v3.8c0,0.2,0,0.3,0,0.5c0,0.2-0.1,0.3-0.1,0.5c-0.1,0.2-0.1,0.3-0.2,0.4
						c-0.1,0.2-0.3,0.3-0.6,0.4c-0.2,0.1-0.5,0.1-0.8,0.1c-0.2,0-0.5,0-0.6-0.1c-0.2-0.1-0.3-0.2-0.5-0.2c-0.1-0.1-0.2-0.2-0.3-0.3
						s-0.1-0.2-0.1-0.2v0.7h-1.1V0h1.1v3.5c0,0.1,0,0.2,0,0.4c0,0.1,0.1,0.3,0.1,0.4c0.1,0.1,0.1,0.3,0.3,0.4
						c0.1,0.1,0.2,0.2,0.3,0.2c0.1,0.1,0.3,0.1,0.4,0.1c0.2,0,0.4,0,0.6-0.1c0.1-0.1,0.2-0.2,0.3-0.3c0.1-0.1,0.1-0.3,0.1-0.4
						c0-0.2,0-0.3,0-0.5V0C-25.2,0-24.1,0-24.1,0z M-30.7,3.3h-2.4c0,0,0,0.1,0,0.1c0,0.1,0,0.2,0,0.3c0,0.1,0.1,0.3,0.1,0.4
						c0.1,0.1,0.1,0.3,0.2,0.4c0.1,0.1,0.2,0.2,0.4,0.3c0.1,0.1,0.3,0.1,0.5,0.1c0.2,0,0.4,0,0.5-0.1c0.1-0.1,0.2-0.2,0.3-0.3
						c0.1-0.1,0.1-0.3,0.2-0.4c0-0.1,0.1-0.3,0.1-0.4s0-0.2,0-0.3C-30.7,3.3-30.7,3.3-30.7,3.3 M-29.6,2.5L-29.6,2.5v0.2v0.1
						c0,0.2,0,0.3,0,0.5c0,0.2,0,0.4-0.1,0.6c0,0.2-0.1,0.4-0.2,0.7c-0.1,0.2-0.2,0.4-0.4,0.6c-0.2,0.2-0.4,0.3-0.6,0.4
						c-0.2,0.1-0.5,0.2-0.9,0.1c-0.4,0-0.7-0.1-0.9-0.2c-0.3-0.1-0.5-0.2-0.7-0.4c-0.2-0.2-0.3-0.4-0.4-0.6C-34,4.5-34.1,4.2-34.1,4
						c-0.1-0.2-0.1-0.4-0.1-0.7c0-0.2,0-0.4,0-0.6c0-0.2,0-0.3,0-0.5c0-0.2,0.1-0.4,0.1-0.6c0.1-0.2,0.2-0.4,0.3-0.6
						c0.1-0.2,0.3-0.4,0.5-0.5c0.2-0.2,0.4-0.3,0.7-0.4c0.3-0.1,0.6-0.1,1.1-0.1c0.3,0,0.5,0,0.7,0.1c0.2,0,0.4,0.1,0.5,0.1
						c0.1,0.1,0.2,0.1,0.3,0.1c0.1,0,0.1,0.1,0.1,0.1l0.2,1c0,0-0.1,0-0.1-0.1c-0.1-0.1-0.2-0.1-0.3-0.2C-30.3,1-30.5,1-30.7,0.9
						c-0.2,0-0.4-0.1-0.7-0.1c-0.3,0-0.6,0.1-0.8,0.1c-0.2,0.1-0.4,0.2-0.5,0.3c-0.1,0.1-0.2,0.3-0.3,0.4C-33,1.9-33.1,2-33.1,2.1
						c0,0.1,0,0.2,0,0.3v0.1v0C-33.1,2.5-29.6,2.5-29.6,2.5z M-36.3,5c0-0.2,0-0.5-0.1-0.6c-0.1-0.2-0.1-0.3-0.2-0.4
						c-0.1-0.1-0.2-0.2-0.3-0.3c-0.1-0.1-0.2-0.1-0.3-0.1c-0.1,0-0.2,0-0.3-0.1c-0.1,0-0.1,0-0.2,0h-1.2v3.2h1.2c0.1,0,0.2,0,0.3,0
						c0.1,0,0.2-0.1,0.3-0.1c0.1-0.1,0.2-0.1,0.3-0.3c0.1-0.1,0.2-0.3,0.3-0.5C-36.4,5.6-36.3,5.3-36.3,5 M-35,5
						c0,0.4,0,0.8-0.1,1.1c-0.1,0.3-0.2,0.6-0.4,0.8c-0.2,0.2-0.4,0.4-0.6,0.5c-0.2,0.1-0.5,0.2-0.7,0.3c-0.3,0.1-0.5,0.1-0.8,0.1
						h-2.4V0h1.3v2.4h1.1c0.2,0,0.5,0,0.7,0c0.2,0,0.5,0.1,0.7,0.2c0.2,0.1,0.4,0.2,0.6,0.4c0.2,0.2,0.4,0.5,0.5,0.8
						C-35.1,4.2-35,4.6-35,5 M24.1,1.7c0-0.1,0-0.3-0.1-0.4C24,1.2,23.9,1.1,23.8,1c-0.1-0.1-0.2-0.1-0.4-0.2
						c-0.1,0-0.2-0.1-0.2-0.1c-0.1,0-0.1,0-0.2,0c-0.2,0-0.4,0-0.5,0.1c-0.1,0.1-0.3,0.2-0.4,0.3C22,1.3,22,1.5,22,1.7
						c0,0.1,0,0.1,0,0.2C22,2,22,2,22,2.1c0.1,0.2,0.1,0.3,0.3,0.4c0.1,0.1,0.3,0.2,0.5,0.2c0.2,0.1,0.4,0.1,0.7,0.1
						c0.1,0,0.2,0,0.3,0c0.1,0,0.2,0,0.2,0c0.1,0,0.1,0,0.1,0C24.1,2.7,24.1,1.7,24.1,1.7z M25.2,0v3.7c0,0.2,0,0.5,0,0.6
						c0,0.2-0.1,0.3-0.1,0.5C25,5,24.9,5.1,24.8,5.3c-0.2,0.2-0.4,0.3-0.7,0.4c-0.3,0.1-0.6,0.2-1,0.2c-0.2,0-0.5,0-0.6-0.1
						c-0.2,0-0.3-0.1-0.5-0.1c-0.1,0-0.2-0.1-0.3-0.1c-0.1,0-0.1-0.1-0.1-0.1l-0.2-1c0,0,0,0,0.1,0.1c0.1,0.1,0.2,0.1,0.3,0.2
						c0.1,0.1,0.3,0.1,0.5,0.2C22.4,4.9,22.6,5,22.8,5c0.3,0,0.5,0,0.7-0.1c0.2-0.1,0.3-0.2,0.4-0.3c0.1-0.1,0.1-0.2,0.2-0.3
						c0-0.1,0-0.2,0-0.3c0-0.1,0-0.2,0-0.2V3.5c0,0,0,0-0.1,0c-0.1,0-0.1,0-0.2,0c-0.1,0-0.2,0-0.3,0c-0.2,0-0.4,0-0.7,0
						c-0.2,0-0.4-0.1-0.6-0.1c-0.2-0.1-0.4-0.2-0.6-0.3c-0.2-0.1-0.3-0.3-0.4-0.4C21.1,2.5,21,2.4,21,2.2c0-0.1-0.1-0.3-0.1-0.4
						c0-0.1,0-0.2,0-0.3c0-0.1,0-0.2,0-0.4c0-0.1,0.1-0.3,0.1-0.4c0.1-0.1,0.2-0.3,0.3-0.4s0.3-0.2,0.5-0.3C22,0,22.2-0.1,22.5-0.1
						c0.3,0,0.5,0,0.8,0.1c0.2,0.1,0.4,0.2,0.6,0.3c0.2,0.1,0.3,0.3,0.4,0.4V0.4c0-0.1,0-0.1,0-0.2c0-0.1,0-0.1,0.1-0.1
						c0,0,0.1-0.1,0.1-0.1c0,0,0.1,0,0.1,0s0.1,0,0.1,0H25.2z M20.8,4.5l-0.2,1c-0.1,0-0.1,0.1-0.1,0.1c0,0-0.1,0-0.1,0.1
						c0,0-0.1,0-0.1,0c-0.1,0-0.1,0-0.2,0c0,0-0.1,0-0.2,0c-0.1,0-0.2,0-0.3,0c-0.1,0-0.2,0-0.3-0.1c-0.1,0-0.2-0.1-0.2-0.2
						C19.1,5.4,19,5.4,19,5.3c-0.1-0.1-0.1-0.2-0.1-0.2c0-0.1,0-0.1-0.1-0.1v0.8h-1.1V0h1.1v3.2c0,0.1,0,0.2,0,0.3
						c0,0.1,0,0.2,0,0.4c0,0.1,0.1,0.3,0.1,0.4c0.1,0.1,0.1,0.2,0.2,0.3c0.1,0.1,0.2,0.1,0.3,0.2c0.1,0,0.3,0.1,0.4,0.1
						c0.2,0,0.3,0,0.5-0.1C20.6,4.7,20.7,4.6,20.8,4.5 M15.3,1.7c0-0.1,0-0.3-0.1-0.4C15.2,1.2,15.1,1.1,15,1
						c-0.1-0.1-0.2-0.1-0.4-0.2c-0.1,0-0.2-0.1-0.2-0.1c-0.1,0-0.1,0-0.2,0c-0.2,0-0.4,0-0.5,0.1c-0.1,0.1-0.3,0.2-0.4,0.3
						c-0.1,0.1-0.1,0.3-0.1,0.5c0,0.1,0,0.1,0,0.2c0,0.1,0,0.1,0,0.2c0.1,0.2,0.1,0.3,0.3,0.4c0.1,0.1,0.3,0.2,0.5,0.2
						c0.2,0.1,0.4,0.1,0.7,0.1c0.1,0,0.2,0,0.3,0c0.1,0,0.2,0,0.2,0c0.1,0,0.1,0,0.1,0C15.3,2.7,15.3,1.7,15.3,1.7z M16.4,0v3.7
						c0,0.2,0,0.5,0,0.6c0,0.2-0.1,0.3-0.1,0.5C16.2,5,16.1,5.1,16,5.3c-0.2,0.2-0.4,0.3-0.7,0.4c-0.3,0.1-0.6,0.2-1,0.2
						c-0.2,0-0.5,0-0.6-0.1c-0.2,0-0.3-0.1-0.5-0.1c-0.1,0-0.2-0.1-0.3-0.1c-0.1,0-0.1-0.1-0.1-0.1l-0.2-1c0,0,0,0,0.1,0.1
						c0.1,0.1,0.2,0.1,0.3,0.2c0.1,0.1,0.3,0.1,0.5,0.2C13.6,4.9,13.8,5,14,5c0.3,0,0.5,0,0.7-0.1c0.2-0.1,0.3-0.2,0.4-0.3
						c0.1-0.1,0.1-0.2,0.2-0.3c0-0.1,0-0.2,0-0.3s0-0.2,0-0.2V3.5c0,0,0,0-0.1,0c-0.1,0-0.1,0-0.2,0c-0.1,0-0.2,0-0.3,0
						c-0.2,0-0.4,0-0.7,0c-0.2,0-0.4-0.1-0.6-0.1c-0.2-0.1-0.4-0.2-0.6-0.3c-0.2-0.1-0.3-0.3-0.4-0.4c-0.1-0.1-0.2-0.3-0.2-0.4
						c0-0.1-0.1-0.3-0.1-0.4c0-0.1,0-0.2,0-0.3c0-0.1,0-0.2,0-0.4c0-0.1,0.1-0.3,0.1-0.4c0.1-0.1,0.2-0.3,0.3-0.4
						c0.1-0.1,0.3-0.2,0.5-0.3c0.2-0.1,0.4-0.1,0.7-0.1c0.3,0,0.5,0,0.7,0.1c0.2,0.1,0.4,0.2,0.6,0.3c0.2,0.1,0.3,0.3,0.4,0.4V0.4
						c0-0.1,0-0.1,0-0.2c0-0.1,0-0.1,0.1-0.1c0,0,0.1-0.1,0.1-0.1c0.1,0,0.1,0,0.1,0s0.1,0,0.1,0H16.4z M10.2-0.5
						c0-0.1,0-0.2-0.1-0.3S9.9-1,9.8-1.1C9.7-1.1,9.6-1.2,9.4-1.2c-0.1,0-0.3,0-0.4,0c-0.3,0-0.5,0-0.7,0.1C8.1-1.1,7.9-1,7.8-0.9
						C7.7-0.7,7.7-0.6,7.7-0.5c0,0.1,0,0.2,0.1,0.3c0,0.1,0.1,0.2,0.1,0.2c0,0.1,0.1,0.1,0.1,0.1C8,0.2,8,0.3,8,0.3h0.1h0.2h0.3H9
						c0.2,0,0.4,0,0.6-0.1C9.8,0.1,9.9,0.1,10,0c0.1-0.1,0.2-0.1,0.2-0.2C10.2-0.3,10.2-0.4,10.2-0.5 M10.1,3.8c0-0.3,0-0.5-0.1-0.7
						C9.9,3,9.7,2.8,9.6,2.7C9.4,2.6,9.2,2.6,8.9,2.6c-0.2,0-0.4,0.1-0.5,0.2C8.2,2.9,8.1,3,8,3.2C8,3.4,7.9,3.6,7.9,3.8
						c0,0.3,0,0.5,0.1,0.6c0.1,0.2,0.2,0.3,0.3,0.4C8.5,4.9,8.7,5,9,5c0.2,0,0.4,0,0.5-0.1c0.1-0.1,0.3-0.2,0.3-0.3
						C9.9,4.5,10,4.4,10,4.2C10.1,4.1,10.1,4,10.1,3.8 M11.3-0.4c0,0.5-0.2,0.9-0.6,1.2C10.4,1,9.8,1.1,9.1,1.1c-0.1,0-0.2,0-0.3,0
						c-0.1,0-0.2,0-0.4,0c-0.1,0-0.2,0-0.3,0C8,1.2,7.9,1.2,7.8,1.3c-0.1,0-0.1,0.1-0.1,0.2c0,0.1,0,0.2,0.1,0.2
						C7.9,1.7,8,1.8,8.1,1.8c0.1,0,0.3,0,0.4,0c0.2,0,0.3,0,0.5,0c0.5,0,0.9,0.1,1.2,0.2c0.3,0.2,0.6,0.4,0.8,0.7
						c0.2,0.3,0.3,0.7,0.3,1.1v1.8h-0.6c0,0-0.1,0-0.1,0c0,0-0.1,0-0.1,0c-0.1,0-0.1-0.1-0.1-0.1c0-0.1-0.1-0.1-0.1-0.2
						c0-0.1,0-0.1,0-0.2V5.1c0,0,0,0,0,0.1c0,0-0.1,0.1-0.1,0.2C9.9,5.4,9.8,5.5,9.6,5.5C9.5,5.6,9.4,5.7,9.2,5.7
						c-0.2,0-0.4,0.1-0.6,0.1c-0.1,0-0.3,0-0.5-0.1C8,5.7,7.9,5.6,7.7,5.5C7.5,5.5,7.4,5.3,7.3,5.2C7.1,5,7,4.9,7,4.6
						C6.9,4.4,6.9,4.1,6.9,3.8c0-0.2,0-0.4,0.1-0.6C7,3.1,7.1,2.9,7.2,2.8c0.1-0.1,0.2-0.2,0.2-0.3c0.1-0.1,0.2-0.1,0.2-0.2
						c0.1,0,0.1-0.1,0.1-0.1c0,0,0,0-0.1,0c-0.1,0-0.2,0-0.3-0.1C7.2,2.2,7.1,2.1,7,2.1C6.9,2,6.8,1.9,6.8,1.8
						C6.7,1.7,6.7,1.5,6.7,1.3c0-0.1,0-0.3,0-0.4c0-0.1,0.1-0.2,0.1-0.2C6.9,0.7,7,0.6,7,0.6c0.1,0,0.1-0.1,0.2-0.1c0,0,0,0-0.1,0
						c0,0-0.1-0.1-0.1-0.1C7,0.3,6.9,0.2,6.9,0.1C6.8,0,6.8-0.1,6.7-0.2S6.7-0.5,6.7-0.6c0-0.3,0.1-0.5,0.3-0.7
						c0.2-0.2,0.4-0.4,0.8-0.5C8.1-1.9,8.5-2,9-2c0.3,0,0.6,0,0.9,0.1c0.3,0.1,0.5,0.2,0.7,0.3c0.2,0.1,0.4,0.3,0.5,0.5
						S11.3-0.7,11.3-0.4 M4.7-0.5c0-0.1,0-0.2-0.1-0.3C4.5-0.9,4.4-1,4.3-1.1C4.2-1.1,4-1.2,3.9-1.2c-0.1,0-0.3,0-0.4,0
						c-0.3,0-0.5,0-0.7,0.1C2.5-1.1,2.4-1,2.3-0.9C2.2-0.7,2.1-0.6,2.1-0.5c0,0.1,0,0.2,0.1,0.3c0,0.1,0.1,0.2,0.1,0.2
						c0,0.1,0.1,0.1,0.1,0.1c0,0,0.1,0.1,0.1,0.1h0.1h0.2h0.3h0.3c0.2,0,0.4,0,0.6-0.1c0.2,0,0.3-0.1,0.4-0.2C4.5,0,4.6-0.1,4.6-0.2
						C4.7-0.3,4.7-0.4,4.7-0.5 M4.5,3.8c0-0.3,0-0.5-0.1-0.7C4.3,3,4.2,2.8,4,2.7C3.9,2.6,3.6,2.6,3.4,2.6C3.2,2.6,3,2.6,2.8,2.8
						C2.7,2.9,2.6,3,2.5,3.2C2.4,3.4,2.4,3.6,2.4,3.8c0,0.3,0,0.5,0.1,0.6c0.1,0.2,0.2,0.3,0.3,0.4C3,4.9,3.2,5,3.4,5
						c0.2,0,0.4,0,0.5-0.1c0.1-0.1,0.3-0.2,0.3-0.3c0.1-0.1,0.1-0.2,0.2-0.4C4.5,4.1,4.5,4,4.5,3.8 M5.8-0.4c0,0.5-0.2,0.9-0.6,1.2
						C4.8,1,4.3,1.1,3.5,1.1c-0.1,0-0.2,0-0.3,0c-0.1,0-0.2,0-0.4,0c-0.1,0-0.2,0-0.3,0c-0.1,0-0.2,0.1-0.3,0.1
						c-0.1,0-0.1,0.1-0.1,0.2c0,0.1,0,0.2,0.1,0.2c0.1,0.1,0.2,0.1,0.3,0.1c0.1,0,0.3,0,0.4,0c0.2,0,0.3,0,0.5,0
						c0.5,0,0.9,0.1,1.2,0.2C5,2.2,5.2,2.4,5.4,2.8c0.2,0.3,0.3,0.7,0.3,1.1v1.8H5.1c0,0-0.1,0-0.1,0c0,0-0.1,0-0.1,0
						c-0.1,0-0.1-0.1-0.1-0.1c0-0.1-0.1-0.1-0.1-0.2c0-0.1,0-0.1,0-0.2V5.1c0,0,0,0,0,0.1c0,0-0.1,0.1-0.1,0.2
						C4.3,5.4,4.2,5.5,4.1,5.5C4,5.6,3.8,5.7,3.7,5.7c-0.2,0-0.4,0.1-0.6,0.1c-0.1,0-0.3,0-0.5-0.1c-0.2,0-0.3-0.1-0.5-0.2
						C2,5.5,1.9,5.3,1.7,5.2C1.6,5,1.5,4.9,1.4,4.6C1.3,4.4,1.3,4.1,1.3,3.8c0-0.2,0-0.4,0.1-0.6c0.1-0.2,0.1-0.3,0.2-0.4
						c0.1-0.1,0.2-0.2,0.2-0.3C1.9,2.5,2,2.4,2.1,2.4c0.1,0,0.1-0.1,0.1-0.1c0,0,0,0-0.1,0c-0.1,0-0.2,0-0.3-0.1
						c-0.1,0-0.2-0.1-0.3-0.2C1.4,2,1.3,1.9,1.2,1.8C1.1,1.7,1.1,1.5,1.1,1.3c0-0.1,0-0.3,0-0.4c0-0.1,0.1-0.2,0.1-0.2
						c0.1-0.1,0.1-0.1,0.2-0.2c0.1,0,0.1-0.1,0.2-0.1c0,0,0,0-0.1,0c0,0-0.1-0.1-0.1-0.1C1.4,0.3,1.4,0.2,1.3,0.1
						C1.3,0,1.2-0.1,1.2-0.2S1.1-0.5,1.1-0.6c0-0.3,0.1-0.5,0.3-0.7c0.2-0.2,0.4-0.4,0.8-0.5C2.5-2,2.9-2,3.5-2c0.3,0,0.6,0,0.9,0.1
						c0.3,0.1,0.5,0.2,0.7,0.3c0.2,0.1,0.4,0.3,0.5,0.5C5.7-0.9,5.8-0.7,5.8-0.4 M-43.4,0v3.8c0,0.2,0,0.3,0,0.5
						c0,0.2-0.1,0.3-0.1,0.5c-0.1,0.2-0.1,0.3-0.2,0.4c-0.1,0.2-0.3,0.3-0.6,0.4c-0.2,0.1-0.5,0.1-0.8,0.1c-0.2,0-0.5,0-0.6-0.1
						c-0.2-0.1-0.3-0.2-0.5-0.2c-0.1-0.1-0.2-0.2-0.3-0.3c-0.1-0.1-0.1-0.2-0.1-0.2v0.7h-1.1V0h1.1v3.5c0,0.1,0,0.2,0,0.4
						c0,0.1,0.1,0.3,0.1,0.4c0.1,0.1,0.1,0.3,0.3,0.4c0.1,0.1,0.2,0.2,0.3,0.2c0.1,0.1,0.3,0.1,0.4,0.1c0.2,0,0.4,0,0.6-0.1
						c0.1-0.1,0.2-0.2,0.3-0.3c0.1-0.1,0.1-0.3,0.1-0.4c0-0.2,0-0.3,0-0.5V0C-44.5,0-43.4,0-43.4,0z M-50.2,1.7c0-0.1,0-0.3-0.1-0.4
						c-0.1-0.1-0.1-0.2-0.3-0.3c-0.1-0.1-0.2-0.1-0.4-0.2c-0.1,0-0.2-0.1-0.2-0.1c-0.1,0-0.1,0-0.2,0c-0.2,0-0.4,0-0.5,0.1
						C-52,0.9-52.1,1-52.2,1.2c-0.1,0.1-0.1,0.3-0.1,0.5c0,0.1,0,0.1,0,0.2c0,0.1,0,0.1,0,0.2c0.1,0.2,0.1,0.3,0.3,0.4
						c0.1,0.1,0.3,0.2,0.5,0.2c0.2,0.1,0.4,0.1,0.7,0.1c0.1,0,0.2,0,0.3,0c0.1,0,0.2,0,0.2,0c0.1,0,0.1,0,0.1,0
						C-50.2,2.7-50.2,1.7-50.2,1.7z M-49.1,0v3.7c0,0.2,0,0.5,0,0.6c0,0.2-0.1,0.3-0.1,0.5c-0.1,0.1-0.2,0.3-0.3,0.4
						c-0.2,0.2-0.4,0.3-0.7,0.4s-0.6,0.2-1,0.2c-0.2,0-0.5,0-0.6-0.1c-0.2,0-0.3-0.1-0.5-0.1c-0.1,0-0.2-0.1-0.3-0.1
						s-0.1-0.1-0.1-0.1l-0.2-1c0,0,0,0,0.1,0.1c0.1,0.1,0.2,0.1,0.3,0.2c0.1,0.1,0.3,0.1,0.5,0.2c0.2,0.1,0.4,0.1,0.6,0.1
						c0.3,0,0.5,0,0.7-0.1c0.2-0.1,0.3-0.2,0.4-0.3c0.1-0.1,0.1-0.2,0.2-0.3c0-0.1,0-0.2,0-0.3s0-0.2,0-0.2V3.5c0,0,0,0-0.1,0
						c-0.1,0-0.1,0-0.2,0c-0.1,0-0.2,0-0.3,0c-0.2,0-0.4,0-0.7,0c-0.2,0-0.4-0.1-0.6-0.1c-0.2-0.1-0.4-0.2-0.6-0.3
						C-52.8,3-53,2.8-53.1,2.7c-0.1-0.1-0.2-0.3-0.2-0.4c0-0.1-0.1-0.3-0.1-0.4c0-0.1,0-0.2,0-0.3c0-0.1,0-0.2,0-0.4
						c0-0.1,0.1-0.3,0.1-0.4c0.1-0.1,0.2-0.3,0.3-0.4c0.1-0.1,0.3-0.2,0.5-0.3c0.2-0.1,0.4-0.1,0.7-0.1c0.3,0,0.5,0,0.7,0.1
						c0.2,0.1,0.4,0.2,0.6,0.3c0.2,0.1,0.3,0.3,0.4,0.4V0.4c0-0.1,0-0.1,0-0.2c0-0.1,0-0.1,0.1-0.1c0,0,0.1-0.1,0.1-0.1
						c0,0,0.1,0,0.1,0c0,0,0.1,0,0.1,0H-49.1z M-55.7,1.3c-0.1-0.1-0.1-0.1-0.2-0.2C-56,1.1-56.1,1-56.2,1c-0.1-0.1-0.2-0.1-0.3-0.1
						c-0.1,0-0.2,0-0.3,0c-0.2,0-0.4,0.1-0.6,0.2c-0.2,0.1-0.3,0.2-0.4,0.4C-57.9,1.6-57.9,1.8-58,2c0,0.2-0.1,0.5-0.1,0.8
						c0,0.2,0,0.3,0,0.5c0,0.2,0,0.4,0.1,0.6c0,0.2,0.1,0.4,0.2,0.5c0.1,0.2,0.2,0.3,0.4,0.4s0.3,0.1,0.6,0.1c0.2,0,0.4,0,0.5-0.1
						c0.1-0.1,0.3-0.1,0.3-0.2c0.1-0.1,0.1-0.2,0.2-0.3c0-0.1,0.1-0.2,0.1-0.3c0-0.1,0-0.2,0-0.3C-55.7,3.7-55.7,1.3-55.7,1.3z
						 M-54.6,0v7.7h-1.1V5.1c0,0,0,0,0,0.1c0,0-0.1,0.1-0.1,0.2c-0.1,0.1-0.1,0.1-0.2,0.2c-0.1,0.1-0.2,0.1-0.4,0.2
						c-0.2,0-0.3,0.1-0.5,0.1c-0.3,0-0.6,0-0.8-0.1c-0.2-0.1-0.4-0.2-0.6-0.4c-0.2-0.2-0.3-0.3-0.4-0.5c-0.1-0.2-0.2-0.4-0.3-0.6
						c-0.1-0.2-0.1-0.4-0.1-0.7c0-0.2,0-0.4,0-0.6c0-0.3,0-0.6,0.1-0.9c0-0.3,0.1-0.6,0.2-0.8c0.1-0.2,0.2-0.5,0.4-0.6
						c0.2-0.2,0.4-0.3,0.6-0.4c0.2-0.1,0.5-0.1,0.8-0.1c0.2,0,0.4,0,0.6,0.1c0.2,0.1,0.3,0.1,0.5,0.2c0.1,0.1,0.3,0.2,0.4,0.3V0
						C-55.7,0-54.6,0-54.6,0z M-61.5,1.7c0-0.1,0-0.3-0.1-0.4c-0.1-0.1-0.1-0.2-0.3-0.3c-0.1-0.1-0.2-0.1-0.4-0.2
						c-0.1,0-0.2-0.1-0.2-0.1c-0.1,0-0.1,0-0.2,0c-0.2,0-0.4,0-0.5,0.1c-0.1,0.1-0.3,0.2-0.4,0.3c-0.1,0.1-0.1,0.3-0.1,0.5
						c0,0.1,0,0.1,0,0.2c0,0.1,0,0.1,0,0.2c0.1,0.2,0.1,0.3,0.3,0.4c0.1,0.1,0.3,0.2,0.5,0.2c0.2,0.1,0.4,0.1,0.7,0.1
						c0.1,0,0.2,0,0.3,0c0.1,0,0.2,0,0.2,0c0.1,0,0.1,0,0.1,0C-61.5,2.7-61.5,1.7-61.5,1.7z M-60.4,0v3.7c0,0.2,0,0.5,0,0.6
						c0,0.2-0.1,0.3-0.1,0.5c-0.1,0.1-0.2,0.3-0.3,0.4c-0.2,0.2-0.4,0.3-0.7,0.4c-0.3,0.1-0.6,0.2-1,0.2c-0.2,0-0.5,0-0.6-0.1
						c-0.2,0-0.3-0.1-0.5-0.1c-0.1,0-0.2-0.1-0.3-0.1S-64,5.5-64,5.5l-0.2-1c0,0,0,0,0.1,0.1c0.1,0.1,0.2,0.1,0.3,0.2
						c0.1,0.1,0.3,0.1,0.5,0.2C-63.2,4.9-63,5-62.8,5c0.3,0,0.5,0,0.7-0.1c0.2-0.1,0.3-0.2,0.4-0.3c0.1-0.1,0.1-0.2,0.2-0.3
						c0-0.1,0-0.2,0-0.3s0-0.2,0-0.2V3.5c0,0,0,0-0.1,0c-0.1,0-0.1,0-0.2,0c-0.1,0-0.2,0-0.3,0c-0.2,0-0.4,0-0.7,0
						c-0.2,0-0.4-0.1-0.6-0.1c-0.2-0.1-0.4-0.2-0.6-0.3c-0.2-0.1-0.3-0.3-0.4-0.4c-0.1-0.1-0.2-0.3-0.2-0.4c0-0.1-0.1-0.3-0.1-0.4
						c0-0.1,0-0.2,0-0.3c0-0.1,0-0.2,0-0.4c0-0.1,0.1-0.3,0.1-0.4c0.1-0.1,0.2-0.3,0.3-0.4c0.1-0.1,0.3-0.2,0.5-0.3
						c0.2-0.1,0.4-0.1,0.7-0.1c0.3,0,0.5,0,0.8,0.1c0.2,0.1,0.4,0.2,0.6,0.3c0.2,0.1,0.3,0.3,0.4,0.4V0.4c0-0.1,0-0.1,0-0.2
						c0-0.1,0-0.1,0.1-0.1c0,0,0.1-0.1,0.1-0.1c0.1,0,0.1,0,0.1,0c0,0,0.1,0,0.1,0C-61,0-60.4,0-60.4,0z M-66.9,2.3
						c0-0.2,0-0.4-0.1-0.5c-0.1-0.1-0.1-0.3-0.2-0.3c-0.1-0.1-0.3-0.2-0.4-0.2c-0.2,0-0.3-0.1-0.5-0.1c-0.2,0-0.3,0-0.4,0h-1.1v2.4
						h1.1c0.2,0,0.3,0,0.5,0c0.2,0,0.3,0,0.5-0.1c0.1,0,0.3-0.1,0.4-0.2C-67.1,3-67,2.9-67,2.8C-66.9,2.6-66.9,2.5-66.9,2.3
						 M-67.2,5.6c0-0.2,0-0.4-0.1-0.5c-0.1-0.1-0.2-0.2-0.3-0.3c-0.1-0.1-0.2-0.1-0.3-0.2c-0.1,0-0.2-0.1-0.3-0.1
						c-0.1,0-0.2,0-0.2,0h-1.1v2.2h1.1c0,0,0.1,0,0.2,0c0.1,0,0.2,0,0.3,0c0.1,0,0.2,0,0.3-0.1c0.1,0,0.2-0.1,0.2-0.1
						c0.1-0.1,0.2-0.2,0.3-0.3C-67.2,5.9-67.2,5.8-67.2,5.6 M-65.6,2.3c0,0.1,0,0.3,0,0.4c0,0.1-0.1,0.3-0.2,0.4s-0.2,0.3-0.3,0.4
						c-0.2,0.1-0.3,0.2-0.5,0.3C-66.8,3.9-66.9,4-67.1,4c0.1,0,0.2,0.1,0.4,0.2c0.1,0.1,0.2,0.1,0.3,0.2c0.1,0.1,0.2,0.2,0.3,0.3
						c0.1,0.1,0.2,0.3,0.2,0.5c0.1,0.2,0.1,0.4,0.1,0.7c0,0.3,0,0.5-0.1,0.7c-0.1,0.2-0.2,0.4-0.4,0.5c-0.2,0.1-0.3,0.3-0.5,0.3
						c-0.2,0.1-0.5,0.2-0.7,0.2c-0.3,0-0.5,0.1-0.8,0h-2.4V0h2.4c0.2,0,0.4,0,0.6,0c0.2,0,0.4,0,0.6,0.1c0.2,0,0.4,0.1,0.6,0.2
						c0.2,0.1,0.4,0.2,0.5,0.3c0.2,0.2,0.3,0.3,0.4,0.5c0.1,0.2,0.2,0.4,0.2,0.6C-65.6,1.9-65.6,2.1-65.6,2.3 M54.2,0v3.8
						c0,0.2,0,0.3,0,0.5c0,0.2-0.1,0.3-0.1,0.5C54,5,53.9,5.1,53.8,5.2c-0.1,0.2-0.3,0.3-0.6,0.4c-0.2,0.1-0.5,0.1-0.8,0.1
						c-0.2,0-0.5,0-0.6-0.1c-0.2-0.1-0.3-0.2-0.5-0.2c-0.1-0.1-0.2-0.2-0.3-0.3C51,5.1,51,5,50.9,4.9v0.7h-1.1V0h1.1v3.5
						c0,0.1,0,0.2,0,0.4C51,4,51,4.2,51.1,4.3c0.1,0.1,0.1,0.3,0.3,0.4c0.1,0.1,0.2,0.2,0.3,0.2C51.8,4.9,51.9,5,52.1,5
						c0.2,0,0.4,0,0.6-0.1c0.1-0.1,0.2-0.2,0.3-0.3c0.1-0.1,0.1-0.3,0.1-0.4c0-0.2,0-0.3,0-0.5V0C53.1,0,54.2,0,54.2,0z M48.5,5.7
						h-1.1V0h1.1V5.7z M48.6,7.1c0,0.1,0,0.2-0.1,0.3c-0.1,0.1-0.1,0.1-0.2,0.2c-0.1,0-0.2,0.1-0.3,0.1c-0.1,0-0.2,0-0.3-0.1
						c-0.1-0.1-0.2-0.1-0.2-0.2c-0.1-0.1-0.1-0.2-0.1-0.3c0-0.1,0-0.2,0.1-0.3c0-0.1,0.1-0.2,0.2-0.2c0.1-0.1,0.2-0.1,0.4-0.1
						c0.1,0,0.2,0,0.3,0.1c0.1,0.1,0.2,0.1,0.2,0.2C48.6,6.9,48.6,7,48.6,7.1 M46.1,0v3.8c0,0.1,0,0.3,0,0.4c0,0.2,0,0.3-0.1,0.5
						c0,0.2-0.1,0.3-0.2,0.5c-0.1,0.1-0.2,0.3-0.4,0.4c-0.1,0.1-0.3,0.2-0.5,0.2c-0.2,0-0.3,0.1-0.5,0.1c-0.2,0-0.4,0-0.6-0.1
						c-0.2-0.1-0.3-0.1-0.4-0.2c-0.1-0.1-0.2-0.2-0.3-0.3S43,5,42.9,5c0-0.1-0.1-0.1-0.1-0.1c0,0,0,0.1-0.1,0.2
						c0,0.1-0.1,0.2-0.2,0.3c-0.1,0.1-0.2,0.2-0.3,0.3c-0.1,0.1-0.2,0.1-0.3,0.2c-0.1,0-0.2,0.1-0.3,0.1c-0.1,0-0.2,0-0.3,0
						c-0.2,0-0.4,0-0.6-0.1c-0.2-0.1-0.3-0.1-0.4-0.2c-0.1-0.1-0.2-0.2-0.3-0.3C40,5.1,39.9,5,39.9,4.9v0.8h-1.1V0h1.1v3.5
						c0,0.2,0,0.4,0.1,0.6c0,0.2,0.1,0.3,0.1,0.4c0.1,0.1,0.1,0.2,0.2,0.2c0.1,0.1,0.2,0.1,0.3,0.2c0.1,0,0.2,0.1,0.4,0.1
						c0.2,0,0.3,0,0.4-0.1c0.1,0,0.2-0.1,0.3-0.2c0.1-0.1,0.1-0.2,0.2-0.3c0-0.1,0.1-0.2,0.1-0.4c0-0.1,0-0.3,0-0.5V0H43v3.5
						c0,0.1,0,0.3,0,0.4c0,0.1,0,0.3,0.1,0.4c0.1,0.1,0.1,0.3,0.3,0.4c0.1,0.1,0.2,0.2,0.3,0.2c0.1,0,0.2,0.1,0.3,0.1
						c0.1,0,0.3,0,0.4,0s0.2-0.1,0.3-0.2c0.1-0.1,0.1-0.2,0.2-0.2c0-0.1,0.1-0.1,0.1-0.2c0-0.1,0-0.1,0-0.2c0-0.1,0-0.2,0-0.3
						c0-0.1,0-0.2,0-0.3V0C45,0,46.1,0,46.1,0z M36.4,1.7c0-0.1,0-0.3-0.1-0.4C36.2,1.2,36.1,1.1,36,1c-0.1-0.1-0.2-0.1-0.4-0.2
						c-0.1,0-0.2-0.1-0.2-0.1c-0.1,0-0.1,0-0.2,0c-0.2,0-0.4,0-0.5,0.1c-0.1,0.1-0.3,0.2-0.4,0.3c-0.1,0.1-0.1,0.3-0.1,0.5
						c0,0.1,0,0.1,0,0.2c0,0.1,0,0.1,0,0.2c0.1,0.2,0.1,0.3,0.3,0.4c0.1,0.1,0.3,0.2,0.5,0.2c0.2,0.1,0.4,0.1,0.7,0.1
						c0.1,0,0.2,0,0.3,0c0.1,0,0.2,0,0.2,0c0.1,0,0.1,0,0.1,0C36.4,2.7,36.4,1.7,36.4,1.7z M37.5,0v3.7c0,0.2,0,0.5,0,0.6
						c0,0.2-0.1,0.3-0.1,0.5C37.3,5,37.2,5.1,37,5.3c-0.2,0.2-0.4,0.3-0.7,0.4c-0.3,0.1-0.6,0.2-1,0.2c-0.2,0-0.5,0-0.6-0.1
						c-0.2,0-0.3-0.1-0.5-0.1c-0.1,0-0.2-0.1-0.3-0.1c-0.1,0-0.1-0.1-0.1-0.1l-0.2-1c0,0,0,0,0.1,0.1c0.1,0.1,0.2,0.1,0.3,0.2
						c0.1,0.1,0.3,0.1,0.5,0.2C34.6,4.9,34.8,5,35.1,5c0.3,0,0.5,0,0.7-0.1c0.2-0.1,0.3-0.2,0.4-0.3c0.1-0.1,0.1-0.2,0.2-0.3
						c0-0.1,0-0.2,0-0.3s0-0.2,0-0.2V3.5c0,0,0,0-0.1,0c-0.1,0-0.1,0-0.2,0c-0.1,0-0.2,0-0.3,0c-0.2,0-0.4,0-0.7,0
						c-0.2,0-0.4-0.1-0.6-0.1c-0.2-0.1-0.4-0.2-0.6-0.3c-0.2-0.1-0.3-0.3-0.4-0.4c-0.1-0.1-0.2-0.3-0.2-0.4c0-0.1-0.1-0.3-0.1-0.4
						c0-0.1,0-0.2,0-0.3c0-0.1,0-0.2,0-0.4c0-0.1,0.1-0.3,0.1-0.4c0.1-0.1,0.2-0.3,0.3-0.4c0.1-0.1,0.3-0.2,0.5-0.3
						c0.2-0.1,0.4-0.1,0.7-0.1c0.3,0,0.5,0,0.7,0.1c0.2,0.1,0.4,0.2,0.6,0.3c0.2,0.1,0.3,0.3,0.4,0.4V0.4c0-0.1,0-0.1,0-0.2
						c0-0.1,0-0.1,0.1-0.1c0,0,0.1-0.1,0.1-0.1c0,0,0.1,0,0.1,0c0,0,0.1,0,0.1,0C36.9,0,37.5,0,37.5,0z M32.2,2.8v4.9h-1.3V2.8
						c0-0.2,0-0.4,0-0.5c0-0.2,0-0.4-0.1-0.5c0-0.2-0.1-0.3-0.2-0.5c-0.1-0.2-0.3-0.3-0.4-0.4c-0.2-0.1-0.4-0.1-0.6-0.1
						c-0.2,0-0.3,0-0.5,0.1c-0.1,0-0.3,0.1-0.4,0.1c-0.1,0-0.2,0.1-0.3,0.1c-0.1,0-0.1,0.1-0.1,0.1L28.6,0c0,0,0,0,0.1,0
						c0.1,0,0.1-0.1,0.2-0.1c0.1,0,0.2-0.1,0.4-0.1c0.1,0,0.3,0,0.5,0c0.1,0,0.2,0,0.3,0c0.1,0,0.3,0,0.4,0.1S30.8-0.1,31,0
						c0.2,0.1,0.3,0.2,0.4,0.3c0.1,0.1,0.2,0.3,0.3,0.4C31.8,0.8,31.9,1,32,1.2c0.1,0.2,0.1,0.4,0.1,0.7C32.1,2.1,32.2,2.4,32.2,2.8
						 M65.3,0v3.8c0,0.2,0,0.3,0,0.5c0,0.2-0.1,0.3-0.1,0.5C65.1,5,65.1,5.1,65,5.2c-0.1,0.2-0.3,0.3-0.6,0.4
						c-0.2,0.1-0.5,0.1-0.8,0.1c-0.2,0-0.5,0-0.6-0.1c-0.2-0.1-0.3-0.2-0.5-0.2c-0.1-0.1-0.2-0.2-0.3-0.3c-0.1-0.1-0.1-0.2-0.1-0.2
						v0.7H61V0h1.1v3.5c0,0.1,0,0.2,0,0.4c0,0.1,0.1,0.3,0.1,0.4c0.1,0.1,0.1,0.3,0.3,0.4c0.1,0.1,0.2,0.2,0.3,0.2
						C62.9,4.9,63,5,63.2,5c0.2,0,0.4,0,0.6-0.1c0.1-0.1,0.2-0.2,0.3-0.3c0.1-0.1,0.1-0.3,0.1-0.4c0-0.2,0-0.3,0-0.5V0
						C64.2,0,65.3,0,65.3,0z M58.6,1.7c0-0.1,0-0.3-0.1-0.4c-0.1-0.1-0.1-0.2-0.3-0.3C58.1,1,58,0.9,57.9,0.9
						c-0.1,0-0.2-0.1-0.2-0.1c-0.1,0-0.1,0-0.2,0c-0.2,0-0.4,0-0.5,0.1c-0.1,0.1-0.3,0.2-0.4,0.3c-0.1,0.1-0.1,0.3-0.1,0.5
						c0,0.1,0,0.1,0,0.2c0,0.1,0,0.1,0,0.2c0.1,0.2,0.1,0.3,0.3,0.4c0.1,0.1,0.3,0.2,0.5,0.2c0.2,0.1,0.4,0.1,0.7,0.1
						c0.1,0,0.2,0,0.3,0c0.1,0,0.2,0,0.2,0c0.1,0,0.1,0,0.1,0V1.7z M59.7,0v3.7c0,0.2,0,0.5,0,0.6c0,0.2-0.1,0.3-0.1,0.5
						c-0.1,0.1-0.2,0.3-0.3,0.4c-0.2,0.2-0.4,0.3-0.7,0.4c-0.3,0.1-0.6,0.2-1,0.2c-0.2,0-0.5,0-0.6-0.1c-0.2,0-0.3-0.1-0.5-0.1
						c-0.1,0-0.2-0.1-0.3-0.1C56,5.5,56,5.5,56,5.4l-0.2-1c0,0,0,0,0.1,0.1C56,4.6,56,4.6,56.2,4.7c0.1,0.1,0.3,0.1,0.5,0.2
						C56.8,4.9,57,5,57.3,5c0.3,0,0.5,0,0.7-0.1c0.2-0.1,0.3-0.2,0.4-0.3c0.1-0.1,0.1-0.2,0.2-0.3c0-0.1,0-0.2,0-0.3
						c0-0.1,0-0.2,0-0.2V3.5c0,0,0,0-0.1,0c-0.1,0-0.1,0-0.2,0c-0.1,0-0.2,0-0.3,0c-0.2,0-0.4,0-0.7,0c-0.2,0-0.4-0.1-0.6-0.1
						c-0.2-0.1-0.4-0.2-0.6-0.3c-0.2-0.1-0.3-0.3-0.4-0.4c-0.1-0.1-0.2-0.3-0.2-0.4c0-0.1-0.1-0.3-0.1-0.4c0-0.1,0-0.2,0-0.3
						c0-0.1,0-0.2,0-0.4c0-0.1,0.1-0.3,0.1-0.4c0.1-0.1,0.2-0.3,0.3-0.4c0.1-0.1,0.3-0.2,0.5-0.3c0.2-0.1,0.4-0.1,0.7-0.1
						c0.3,0,0.5,0,0.7,0.1c0.2,0.1,0.4,0.2,0.6,0.3c0.2,0.1,0.3,0.3,0.4,0.4V0.4c0-0.1,0-0.1,0-0.2c0-0.1,0-0.1,0.1-0.1
						c0,0,0.1-0.1,0.1-0.1c0,0,0.1,0,0.1,0c0,0,0.1,0,0.1,0H59.7z M94.3,7.7h-1.1V0h1.1V7.7z M90.7,1.7c0-0.1,0-0.3-0.1-0.4
						c-0.1-0.1-0.1-0.2-0.3-0.3C90.3,1,90.1,0.9,90,0.9c-0.1,0-0.2-0.1-0.2-0.1c-0.1,0-0.1,0-0.2,0c-0.2,0-0.4,0-0.5,0.1
						c-0.1,0.1-0.3,0.2-0.4,0.3c-0.1,0.1-0.1,0.3-0.1,0.5c0,0.1,0,0.1,0,0.2c0,0.1,0,0.1,0,0.2c0.1,0.2,0.1,0.3,0.3,0.4
						c0.1,0.1,0.3,0.2,0.5,0.2c0.2,0.1,0.4,0.1,0.7,0.1c0.1,0,0.2,0,0.3,0c0.1,0,0.2,0,0.2,0c0.1,0,0.1,0,0.1,0L90.7,1.7L90.7,1.7z
						 M91.8,0v3.7c0,0.2,0,0.5,0,0.6c0,0.2-0.1,0.3-0.1,0.5c-0.1,0.1-0.2,0.3-0.3,0.4c-0.2,0.2-0.4,0.3-0.7,0.4s-0.6,0.2-1,0.2
						c-0.2,0-0.5,0-0.6-0.1c-0.2,0-0.3-0.1-0.5-0.1c-0.1,0-0.2-0.1-0.3-0.1c-0.1,0-0.1-0.1-0.1-0.1l-0.2-1c0,0,0,0,0.1,0.1
						c0.1,0.1,0.2,0.1,0.3,0.2c0.1,0.1,0.3,0.1,0.5,0.2C89,4.9,89.2,5,89.4,5c0.3,0,0.5,0,0.7-0.1c0.2-0.1,0.3-0.2,0.4-0.3
						c0.1-0.1,0.1-0.2,0.2-0.3c0-0.1,0-0.2,0-0.3s0-0.2,0-0.2V3.5c0,0,0,0-0.1,0c-0.1,0-0.1,0-0.2,0c-0.1,0-0.2,0-0.3,0
						c-0.2,0-0.4,0-0.7,0c-0.2,0-0.4-0.1-0.6-0.1c-0.2-0.1-0.4-0.2-0.6-0.3c-0.2-0.1-0.3-0.3-0.4-0.4c-0.1-0.1-0.2-0.3-0.2-0.4
						c0-0.1-0.1-0.3-0.1-0.4c0-0.1,0-0.2,0-0.3c0-0.1,0-0.2,0-0.4c0-0.1,0.1-0.3,0.1-0.4c0.1-0.1,0.2-0.3,0.3-0.4
						c0.1-0.1,0.3-0.2,0.5-0.3c0.2-0.1,0.4-0.1,0.7-0.1c0.3,0,0.5,0,0.8,0.1c0.2,0.1,0.4,0.2,0.6,0.3c0.2,0.1,0.3,0.3,0.4,0.4V0.4
						c0-0.1,0-0.1,0-0.2c0-0.1,0-0.1,0.1-0.1C90.9,0.1,91,0,91,0c0,0,0.1,0,0.1,0s0.1,0,0.1,0H91.8z M86.4,5.7h-1.1V0h1.1V5.7z
						 M86.4,7.1c0,0.1,0,0.2-0.1,0.3c-0.1,0.1-0.1,0.1-0.2,0.2c-0.1,0-0.2,0.1-0.3,0.1c-0.1,0-0.2,0-0.3-0.1
						c-0.1-0.1-0.2-0.1-0.2-0.2c-0.1-0.1-0.1-0.2-0.1-0.3c0-0.1,0-0.2,0.1-0.3c0-0.1,0.1-0.2,0.2-0.2c0.1-0.1,0.2-0.1,0.4-0.1
						c0.1,0,0.2,0,0.3,0.1c0.1,0.1,0.2,0.1,0.2,0.2C86.4,6.9,86.4,7,86.4,7.1 M84.2,1.6c0,0.3-0.1,0.5-0.2,0.7
						c-0.1,0.2-0.3,0.4-0.5,0.5s-0.4,0.3-0.7,0.4c-0.1,0.1-0.3,0.1-0.4,0.2c-0.1,0.1-0.3,0.1-0.4,0.2s-0.2,0.2-0.3,0.3
						c-0.1,0.1-0.1,0.2-0.1,0.3c0,0.2,0.1,0.4,0.2,0.5c0.2,0.1,0.4,0.2,0.7,0.2c0.2,0,0.4,0,0.6-0.1c0.2,0,0.3-0.1,0.4-0.2
						c0.1-0.1,0.2-0.1,0.3-0.2s0.1-0.1,0.1-0.1l-0.2,0.9c0,0,0,0-0.1,0.1c-0.1,0-0.1,0.1-0.2,0.1c-0.1,0-0.3,0.1-0.4,0.1
						s-0.4,0-0.7,0c-0.2,0-0.5,0-0.7-0.1c-0.2-0.1-0.4-0.2-0.6-0.3c-0.2-0.1-0.3-0.3-0.4-0.5c-0.1-0.2-0.1-0.4-0.1-0.7
						c0-0.3,0-0.5,0.1-0.7c0.1-0.2,0.2-0.3,0.4-0.5c0.1-0.1,0.3-0.2,0.5-0.3c0.2-0.1,0.4-0.2,0.5-0.2c0.2-0.1,0.3-0.2,0.5-0.2
						c0.1-0.1,0.3-0.2,0.4-0.3C82.9,1.9,83,1.7,83,1.6c0-0.3-0.1-0.4-0.2-0.6c-0.2-0.1-0.4-0.2-0.7-0.2c-0.2,0-0.4,0-0.6,0.1
						C81.2,1,81.1,1,80.9,1.1c-0.2,0.1-0.3,0.1-0.4,0.2c-0.1,0.1-0.1,0.1-0.1,0.1l0.2-1.1c0.1,0,0.2-0.1,0.3-0.2C81,0,81.2,0,81.4,0
						c0.2,0,0.5-0.1,0.8-0.1c0.3,0,0.6,0,0.8,0.1c0.3,0.1,0.5,0.2,0.7,0.4c0.2,0.1,0.3,0.3,0.4,0.5C84.1,1.1,84.2,1.3,84.2,1.6
						 M78.5,2.8c0-0.4,0-0.8-0.1-1.1c-0.1-0.3-0.2-0.5-0.4-0.7c-0.2-0.2-0.4-0.3-0.7-0.3c-0.3,0-0.6,0.1-0.8,0.2
						c-0.2,0.1-0.3,0.4-0.4,0.7S76,2.3,76,2.8c0,0.3,0,0.6,0,0.8c0,0.3,0.1,0.5,0.2,0.7c0.1,0.2,0.2,0.4,0.4,0.5
						C76.8,4.9,77,4.9,77.3,5c0.2,0,0.4-0.1,0.5-0.1c0.1-0.1,0.3-0.2,0.4-0.3c0.1-0.1,0.2-0.3,0.2-0.5c0-0.2,0.1-0.4,0.1-0.6
						C78.5,3.2,78.5,3,78.5,2.8 M79.6,2.8c0,0.3,0,0.6-0.1,0.9c0,0.3-0.1,0.6-0.2,0.8c-0.1,0.2-0.3,0.5-0.4,0.7
						c-0.2,0.2-0.4,0.3-0.7,0.4c-0.3,0.1-0.6,0.2-1,0.2c-0.4,0-0.7-0.1-1-0.2c-0.3-0.1-0.5-0.3-0.7-0.4c-0.2-0.2-0.3-0.4-0.5-0.7
						C75,4.3,74.9,4,74.9,3.7c-0.1-0.3-0.1-0.6-0.1-0.9c0-0.4,0-0.8,0.1-1.2C75,1.3,75.1,1,75.3,0.7s0.4-0.5,0.8-0.6
						c0.3-0.1,0.7-0.2,1.2-0.2c0.4,0,0.7,0.1,1,0.2c0.3,0.1,0.5,0.4,0.8,0.6c0.2,0.3,0.4,0.6,0.5,0.9C79.6,2,79.6,2.4,79.6,2.8
						 M74,2.2c0,0.2,0,0.5-0.1,0.7c-0.1,0.2-0.2,0.4-0.3,0.5c-0.1,0.2-0.3,0.3-0.5,0.5c-0.2,0.1-0.4,0.2-0.6,0.3
						c-0.2,0.1-0.4,0.2-0.6,0.3c-0.2,0.1-0.4,0.2-0.6,0.3c-0.2,0.1-0.3,0.2-0.4,0.3c-0.1,0.1-0.1,0.1-0.2,0.2c0,0.1-0.1,0.1-0.1,0.2
						c0,0.1,0,0.1,0,0.2c0,0.1,0,0.3,0.1,0.4c0.1,0.1,0.2,0.3,0.3,0.4c0.1,0.1,0.2,0.1,0.4,0.2c0.2,0,0.4,0.1,0.6,0.1
						c0.1,0,0.3,0,0.4,0c0.1,0,0.2,0,0.4-0.1c0.2,0,0.3-0.1,0.4-0.1s0.2-0.1,0.3-0.1c0.1,0,0.1-0.1,0.1-0.1l-0.3,1.1
						c0,0,0,0-0.1,0.1c-0.1,0-0.2,0.1-0.3,0.1c-0.1,0-0.3,0.1-0.5,0.1c-0.2,0-0.5,0-0.7,0c-0.2,0-0.4,0-0.7-0.1
						c-0.2,0-0.4-0.1-0.6-0.2c-0.2-0.1-0.4-0.2-0.6-0.4c-0.2-0.1-0.3-0.3-0.4-0.4c-0.1-0.2-0.2-0.3-0.2-0.5c0-0.2-0.1-0.3-0.1-0.5
						c0-0.2,0-0.4,0.1-0.5c0-0.2,0.1-0.3,0.2-0.5c0.1-0.2,0.2-0.3,0.4-0.4C70,4.2,70.2,4,70.4,3.9c0.2-0.1,0.4-0.2,0.6-0.3
						c0.2-0.1,0.4-0.2,0.6-0.3C71.8,3.3,72,3.1,72.1,3c0.1-0.1,0.2-0.2,0.3-0.3c0.1-0.1,0.1-0.2,0.2-0.3c0-0.1,0.1-0.2,0.1-0.4
						c0-0.2,0-0.4-0.1-0.5c-0.1-0.1-0.2-0.3-0.4-0.4C72.1,1.1,72,1.1,71.8,1C71.7,1,71.6,1,71.5,1c-0.1,0-0.2,0-0.3,0
						c-0.1,0-0.2,0-0.2,0c-0.1,0-0.2,0-0.4,0c-0.1,0-0.2,0-0.3,0.1c-0.2,0-0.4,0.1-0.6,0.1c-0.2,0-0.3,0.1-0.4,0.1
						c-0.1,0-0.1,0-0.1,0l0.3-1.1c0,0,0,0,0.1-0.1c0.1,0,0.2-0.1,0.3-0.1C70,0,70.2,0,70.4-0.1c0.2,0,0.5,0,0.8-0.1
						c0.2,0,0.5,0,0.7,0.1c0.3,0,0.5,0.1,0.7,0.2c0.2,0.1,0.5,0.2,0.7,0.4c0.2,0.2,0.4,0.4,0.5,0.7C73.9,1.5,74,1.8,74,2.2"/>
				</g>
				<g id="g13954" transform="translate(28.9077,40.6811)">
					<path id="path13956" class="st1" d="M0,0c0.5,3.3,3.7,4.1,4,7.1C2.6,6.4,0.8,6.6-0.5,7.7C-1.9,5.1-2,2.6,0,0"/>
				</g>
				<g id="g13958" transform="translate(35.1967,50.106)">
					<path id="path13960" class="st1" d="M0,0c1.7,0.2,3.1,1.4,4.5,2.6c1.9,1.6,4.5,3.6,7,3.4C7,7.3,2.2,6.3-0.8,4.5
						C0.3,3.3,0.6,1.5,0,0"/>
				</g>
				<g id="g13962" transform="translate(56.5698,39.6677)">
					<path id="path13964" class="st1" d="M0,0c-0.5-3.3-3.7-4.1-4-7.1c1.5,0.7,3.2,0.4,4.5-0.6C1.9-5.1,2-2.6,0,0"/>
				</g>
				<g id="g13966" transform="translate(50.2809,30.2431)">
					<path id="path13968" class="st1" d="M0,0c-1.7-0.2-3.1-1.4-4.5-2.6c-1.9-1.6-4.5-3.6-7-3.4C-7-7.3-2.2-6.3,0.8-4.5
						C-0.3-3.3-0.6-1.5,0,0"/>
				</g>
				<g id="g13970" transform="translate(43.246,54.0057)">
					<path id="path13972" class="st0" d="M0,0c3.3-0.5,4.1-3.7,7.1-4C6.4-2.6,6.6-0.8,7.7,0.5C5.1,1.9,2.6,2,0,0"/>
				</g>
				<g id="g13974" transform="translate(52.6699,47.7169)">
					<path id="path13976" class="st0" d="M0,0c0.2-1.7,1.4-3.1,2.6-4.5c1.6-1.9,3.6-4.5,3.4-7C7.3-7,6.3-2.2,4.5,0.8
						C3.3-0.3,1.5-0.6,0,0"/>
				</g>
				<g id="g13978" transform="translate(42.2318,26.3431)">
					<path id="path13980" class="st0" d="M0,0c-3.3,0.5-4.1,3.7-7.1,4c0.7-1.5,0.4-3.2-0.6-4.5C-5.1-1.9-2.6-2,0,0"/>
				</g>
				<g id="g13982" transform="translate(32.8078,32.6321)">
					<path id="path13984" class="st0" d="M0,0c-0.2,1.7-1.4,3.1-2.6,4.5c-1.6,1.9-3.6,4.5-3.4,7C-7.3,7-6.3,2.2-4.5-0.8
						C-3.3,0.3-1.5,0.6,0,0"/>
				</g>
				<g id="g13986" transform="translate(56.8502,54.2868)">
					<path id="path13988" class="st0" d="M0,0c1.4-1.4,1.4-3.6,0-5c-1.4-1.4-3.6-1.4-5,0s-1.4,3.6,0,5S-1.4,1.4,0,0"/>
				</g>
				<g id="g13990" transform="translate(33.6274,31.0624)">
					<path id="path13992" class="st0" d="M0,0c1.4-1.4,1.4-3.6,0-5c-1.4-1.4-3.6-1.4-5,0c-1.4,1.4-1.4,3.6,0,5C-3.6,1.4-1.4,1.4,0,0
						"/>
				</g>
				<g id="g13994" transform="translate(56.8502,26.0624)">
					<path id="path13996" class="st1" d="M0,0c-1.4-1.4-3.6-1.4-5,0c-1.4,1.4-1.4,3.6,0,5s3.6,1.4,5,0C1.4,3.6,1.4,1.4,0,0"/>
				</g>
				<g id="g13998" transform="translate(33.6274,49.2856)">
					<path id="path14000" class="st1" d="M0,0c-1.4-1.4-3.6-1.4-5,0c-1.4,1.4-1.4,3.6,0,5c1.4,1.4,3.6,1.4,5,0C1.4,3.6,1.4,1.4,0,0"
						/>
				</g>
				<g id="g14002" transform="translate(41.2332,37.1942)">
					<path id="path14004" class="st0" d="M0,0v-1.2h3v2.7L5.6-1c0.2-0.2,0.2-0.3,0.2-0.5v-0.9c0,0,0,0,0,0v0c0,0,0,0,0,0l0,0
						c0,0,0,0,0,0l0,0c0,0,0,0,0,0l0,0c0,0,0,0,0,0l0,0c0,0,0,0,0,0l0,0c0,0,0,0,0,0l0,0c0,0,0,0,0,0l0,0c0,0,0,0,0,0l0,0
						c0,0,0,0,0,0l0,0c0,0,0,0,0,0l0,0c0,0,0,0,0,0l0,0c0,0,0,0,0,0l0,0c0,0,0,0,0,0l0,0c0,0,0,0,0,0l0,0c0,0,0,0,0,0l0,0
						c0,0,0,0,0,0l0,0c0,0,0,0,0,0l0,0c0,0,0,0,0,0l0,0c0,0,0,0,0,0l0,0c0,0,0,0,0,0l0,0c0,0,0,0,0,0l0,0c0,0,0,0,0,0l0,0
						c0,0,0,0,0,0l0,0c0,0,0,0,0,0l0,0c0,0,0,0,0,0l0,0c0,0,0,0,0,0l0,0c0,0,0,0,0,0c0,0,0,0,0,0c0,0,0,0,0,0l0,0c0,0,0,0,0,0
						c0,0,0,0,0,0c0,0,0,0,0,0c0,0,0,0,0,0c0,0,0,0,0,0l0,0l0,0c0,0,0,0,0,0h0c0,0,0,0,0,0l0,0c0,0,0,0,0,0c0,0,0,0,0,0l0,0l0,0
						c0,0,0,0,0,0l0,0c0,0,0,0,0,0l0,0c0,0,0,0,0,0c0,0,0,0,0,0c0,0,0,0,0,0l0,0c0,0,0,0,0,0l0,0c0,0,0,0,0,0l0,0c0,0,0,0,0,0l0,0
						c0,0,0,0,0,0l0,0c0,0,0,0,0,0l0,0c0,0,0,0,0,0l0,0l0,0c0,0,0,0,0,0C4.6-4,4.4-4,4.2-4H0v-1.2l-2.7,2.6L0,0z M3,4.5h2.7v-3H4.5
						l2.6-2.7l2.6,2.7H8.5v4.2c0,0.2-0.1,0.5-0.2,0.7c0,0,0,0,0,0l0,0l0,0c0,0,0,0,0,0l0,0c0,0,0,0,0,0l0,0c0,0,0,0,0,0l0,0
						c0,0,0,0,0,0l0,0c0,0,0,0,0,0l0,0c0,0,0,0,0,0l0,0c0,0,0,0,0,0c0,0,0,0,0,0c0,0,0,0,0,0l0,0c0,0,0,0,0,0l0,0c0,0,0,0,0,0l0,0
						l0,0c0,0,0,0,0,0c0,0,0,0,0,0v0c0,0,0,0,0,0l0,0c0,0,0,0,0,0l0,0l0,0c0,0,0,0,0,0c0,0,0,0,0,0c0,0,0,0,0,0c0,0,0,0,0,0
						c0,0,0,0,0,0l0,0c0,0,0,0,0,0c0,0,0,0,0,0c0,0,0,0,0,0l0,0c0,0,0,0,0,0l0,0c0,0,0,0,0,0l0,0c0,0,0,0,0,0l0,0c0,0,0,0,0,0l0,0
						c0,0,0,0,0,0l0,0c0,0,0,0,0,0l0,0c0,0,0,0,0,0l0,0c0,0,0,0,0,0l0,0c0,0,0,0,0,0l0,0c0,0,0,0,0,0l0,0c0,0,0,0,0,0l0,0
						c0,0,0,0,0,0l0,0c0,0,0,0,0,0l0,0c0,0,0,0,0,0l0,0c0,0,0,0,0,0l0,0c0,0,0,0,0,0h0c0,0,0,0,0,0l0,0c0,0,0,0,0,0l0,0c0,0,0,0,0,0
						l0,0c0,0,0,0,0,0l0,0c0,0,0,0,0,0l0,0c0,0,0,0,0,0l0,0c0,0,0,0,0,0l0,0c0,0,0,0,0,0h0c0,0,0,0,0,0l0,0c0,0,0,0,0,0h0
						c0,0,0,0,0,0H6c-0.2,0-0.3,0-0.5-0.2L3,4.5z M0,1.5h-2.7v3h1.2l-2.6,2.7l-2.6-2.7h1.2V0.3c0-0.2,0.1-0.5,0.2-0.7c0,0,0,0,0,0
						l0,0l0,0c0,0,0,0,0,0l0,0c0,0,0,0,0,0l0,0c0,0,0,0,0,0l0,0c0,0,0,0,0,0l0,0c0,0,0,0,0,0l0,0c0,0,0,0,0,0l0,0c0,0,0,0,0,0
						c0,0,0,0,0,0c0,0,0,0,0,0l0,0c0,0,0,0,0,0l0,0c0,0,0,0,0,0l0,0l0,0c0,0,0,0,0,0c0,0,0,0,0,0l0,0c0,0,0,0,0,0c0,0,0,0,0,0l0,0
						l0,0c0,0,0,0,0,0c0,0,0,0,0,0c0,0,0,0,0,0c0,0,0,0,0,0c0,0,0,0,0,0l0,0c0,0,0,0,0,0c0,0,0,0,0,0c0,0,0,0,0,0l0,0c0,0,0,0,0,0
						l0,0c0,0,0,0,0,0l0,0c0,0,0,0,0,0l0,0c0,0,0,0,0,0l0,0c0,0,0,0,0,0l0,0c0,0,0,0,0,0l0,0c0,0,0,0,0,0l0,0c0,0,0,0,0,0l0,0
						c0,0,0,0,0,0l0,0c0,0,0,0,0,0l0,0c0,0,0,0,0,0l0,0c0,0,0,0,0,0l0,0c0,0,0,0,0,0l0,0c0,0,0,0,0,0l0,0c0,0,0,0,0,0l0,0
						c0,0,0,0,0,0h0c0,0,0,0,0,0l0,0c0,0,0,0,0,0l0,0c0,0,0,0,0,0l0,0c0,0,0,0,0,0l0,0c0,0,0,0,0,0l0,0c0,0,0,0,0,0l0,0c0,0,0,0,0,0
						l0,0c0,0,0,0,0,0h0c0,0,0,0,0,0h0c0,0,0,0,0,0h0h0H-3c0.2,0,0.3,0,0.5,0.2L0,1.5z M0,4.5L-2.6,7c-0.2,0.2-0.2,0.3-0.2,0.5v0.9
						c0,0,0,0,0,0v0c0,0,0,0,0,0v0c0,0,0,0,0,0l0,0c0,0,0,0,0,0l0,0c0,0,0,0,0,0l0,0c0,0,0,0,0,0l0,0c0,0,0,0,0,0l0,0c0,0,0,0,0,0
						l0,0c0,0,0,0,0,0l0,0c0,0,0,0,0,0l0,0c0,0,0,0,0,0l0,0c0,0,0,0,0,0l0,0c0,0,0,0,0,0l0,0c0,0,0,0,0,0l0,0c0,0,0,0,0,0l0,0
						c0,0,0,0,0,0l0,0c0,0,0,0,0,0l0,0c0,0,0,0,0,0l0,0c0,0,0,0,0,0l0,0c0,0,0,0,0,0l0,0c0,0,0,0,0,0l0,0c0,0,0,0,0,0l0,0
						c0,0,0,0,0,0l0,0c0,0,0,0,0,0l0,0c0,0,0,0,0,0l0,0c0,0,0,0,0,0l0,0c0,0,0,0,0,0l0,0c0,0,0,0,0,0c0,0,0,0,0,0c0,0,0,0,0,0l0,0
						c0,0,0,0,0,0c0,0,0,0,0,0c0,0,0,0,0,0c0,0,0,0,0,0c0,0,0,0,0,0l0,0l0,0c0,0,0,0,0,0l0,0c0,0,0,0,0,0v0c0,0,0,0,0,0c0,0,0,0,0,0
						l0,0l0,0c0,0,0,0,0,0l0,0c0,0,0,0,0,0l0,0c0,0,0,0,0,0c0,0,0,0,0,0c0,0,0,0,0,0l0,0c0,0,0,0,0,0l0,0c0,0,0,0,0,0l0,0
						c0,0,0,0,0,0l0,0c0,0,0,0,0,0l0,0c0,0,0,0,0,0l0,0c0,0,0,0,0,0l0,0l0,0c0,0,0,0,0,0C-1.6,9.9-1.4,10-1.2,10H3v1.2l2.7-2.6L3,6
						v1.2H0V4.5z"/>
				</g>
			</g>
		</g>
	</g>
	<g id="g14006" transform="matrix(1.25,0,0,-1.25,330.49224,1154.7649)">
		<path id="path14008" class="st2" d="M0,0v2.7h-2.7v3H0v2.7h3V5.7h2.7v-3H3V0L0,0z"/>
	</g>
</g>
</svg>
