<svg id="Layer_1" data-name="Layer 1" xmlns="http://www.w3.org/2000/svg" viewBox="0 0 1515 536.18"><defs><style>.cls-1{fill:#c1272d;}.cls-2{fill:#f15a24;}.cls-3{fill:#f7931e;}</style></defs><title>Logo</title><path class="cls-1" d="M79,60.63q15.41-1.93,31.61-3.47T145,55.61q29.69,0,53.39,7.71t40.29,22.17A95.94,95.94,0,0,1,264.07,121q8.87,21,8.87,47.61,0,41.63-13.11,74t-36.62,54.36q-23.52,22-56.1,33.54T96,342q-22,0-36.24-1.35t-29.3-3.27ZM94.83,292.7a124.29,124.29,0,0,0,19.28,1.15q22,0,39.9-8.86a94.13,94.13,0,0,0,31-24.68q13.1-15.8,20.24-37.77T212.41,174q0-17.73-4.82-31t-13.1-21.78a52.88,52.88,0,0,0-19.86-12.72A71.05,71.05,0,0,0,150,104.19q-8.1,0-12.34.19t-9.63,1Z"/><path class="cls-1" d="M329.6,179.75H305.31a13.88,13.88,0,0,0-.19-2.32,16.46,16.46,0,0,1-.19-2.7A86.36,86.36,0,0,1,306.85,156a107.56,107.56,0,0,1,5.79-17.93h77.87L355.43,337.42a178.57,178.57,0,0,1-27.76,2.31,158,158,0,0,1-25.83-2.31Zm11.18-75.18a127.64,127.64,0,0,1,1.73-25.63,169.12,169.12,0,0,1,6.75-25.64,104.94,104.94,0,0,1,14.65-2.12q7.71-.59,13.88-.58t13.68.58a94,94,0,0,1,14.07,2.12,140.07,140.07,0,0,1-2.31,25.83,170.11,170.11,0,0,1-6.94,25.44,126.06,126.06,0,0,1-14.46,1.54q-7.51.39-13.68.39-5.79,0-13.49-.39A102.78,102.78,0,0,1,340.78,104.57Z"/><path class="cls-1" d="M533.53,300a101.81,101.81,0,0,1-28.91,29.88Q486.88,342,463.75,342q-25.44,0-38.35-16.38t-12.92-43a179.78,179.78,0,0,1,8.67-55.7A143.74,143.74,0,0,1,447,179.36,126.78,126.78,0,0,1,489.77,146q25.63-12.51,59.56-12.53,33.54,0,62.46,8.87L577.86,333.17q-5.4,30.84-19.08,49.93T527,413a117.39,117.39,0,0,1-38.36,14.65,209.07,209.07,0,0,1-39.13,3.86,186.92,186.92,0,0,1-32-2.32,149.24,149.24,0,0,1-20-4.62q.38-6.56,1-12a86.92,86.92,0,0,1,1.74-10.41,73.35,73.35,0,0,1,3.08-10,83.92,83.92,0,0,1,5.4-11.18,128.55,128.55,0,0,0,16.77,3.66,141.66,141.66,0,0,0,22.93,1.73,154.15,154.15,0,0,0,22.55-1.73,66.19,66.19,0,0,0,22.75-7.9q11-6.18,20-18.51t14.07-33.92Zm17.73-120.66a43.22,43.22,0,0,0-6.74-1q-3.28-.19-6.37-.2-18.49,0-31.61,9.26a75.76,75.76,0,0,0-21.39,22.93,108.13,108.13,0,0,0-12.34,29.69,119.53,119.53,0,0,0-4.05,29.1q0,13.88,4.82,21.4T488,298.09q18.51,0,34.31-22.55t23.13-63.41Z"/><path class="cls-1" d="M670,179.75H645.71a15,15,0,0,0-.19-2.32,15.34,15.34,0,0,1-.2-2.7A85.73,85.73,0,0,1,647.25,156,106.57,106.57,0,0,1,653,138.11h77.88L695.82,337.42a178.54,178.54,0,0,1-27.75,2.31,157.89,157.89,0,0,1-25.83-2.31Zm11.18-75.18a126.91,126.91,0,0,1,1.73-25.63,168,168,0,0,1,6.75-25.64,104.51,104.51,0,0,1,14.65-2.12q7.7-.59,13.87-.58t13.69.58a94,94,0,0,1,14.07,2.12,140.07,140.07,0,0,1-2.31,25.83,172.54,172.54,0,0,1-6.94,25.44,126.55,126.55,0,0,1-14.46,1.54c-5,.26-9.58.39-13.68.39q-5.79,0-13.5-.39A102.62,102.62,0,0,1,681.18,104.57Z"/><path class="cls-1" d="M804.53,59.47c5.65-.51,10.93-1,15.81-1.54s9.7-1,14.46-1.35,9.5-.64,14.26-.77,10-.2,15.61-.2a206.67,206.67,0,0,1,34.7,3.09,98.94,98.94,0,0,1,33.15,11.76,70.88,70.88,0,0,1,24.87,24.47q9.83,15.82,9.83,40.87a120.93,120.93,0,0,1-8.29,45.1,101.65,101.65,0,0,1-24.1,36q-15.81,15.23-38.55,23.7t-51.65,8.48c-4.12,0-7.46,0-10-.19s-5-.32-7.32-.58l-15.42,89.06c-5.15.77-10,1.28-14.65,1.54s-9.13.38-13.49.38q-5.79,0-12.92-.38t-15.22-1.54Zm31.23,141.86q5,1.15,17.35,1.16A61.66,61.66,0,0,0,872,199.41,48.33,48.33,0,0,0,889.73,189,55.21,55.21,0,0,0,903,169.72q5.21-11.94,5.2-30.07,0-11.18-3.66-18.5a29,29,0,0,0-9.64-11.37,37.09,37.09,0,0,0-13.3-5.59,69,69,0,0,0-14.26-1.55h-5.78a70.83,70.83,0,0,0-8.48.78Z"/><path class="cls-1" d="M1012.7,130.4q4.24-20.43,6-35.66a234.38,234.38,0,0,0,1.73-25.63q0-4.24-.19-7.14t-.58-6.36a142.4,142.4,0,0,1,15-1.73q8.47-.59,14.65-.58A147.23,147.23,0,0,1,1074,55.61a47.23,47.23,0,0,1,1.93,14.65,127.71,127.71,0,0,1-1.55,18.51q-1.55,10.41-3.85,22.74l-29.69,155a64.66,64.66,0,0,0-1.15,10.8q0,6.17,1.73,9.63a14.3,14.3,0,0,0,4.44,5.4,14.51,14.51,0,0,0,6.16,2.51,42.86,42.86,0,0,0,6.94.58,53.93,53.93,0,0,0,5.79-.58,43.34,43.34,0,0,0,7.71-1.74,132.21,132.21,0,0,1,3.27,14.27,91.39,91.39,0,0,1,1.35,15.8c0,2.06-.06,4-.19,5.78s-.33,3.73-.58,5.79a67.79,67.79,0,0,1-15,3.66,142.18,142.18,0,0,1-20.44,1.35q-26.22,0-41.24-12.92t-15-40.67a88,88,0,0,1,.77-11.37q.76-6,1.93-12.53Z"/><path class="cls-1" d="M1279.85,251.06q-4.24,24.29-6.17,43t-1.92,29.1v7.13a57,57,0,0,0,.38,6.36,130.24,130.24,0,0,1-49,0q-.78-3.08-1.54-7.32a76.54,76.54,0,0,1-.77-12.72v-7.33a58.32,58.32,0,0,1,.77-8.86,101.26,101.26,0,0,1-28.53,29.68q-17.34,11.94-40.47,12-25.46,0-38.17-16.19t-12.72-42.79a181.6,181.6,0,0,1,8.67-55.9,143.48,143.48,0,0,1,25.83-47.8,127.24,127.24,0,0,1,42.6-33.35q25.44-12.51,59.37-12.53a203.29,203.29,0,0,1,31.61,2.32,224.93,224.93,0,0,1,28.91,6.55Zm-39.7-71.7a43.51,43.51,0,0,0-6.75-1q-3.29-.19-6.36-.2-18.51,0-31.42,9.26a78.25,78.25,0,0,0-21.4,23.12,103.36,103.36,0,0,0-12.33,29.88,125.32,125.32,0,0,0-3.86,29.11q0,28.53,18.89,28.52,18.51,0,34.31-22.55t23.13-63.41Z"/><path class="cls-1" d="M1328.81,138.11a185.36,185.36,0,0,1,29.68-2.31,159.78,159.78,0,0,1,27,2.31l10.4,174.25q15-31.61,25.25-54.94t17.16-40.09q6.95-16.77,10.6-28t5.59-18.89a80,80,0,0,0,2.31-12.91q.39-5.21.39-9.83a31.5,31.5,0,0,0-.39-5.78c-.26-1.29-.52-2.57-.77-3.86q6.56-1.16,13.88-1.73t15-.58a171.54,171.54,0,0,1,28.92,2.31,25.66,25.66,0,0,1,1.15,8.1,67.51,67.51,0,0,1-1.73,14.45q-1.74,7.91-4.24,15.81t-5.4,15.23q-2.89,7.32-5.2,13.1-10,23.91-28,61.1t-46.07,94.26q-12,23.89-23.51,38.16t-23.52,21.59a69,69,0,0,1-23.9,9.45,139.19,139.19,0,0,1-24.29,2.12,86.64,86.64,0,0,1-15.23-1.16,131.26,131.26,0,0,1-14.07-3.47,136.53,136.53,0,0,1,3.09-21.2,68.64,68.64,0,0,1,7.71-19.28,39.21,39.21,0,0,0,8.29,2.51,43.3,43.3,0,0,0,8.28,1,71.43,71.43,0,0,0,10.8-1q6.17-1,13.3-5.78t15-14.65q7.9-9.84,16-27.18l1.93-4.24a67.1,67.1,0,0,1-9.25,1q-5,.19-10.41.2h-8.87a45.74,45.74,0,0,1-8.86-.77Z"/><path class="cls-1" d="M834.48,404.73a85.65,85.65,0,0,1-5.73,11.81l-1.59,2.78-3-1.07a63.84,63.84,0,0,0-11.54-3.07,67.84,67.84,0,0,0-9.44-.72c-8.5,0-15.84,1.7-21.83,5.05a45.08,45.08,0,0,0-14.92,13.27,58.43,58.43,0,0,0-8.7,18.9,85.08,85.08,0,0,0-2.86,21.72c0,9.36,2.44,16,7.44,20.38s12.67,6.69,22.52,6.69c2,0,3.82-.06,5.5-.18s3.4-.3,5.09-.54a43.83,43.83,0,0,0,5.29-1.14q3.06-.86,7-2l3.2-.94,1.39,3a59.46,59.46,0,0,1,3.86,11.85,87.38,87.38,0,0,1,1.84,12.58l.2,2.85-2.68,1A67.7,67.7,0,0,1,805.15,530a104.73,104.73,0,0,1-10.38,1.58c-3.31.33-6.42.56-9.28.69s-5.2.19-6.87.19c-10.41,0-19.67-1.35-27.53-4A55.55,55.55,0,0,1,731,516.78a47.74,47.74,0,0,1-12.22-18,63.52,63.52,0,0,1-4-22.86A104,104,0,0,1,721,439.82a92,92,0,0,1,17.54-29.58,82.08,82.08,0,0,1,27.36-20,84.52,84.52,0,0,1,35.4-7.32A130.77,130.77,0,0,1,819,384a65.51,65.51,0,0,1,16.54,4.76l2.91,1.24-.65,3.09A78.39,78.39,0,0,1,834.48,404.73Zm129.84,11.1a75.66,75.66,0,0,1,3.27,23,122.34,122.34,0,0,1-2,21.77,105.43,105.43,0,0,1-6.31,21.5,98.15,98.15,0,0,1-10.84,19.47,76.17,76.17,0,0,1-15.52,16.08,71.59,71.59,0,0,1-20.37,10.8,77.66,77.66,0,0,1-25.27,3.93c-18.5,0-32.46-5-41.49-14.79s-13.49-23.25-13.49-40.21a122.2,122.2,0,0,1,2-21.78A108.91,108.91,0,0,1,840.61,434a101.74,101.74,0,0,1,10.71-19.74,72.57,72.57,0,0,1,36-27.29,76,76,0,0,1,25.3-4,68.91,68.91,0,0,1,24,3.87,45.49,45.49,0,0,1,17.43,11.28A46.34,46.34,0,0,1,964.32,415.83Zm-61.86,82.71a33.49,33.49,0,0,0,9.8-7.88A50.6,50.6,0,0,0,919.63,479a84.52,84.52,0,0,0,5-14.06,112.88,112.88,0,0,0,2.79-14.48,106.53,106.53,0,0,0,.9-13.08c0-20.5-10.51-22.87-18.41-22.87a26.44,26.44,0,0,0-12.53,2.89,35.07,35.07,0,0,0-9.93,7.91A48.36,48.36,0,0,0,880,436.94,83.52,83.52,0,0,0,875,451a112,112,0,0,0-2.79,14.49,107.65,107.65,0,0,0-.9,13.27c0,20.32,10.63,22.67,18.62,22.67A26.49,26.49,0,0,0,902.46,498.54ZM1032.3,385.46a70.27,70.27,0,0,0-8.18-1.11c-2.63-.2-5.19-.3-7.6-.3a95.41,95.41,0,0,0-15.9,1.39l-2.64.45L970.76,529.47l3.94.61a101.5,101.5,0,0,0,15.43,1.19,121,121,0,0,0,16-1.18l2.75-.38,27.2-143.52Zm247.94,4a117.78,117.78,0,0,0-17.91-4.94A114.11,114.11,0,0,0,1242,382.9,87,87,0,0,0,1218,386a56.42,56.42,0,0,0-18.69,9.14,41.58,41.58,0,0,0-12.25,15,45.74,45.74,0,0,0-4.3,20.09,28.77,28.77,0,0,0,8.86,21c5.39,5.39,12.72,10.65,21.7,15.58,2.65,1.55,5.35,3,8,4.4a36.91,36.91,0,0,1,6.16,3.88,17.85,17.85,0,0,1,3.91,4.23,8.23,8.23,0,0,1,1.24,4.59,13.34,13.34,0,0,1-1.73,7,16.16,16.16,0,0,1-5.11,5.25,26,26,0,0,1-8.27,3.48c-7.35,1.8-16.5,1.6-25.83-.59-5.28-1.23-10.53-2.74-15.61-4.47l-3.21-1.1-1.49,3A135.46,135.46,0,0,0,1166,509a60.17,60.17,0,0,0-3.19,12.34l-.45,3.12,3,1.06a117.29,117.29,0,0,0,39.43,6.9c11.49,0,21.6-1.41,30.07-4.2a64.15,64.15,0,0,0,21.37-11.4A45.5,45.5,0,0,0,1269,499.72a51.28,51.28,0,0,0,4.13-20.21,31,31,0,0,0-3-13.82,36,36,0,0,0-8-10.57,69.17,69.17,0,0,0-11.13-8.3c-4-2.45-8.5-4.93-13.17-7.35a74.69,74.69,0,0,1-12.24-8,9.42,9.42,0,0,1-3.66-7.73,7.9,7.9,0,0,1,1.43-5,11.92,11.92,0,0,1,4.31-3.4,22,22,0,0,1,6.49-1.86,56.76,56.76,0,0,1,7.42-.53,60.53,60.53,0,0,1,15.37,1.58,80.25,80.25,0,0,1,11.72,4.19l3,1.32,1.8-2.69a55.54,55.54,0,0,0,6.2-12.11,65.14,65.14,0,0,0,3.07-11.57l.5-3.16Zm-110.46-4.12a38.88,38.88,0,0,0-6.87-1.06,102.53,102.53,0,0,0-21.85,1l-2.69.42-14.43,77.23-32.32-77.25-2-.38a72.27,72.27,0,0,0-13.08-1.21c-2,0-4.08.07-6.31.2a47.89,47.89,0,0,0-7.28,1l-2.5.54-27.17,143.55,3.83.69a82.46,82.46,0,0,0,21.08.91c2.51-.2,5-.5,7.43-.9l2.67-.44,14.43-77.09,32.53,77.15,2,.37a73.32,73.32,0,0,0,12.84,1.21,86.13,86.13,0,0,0,13.18-1.2l2.68-.42,27.37-143.47Z"/><path class="cls-2" d="M1033.24,529.37l3.83.69a82.46,82.46,0,0,0,21.08.91c2.51-.2,5-.5,7.43-.9l2.67-.44,14.43-77.09,32.53,77.15,2,.37a73.32,73.32,0,0,0,12.84,1.21,86.13,86.13,0,0,0,13.18-1.2l2.68-.42,23-120.5c-11.31.6-23.2,1.58-35.52,3l-9.49,50.78L1104.33,416c-16.74,2.62-34,6-51.54,10.08Z"/><path class="cls-2" d="M887.26,532.41a77.66,77.66,0,0,0,25.27-3.93,71.59,71.59,0,0,0,20.37-10.8,76.17,76.17,0,0,0,15.52-16.08,98.15,98.15,0,0,0,10.84-19.47,105.43,105.43,0,0,0,6.31-21.5c.49-2.66.88-5.32,1.19-7.95-15.09,5.9-30,12.47-44.45,19.74-.81,2.21-1.69,4.39-2.68,6.53a50.6,50.6,0,0,1-7.37,11.71,33.49,33.49,0,0,1-9.8,7.88,26.49,26.49,0,0,1-12.52,2.88c-3.9,0-8.41-.56-12-3.48A368.56,368.56,0,0,0,848,519.8C857,528.16,870.19,532.41,887.26,532.41Z"/><path class="cls-2" d="M990.13,531.27a121,121,0,0,0,16-1.18l2.75-.38,18.4-97.1c-13.51,3.74-27.07,7.95-40.54,12.67l-16,84.19,3.94.61A101.5,101.5,0,0,0,990.13,531.27Z"/><path class="cls-2" d="M1227.72,415.33a22,22,0,0,1,6.49-1.86,56.76,56.76,0,0,1,7.42-.53,60.53,60.53,0,0,1,15.37,1.58,80.25,80.25,0,0,1,11.72,4.19l3,1.32c-13.74-7.85-44.15-12.2-83.77-11.54-.3.55-.6,1.11-.87,1.69a45.74,45.74,0,0,0-4.3,20.09,28.77,28.77,0,0,0,8.86,21c5.39,5.39,12.72,10.65,21.7,15.58,2.65,1.55,5.35,3,8,4.4a36.91,36.91,0,0,1,6.16,3.88,17.85,17.85,0,0,1,3.91,4.23,8.23,8.23,0,0,1,1.24,4.59,13.34,13.34,0,0,1-1.73,7,16.16,16.16,0,0,1-5.11,5.25,26,26,0,0,1-8.27,3.48c-7.35,1.8-16.5,1.6-25.83-.59-5.28-1.23-10.53-2.74-15.61-4.47l-3.21-1.1-1.49,3A135.46,135.46,0,0,0,1166,509a60.17,60.17,0,0,0-3.19,12.34l-.45,3.12,3,1.06a117.29,117.29,0,0,0,39.43,6.9c11.49,0,21.6-1.41,30.07-4.2a64.15,64.15,0,0,0,21.37-11.4A45.5,45.5,0,0,0,1269,499.72a51.28,51.28,0,0,0,4.13-20.21,31,31,0,0,0-3-13.82,36,36,0,0,0-8-10.57,69.17,69.17,0,0,0-11.13-8.3c-4-2.45-8.5-4.93-13.17-7.35a74.69,74.69,0,0,1-12.24-8,9.42,9.42,0,0,1-3.66-7.73,7.9,7.9,0,0,1,1.43-5A11.92,11.92,0,0,1,1227.72,415.33Z"/><path class="cls-3" d="M1226.39,474.27c.38.27.75.54,1.09.81a17.85,17.85,0,0,1,3.91,4.23,8.23,8.23,0,0,1,1.24,4.59,13.34,13.34,0,0,1-1.73,7,16.16,16.16,0,0,1-5.11,5.25,26,26,0,0,1-8.27,3.48c-7.35,1.8-16.5,1.6-25.83-.59-5.28-1.23-10.53-2.74-15.61-4.47l-3.21-1.1-1.49,3A135.46,135.46,0,0,0,1166,509a60.17,60.17,0,0,0-3.19,12.34l-.45,3.12,3,1.06a117.29,117.29,0,0,0,39.43,6.9c11.49,0,21.6-1.41,30.07-4.2a64.15,64.15,0,0,0,21.37-11.4,49.7,49.7,0,0,0,4.61-4.43C1260.66,511.82,1255.42,488.27,1226.39,474.27Z"/><path class="cls-3" d="M1058.15,531c2.51-.2,5-.5,7.43-.9l2.67-.44,8.67-46.33c-11.79,4-24.32,8.7-37.65,14.2l-6,31.87,3.83.69A82.46,82.46,0,0,0,1058.15,531Z"/><path class="cls-3" d="M1130.1,531.27a86.13,86.13,0,0,0,13.18-1.2l2.68-.42,12.36-64.82c-18.25,1.54-39.7,5.62-64.9,13.19l21.79,51.67,2,.37A73.32,73.32,0,0,0,1130.1,531.27Z"/><path class="cls-3" d="M990.13,531.27a121,121,0,0,0,16-1.18l2.75-.38,3.92-20.67q-19.93,9.09-42,20.43l3.94.61A101.5,101.5,0,0,0,990.13,531.27Z"/></svg>
