<?xml version="1.0" encoding="UTF-8" standalone="no"?>
<svg
   xmlns:dc="http://purl.org/dc/elements/1.1/"
   xmlns:cc="http://creativecommons.org/ns#"
   xmlns:rdf="http://www.w3.org/1999/02/22-rdf-syntax-ns#"
   xmlns:svg="http://www.w3.org/2000/svg"
   xmlns="http://www.w3.org/2000/svg"
   xmlns:sodipodi="http://sodipodi.sourceforge.net/DTD/sodipodi-0.dtd"
   xmlns:inkscape="http://www.inkscape.org/namespaces/inkscape"
   width="45.768787mm"
   height="23.375196mm"
   viewBox="0 0 45.768787 23.375196"
   version="1.1"
   id="svg717"
   inkscape:version="1.0.1 (3bc2e813f5, 2020-09-07)"
   sodipodi:docname="Logo BNI Syariah.svg">
  <defs
     id="defs711">
    <clipPath
       clipPathUnits="userSpaceOnUse"
       id="clipPath573">
      <path
         d="M 0,0 H 595.276 V 841.89 H 0 Z"
         id="path571" />
    </clipPath>
    <clipPath
       clipPathUnits="userSpaceOnUse"
       id="clipPath621">
      <path
         d="M 0,0 H 595.276 V 841.89 H 0 Z"
         id="path619" />
    </clipPath>
    <clipPath
       clipPathUnits="userSpaceOnUse"
       id="clipPath645">
      <path
         d="M 0,0 H 595.276 V 841.89 H 0 Z"
         id="path643" />
    </clipPath>
  </defs>
  <sodipodi:namedview
     id="base"
     pagecolor="#ffffff"
     bordercolor="#666666"
     borderopacity="1.0"
     inkscape:pageopacity="0.0"
     inkscape:pageshadow="2"
     inkscape:zoom="0.35"
     inkscape:cx="-810.65068"
     inkscape:cy="272.74501"
     inkscape:document-units="mm"
     inkscape:current-layer="layer1"
     inkscape:document-rotation="0"
     showgrid="false"
     fit-margin-top="0"
     fit-margin-left="0"
     fit-margin-right="0"
     fit-margin-bottom="0"
     inkscape:window-width="1920"
     inkscape:window-height="1001"
     inkscape:window-x="-9"
     inkscape:window-y="-9"
     inkscape:window-maximized="1" />
  <metadata
     id="metadata714">
    <rdf:RDF>
      <cc:Work
         rdf:about="">
        <dc:format>image/svg+xml</dc:format>
        <dc:type
           rdf:resource="http://purl.org/dc/dcmitype/StillImage" />
        <dc:title></dc:title>
      </cc:Work>
    </rdf:RDF>
  </metadata>
  <g
     inkscape:label="Layer 1"
     inkscape:groupmode="layer"
     id="layer1"
     transform="translate(-320.31799,-76.002882)">
    <g
       id="g849">
      <g
         id="g567"
         transform="matrix(0.35277777,0,0,-0.35277777,175.84477,357.26459)">
        <g
           id="g569"
           clip-path="url(#clipPath573)">
          <g
             id="g575"
             transform="translate(474.7238,782.4138)">
            <path
               d="m 0,0 c 3.276,0.572 5.41,3.404 5.41,7.015 0,4.813 -4.164,7.84 -11.294,7.84 h -14.109 v -0.164 c 2.883,-1.579 2.818,-4.131 2.818,-6.568 v -22.048 c 0,-2.479 0.065,-5.055 -2.818,-6.611 v -0.16 h 6.795 c 6.636,0 11.727,-0.113 15.526,1.673 4.037,1.896 6.481,5.301 6.481,9.45 C 8.809,-4.275 4.87,-1.024 0,0 m -11.643,11.576 4.464,-0.072 c 3.312,0 6.699,-1.622 6.699,-5.352 0,-4.43 -2.997,-5.614 -7.267,-5.614 l -3.896,-0.005 v 0.005 z m 4.303,-28.618 -4.303,-0.006 v 14.016 0.2 l 4.627,0.02 c 5.385,0 9.832,-2 9.832,-7.243 0,-5.135 -4.668,-6.987 -10.156,-6.987"
               style="fill:#006885;fill-opacity:1;fill-rule:nonzero;stroke:none"
               id="path577" />
          </g>
          <g
             id="g579"
             transform="translate(494.351,768.4872)">
            <path
               d="m 0,0 c 0,-3.033 -0.055,-5.185 2.811,-6.871 v -0.152 h -9.563 v 0.152 c 2.859,1.686 2.809,3.838 2.809,6.871 v 21.603 c 0,3.012 0.05,5.399 -2.808,7.012 v 0.167 H 1.19 V 28.73 C 1.401,28.086 1.752,27.722 1.996,27.373 2.253,27.037 2.752,26.299 2.752,26.299 L 20.965,1.753 v 20.062 c 0,3.024 0.047,5.187 -2.809,6.8 v 0.167 h 9.505 v -0.167 c -2.807,-1.613 -2.807,-3.776 -2.807,-6.8 V -8.795 C 23.119,-8.106 18.277,-4.075 14.831,0.563 8.642,8.875 0,20.434 0,20.434 Z"
               style="fill:#006885;fill-opacity:1;fill-rule:nonzero;stroke:none"
               id="path581" />
          </g>
          <g
             id="g583"
             transform="translate(530.8807,790.8254)">
            <path
               d="M 0,0 C 0,2.485 -0.043,4.7 -2.802,6.277 V 6.444 H 8.388 V 6.277 C 5.616,4.747 5.59,2.436 5.59,0 v -22.725 c 0,-2.428 -0.064,-4.89 2.798,-6.471 v -0.161 h -11.19 v 0.161 C 0.075,-27.593 0,-25.174 0,-22.738 Z"
               style="fill:#006885;fill-opacity:1;fill-rule:nonzero;stroke:none"
               id="path585" />
          </g>
          <g
             id="g587"
             transform="translate(459.9077,737.1083)">
            <path
               d="m 0,0 c -0.608,0 -1.232,0.065 -1.857,0.194 -0.618,0.128 -1.212,0.322 -1.766,0.577 -0.458,0.21 -0.868,0.467 -1.224,0.766 l 0.975,1.532 c 0.538,-0.376 1.057,-0.676 1.547,-0.896 0.593,-0.269 1.274,-0.405 2.022,-0.405 0.856,0 1.591,0.238 2.185,0.707 0.618,0.489 0.93,1.195 0.93,2.101 0,0.668 -0.222,1.294 -0.66,1.861 -0.418,0.532 -0.953,1.043 -1.591,1.521 -0.62,0.466 -1.197,0.894 -1.722,1.277 -0.75,0.606 -1.34,1.114 -1.74,1.5 -0.383,0.366 -0.703,0.814 -0.955,1.334 -0.248,0.514 -0.374,1.119 -0.374,1.798 0,0.742 0.22,1.4 0.673,2.011 0.459,0.611 1.104,1.105 1.92,1.469 0.821,0.366 1.755,0.551 2.775,0.551 0.918,0 1.772,-0.145 2.537,-0.431 0.648,-0.242 1.173,-0.532 1.565,-0.864 L 4.3,15.225 c -0.371,0.229 -0.777,0.427 -1.21,0.591 -0.548,0.209 -1.087,0.314 -1.601,0.314 -0.802,0 -1.449,-0.207 -1.921,-0.615 -0.484,-0.421 -0.729,-0.962 -0.729,-1.606 0,-0.444 0.147,-0.873 0.436,-1.274 0.264,-0.37 0.642,-0.764 1.123,-1.171 C 0.848,11.081 1.475,10.576 2.315,9.919 3.543,8.952 4.459,8.044 5.037,7.22 5.595,6.428 5.878,5.531 5.878,4.551 5.878,3.84 5.652,3.127 5.205,2.432 4.756,1.73 4.075,1.144 3.181,0.69 2.281,0.232 1.211,0 0,0"
               style="fill:#2da343;fill-opacity:1;fill-rule:nonzero;stroke:none"
               id="path589" />
          </g>
          <g
             id="g591"
             transform="translate(467.6718,731.0169)">
            <path
               d="m 0,0 v 1.632 h 0.564 c 0.438,0 0.855,0.066 1.241,0.196 C 2.204,1.968 2.59,2.224 2.954,2.59 3.31,2.945 3.667,3.471 4.017,4.153 4.362,4.841 4.708,5.721 5.048,6.77 L 5.085,6.883 0.33,18.277 3.07,18.772 C 4.489,15.01 5.569,11.918 6.283,9.576 L 6.353,9.347 H 6.875 L 6.947,9.57 c 0.515,1.579 1.038,3.072 1.596,4.563 0.564,1.507 1.169,3.066 1.801,4.639 L 12.581,18.357 6.422,4.499 C 5.911,3.318 5.22,2.252 4.364,1.329 3.539,0.435 2.472,0 1.102,0 Z"
               style="fill:#2da343;fill-opacity:1;fill-rule:nonzero;stroke:none"
               id="path593" />
          </g>
          <g
             id="g595"
             transform="translate(485.5541,737.1083)">
            <path
               d="m 0,0 c -0.924,0 -1.719,0.334 -2.364,0.991 -0.656,0.67 -0.975,1.517 -0.975,2.59 0,1.087 0.363,1.953 1.11,2.648 0.766,0.715 1.906,1.285 3.388,1.695 L 4.462,8.904 4.421,9.181 C 4.358,9.605 4.19,9.992 3.924,10.332 3.661,10.663 3.334,10.923 2.953,11.105 2.566,11.287 2.165,11.38 1.761,11.38 c -1.194,0 -2.304,-0.392 -3.304,-1.165 l -0.734,1.077 c 0.665,0.517 1.343,0.892 2.016,1.115 0.756,0.251 1.584,0.378 2.463,0.378 1.402,0 2.596,-0.328 3.551,-0.976 0.915,-0.621 1.378,-1.787 1.378,-3.465 V 3.116 C 7.131,2.01 7.261,1.07 7.518,0.313 H 4.581 C 4.475,0.582 4.375,1.054 4.375,1.877 V 2.571 L 3.07,1.471 C 2.476,1.017 1.915,0.645 1.413,0.377 0.947,0.127 0.472,0 0,0 M 2.103,7.117 C 1.208,6.844 0.522,6.434 0.068,5.903 -0.396,5.363 -0.631,4.677 -0.631,3.864 -0.631,3.244 -0.452,2.72 -0.1,2.306 0.265,1.875 0.712,1.655 1.226,1.655 c 0.524,0 1.044,0.2 1.547,0.593 0.5,0.386 0.898,0.95 1.217,1.724 0.308,0.754 0.463,1.675 0.463,2.738 0,0.275 -0.01,0.525 -0.03,0.742 L 4.388,7.855 Z"
               style="fill:#2da343;fill-opacity:1;fill-rule:nonzero;stroke:none"
               id="path597" />
          </g>
          <g
             id="g599"
             transform="translate(496.6202,737.4216)">
            <path
               d="M 0,0 V 12.159 H 2.755 V 9.908 h 0.543 l 0.784,1.141 c 0.338,0.438 0.669,0.805 0.971,1.073 0.263,0.236 0.579,0.35 0.965,0.35 0.647,0 1.286,-0.302 1.903,-0.898 L 6.91,9.71 C 6.733,9.792 6.559,9.86 6.39,9.914 6.115,9.998 5.793,10.041 5.43,10.041 4.666,10.041 4.022,9.699 3.516,9.023 3.021,8.371 2.78,7.383 2.78,6.004 V 0 Z"
               style="fill:#2da343;fill-opacity:1;fill-rule:nonzero;stroke:none"
               id="path601" />
          </g>
          <path
             d="m 506.889,749.581 h 2.779 v -12.159 h -2.779 z m 1.368,2.334 c -0.323,0 -0.608,0.081 -0.867,0.247 -0.261,0.17 -0.461,0.391 -0.61,0.675 -0.146,0.282 -0.22,0.587 -0.22,0.907 0,0.27 0.072,0.536 0.216,0.791 0.148,0.255 0.347,0.459 0.607,0.622 0.25,0.159 0.526,0.238 0.825,0.238 0.328,0 0.622,-0.077 0.898,-0.237 0.274,-0.16 0.488,-0.367 0.654,-0.631 0.153,-0.251 0.232,-0.516 0.232,-0.783 0,-0.501 -0.159,-0.925 -0.485,-1.297 -0.313,-0.358 -0.722,-0.532 -1.25,-0.532"
             style="fill:#2da343;fill-opacity:1;fill-rule:nonzero;stroke:none"
             id="path603" />
          <g
             id="g605"
             transform="translate(516.4948,737.1083)">
            <path
               d="m 0,0 c -0.938,0 -1.713,0.324 -2.367,0.992 -0.658,0.671 -0.978,1.518 -0.978,2.589 0,1.085 0.363,1.951 1.111,2.648 0.77,0.717 1.911,1.287 3.39,1.695 L 4.462,8.905 4.419,9.184 C 4.351,9.61 4.185,9.996 3.924,10.331 3.658,10.665 3.33,10.924 2.948,11.105 2.554,11.29 2.166,11.38 1.761,11.38 c -1.195,0 -2.306,-0.392 -3.307,-1.165 l -0.734,1.077 c 0.666,0.518 1.343,0.893 2.015,1.115 0.756,0.251 1.585,0.378 2.465,0.378 1.4,0 2.595,-0.328 3.55,-0.976 0.914,-0.621 1.377,-1.787 1.377,-3.465 V 3.116 c 0,-1.108 0.131,-2.048 0.387,-2.803 H 4.576 C 4.47,0.583 4.371,1.055 4.371,1.877 V 2.57 L 3.066,1.471 C 2.47,1.017 1.909,0.646 1.408,0.376 0.941,0.127 0.467,0 0,0 M 2.101,7.117 C 1.208,6.844 0.521,6.436 0.064,5.903 -0.402,5.355 -0.638,4.67 -0.638,3.864 c 0,-0.616 0.179,-1.14 0.532,-1.557 0.366,-0.433 0.813,-0.652 1.328,-0.652 0.522,0 1.044,0.199 1.551,0.592 0.499,0.387 0.895,0.952 1.212,1.726 0.306,0.753 0.462,1.673 0.462,2.737 0,0.268 -0.009,0.516 -0.025,0.738 L 4.391,7.857 Z"
               style="fill:#2da343;fill-opacity:1;fill-rule:nonzero;stroke:none"
               id="path607" />
          </g>
          <g
             id="g609"
             transform="translate(536.5095,737.4216)">
            <path
               d="m 0,0 v 7.532 c 0,0.998 -0.239,1.798 -0.71,2.379 -0.486,0.6 -1.218,0.905 -2.176,0.905 -0.613,0 -1.174,-0.137 -1.666,-0.408 C -5.053,10.137 -5.455,9.73 -5.745,9.2 -6.028,8.678 -6.171,8.037 -6.171,7.295 V 0 h -2.78 v 18.174 h 2.754 v -8.03 l 0.558,0.593 c 0.538,0.573 1.172,1.01 1.886,1.3 0.718,0.288 1.477,0.435 2.255,0.435 0.725,0 1.36,-0.097 1.886,-0.287 0.514,-0.187 0.95,-0.466 1.295,-0.831 C 2.028,10.99 2.295,10.519 2.478,9.956 2.663,9.387 2.757,8.701 2.757,7.917 V 0 Z"
               style="fill:#2da343;fill-opacity:1;fill-rule:nonzero;stroke:none"
               id="path611" />
          </g>
        </g>
      </g>
      <path
         d="M 332.86686,88.550934 H 320.3182 V 76.002982 h 12.54866 z"
         style="fill:#ffffff;fill-opacity:1;fill-rule:nonzero;stroke:none;stroke-width:0.352777"
         id="path613" />
      <g
         id="g615"
         transform="matrix(0.35277777,0,0,-0.35277777,175.84477,357.26459)">
        <g
           id="g617"
           clip-path="url(#clipPath621)">
          <g
             id="g623"
             transform="translate(423.8334,773.2693)">
            <path
               d="M 0,0 3.793,3.061 C 3.16,3.858 2.553,4.664 1.985,5.495 -2.4,11.84 -4.998,18.295 -3.121,24.008 h -11.182 v -6.165 z"
               style="fill:#f15a22;fill-opacity:1;fill-rule:nonzero;stroke:none"
               id="path625" />
          </g>
          <g
             id="g627"
             transform="translate(429.8148,782.49)">
            <path
               d="m 0,0 c 0.236,2.014 0.847,5.812 4.541,8.634 3.199,2.434 7.201,2.903 10.746,1.397 v 4.755 H -4.451 C -5.749,8.999 -2.328,2.641 0,0"
               style="fill:#f15a22;fill-opacity:1;fill-rule:nonzero;stroke:none"
               id="path629" />
          </g>
          <g
             id="g631"
             transform="translate(434.6002,788.2934)">
            <path
               d="m 0,0 -0.014,-0.011 c -3.713,-3.017 -2.801,-7.754 0.657,-12 2.663,-3.278 6.225,-5.578 9.859,-3.834 V -1.863 C 7.239,1.478 3.323,2.702 0,0"
               style="fill:#f15a22;fill-opacity:1;fill-rule:nonzero;stroke:none"
               id="path633" />
          </g>
        </g>
      </g>
      <g
         id="g635"
         transform="matrix(0.35277777,0,0,-0.35277777,320.31809,80.750841)">
        <path
           d="m 0,0 v -22.106 h 0.007 l 10.762,8.705 z"
           style="fill:#f15a22;fill-opacity:1;fill-rule:nonzero;stroke:none"
           id="path637" />
      </g>
      <g
         id="g639"
         transform="matrix(0.35277777,0,0,-0.35277777,175.84477,357.26459)">
        <g
           id="g641"
           clip-path="url(#clipPath645)">
          <g
             id="g647"
             transform="translate(429.1037,774.5777)">
            <path
               d="m 0,0 c -1.057,-0.869 -2.363,-1.932 -3.81,-3.116 l 1.395,-1.742 c 2.023,-2.527 4.98,-6.905 8.643,-5.72 l 0.135,-0.167 -2.602,-2.12 h 12.237 v 8.409 C 9.702,-7.876 4.289,-4.764 0,0"
               style="fill:#f15a22;fill-opacity:1;fill-rule:nonzero;stroke:none"
               id="path649" />
          </g>
          <g
             id="g651"
             transform="translate(423.1993,766.8029)">
            <path
               d="M 0,0 -1.45,1.802 C -4.417,-0.582 -7.534,-3.08 -10.066,-5.091 H 3.626 C 2.735,-3.204 1.12,-1.397 0,0"
               style="fill:#f15a22;fill-opacity:1;fill-rule:nonzero;stroke:none"
               id="path653" />
          </g>
        </g>
      </g>
    </g>
  </g>
</svg>
