<?xml version="1.0" encoding="UTF-8" standalone="no"?>
<svg
   xmlns:dc="http://purl.org/dc/elements/1.1/"
   xmlns:cc="http://creativecommons.org/ns#"
   xmlns:rdf="http://www.w3.org/1999/02/22-rdf-syntax-ns#"
   xmlns:svg="http://www.w3.org/2000/svg"
   xmlns="http://www.w3.org/2000/svg"
   xmlns:sodipodi="http://sodipodi.sourceforge.net/DTD/sodipodi-0.dtd"
   xmlns:inkscape="http://www.inkscape.org/namespaces/inkscape"
   width="51.500217mm"
   height="8.741128mm"
   viewBox="0 0 51.500217 8.741128"
   version="1.1"
   id="svg1336"
   inkscape:version="1.0.1 (3bc2e813f5, 2020-09-07)"
   sodipodi:docname="Logo Bank BPD DIY.svg">
  <defs
     id="defs1330">
    <clipPath
       clipPathUnits="userSpaceOnUse"
       id="clipPath32">
      <path
         d="M 0,0 H 595.276 V 841.89 H 0 Z"
         id="path30" />
    </clipPath>
    <clipPath
       clipPathUnits="userSpaceOnUse"
       id="clipPath118">
      <path
         d="M 0,0 H 595.276 V 841.89 H 0 Z"
         id="path116" />
    </clipPath>
  </defs>
  <sodipodi:namedview
     id="base"
     pagecolor="#ffffff"
     bordercolor="#666666"
     borderopacity="1.0"
     inkscape:pageopacity="0.0"
     inkscape:pageshadow="2"
     inkscape:zoom="1.979899"
     inkscape:cx="62.772445"
     inkscape:cy="24.505233"
     inkscape:document-units="mm"
     inkscape:current-layer="layer1"
     inkscape:document-rotation="0"
     showgrid="false"
     fit-margin-top="0"
     fit-margin-left="0"
     fit-margin-right="0"
     fit-margin-bottom="0"
     inkscape:window-width="1366"
     inkscape:window-height="728"
     inkscape:window-x="0"
     inkscape:window-y="0"
     inkscape:window-maximized="0" />
  <metadata
     id="metadata1333">
    <rdf:RDF>
      <cc:Work
         rdf:about="">
        <dc:format>image/svg+xml</dc:format>
        <dc:type
           rdf:resource="http://purl.org/dc/dcmitype/StillImage" />
        <dc:title></dc:title>
      </cc:Work>
    </rdf:RDF>
  </metadata>
  <g
     inkscape:label="Lapis 1"
     inkscape:groupmode="layer"
     id="layer1"
     transform="translate(-39.261796,-74.389917)">
    <path
       d="m 61.218985,82.257387 h 0.185914 v -0.603956 h -0.185914 z"
       style="fill:#35378f;fill-opacity:1;fill-rule:nonzero;stroke:none;stroke-width:0.352777"
       id="path110" />
    <g
       id="g2095"
       style="fill:#35378f;fill-opacity:1">
      <g
         id="g28"
         clip-path="url(#clipPath32)"
         style="fill:#35378f;fill-opacity:1"
         transform="matrix(0.35277777,0,0,-0.35277777,21.061939,343.38914)">
        <g
           id="g34"
           transform="translate(147.5783,732.4172)"
           style="fill:#35378f;fill-opacity:1" />
        <g
           id="g38"
           transform="translate(64.0791,753.3457)"
           style="fill:#35378f;fill-opacity:1">
          <path
             d="M 0,0 C 0.218,0.833 0.068,1.474 -0.451,1.916 -0.97,2.358 -1.824,2.581 -3.018,2.581 h -5.51 C -8.854,2.581 -9.103,2.532 -9.265,2.438 -9.43,2.343 -9.542,2.184 -9.6,1.961 -9.656,1.751 -9.555,1.57 -9.301,1.417 -9.233,1.375 -9.178,1.341 -9.139,1.314 -9.098,1.281 -9.077,1.227 -9.074,1.149 -9.071,1.068 -9.092,0.948 -9.133,0.791 l -2.051,-7.812 c -0.057,-0.217 -0.126,-0.397 -0.206,-0.546 -0.081,-0.149 -0.167,-0.247 -0.26,-0.292 -0.03,-0.021 -0.077,-0.048 -0.14,-0.081 -0.394,-0.217 -0.621,-0.438 -0.68,-0.665 -0.042,-0.162 -0.015,-0.291 0.089,-0.383 0.102,-0.092 0.263,-0.137 0.484,-0.137 h 6.161 c 1.277,0 2.345,0.286 3.201,0.86 0.858,0.576 1.424,1.381 1.696,2.415 0.191,0.728 0.117,1.373 -0.224,1.937 -0.34,0.566 -0.872,0.925 -1.597,1.08 0.719,0.31 1.304,0.701 1.746,1.174 C -0.471,-1.185 -0.167,-0.635 0,0 m -3.8,-5.708 c -0.197,-0.743 -0.609,-1.3 -1.241,-1.664 -0.634,-0.368 -1.49,-0.553 -2.573,-0.553 -0.427,0 -0.684,0.042 -0.771,0.12 -0.087,0.079 -0.093,0.262 -0.02,0.546 l 0.863,3.286 c 0.262,0.009 0.573,0.042 0.933,0.093 0.358,0.054 0.81,0.136 1.359,0.247 0.605,-0.105 1.035,-0.34 1.289,-0.701 0.253,-0.361 0.305,-0.821 0.161,-1.374 m 0.764,5.508 c -0.176,-0.669 -0.632,-1.213 -1.366,-1.635 -0.736,-0.418 -1.66,-0.658 -2.765,-0.715 l 0.877,3.341 c 0.058,0.223 0.15,0.365 0.276,0.436 0.127,0.066 0.421,0.102 0.886,0.102 h 0.284 c 0.824,0 1.37,-0.114 1.633,-0.342 0.265,-0.231 0.322,-0.628 0.175,-1.187"
             style="fill:#35378f;fill-opacity:1;fill-rule:nonzero;stroke:none"
             id="path40" />
        </g>
        <g
           id="g42"
           transform="translate(74.1983,745.2312)"
           style="fill:#35378f;fill-opacity:1">
          <path
             d="m 0,0 c -0.162,0.147 -0.256,0.25 -0.28,0.301 -0.01,0.021 -0.042,0.552 -0.091,1.591 -0.052,1.04 -0.14,2.095 -0.268,3.159 -0.151,1.272 -0.326,2.405 -0.522,3.396 -0.197,0.991 -0.359,1.635 -0.495,1.923 -0.096,0.223 -0.215,0.373 -0.364,0.458 -0.145,0.081 -0.38,0.12 -0.702,0.12 -0.525,0 -1.093,-0.388 -1.716,-1.164 L -4.529,9.674 C -4.958,9.152 -5.457,8.474 -6.033,7.639 -6.609,6.806 -7.215,5.877 -7.854,4.854 -8.37,4.03 -8.955,3.08 -9.603,1.996 -10.255,0.914 -10.635,0.322 -10.739,0.223 -10.784,0.18 -10.927,0.084 -11.17,-0.06 c -0.245,-0.149 -0.39,-0.311 -0.435,-0.484 -0.039,-0.149 -0.018,-0.262 0.063,-0.346 0.081,-0.082 0.214,-0.12 0.4,-0.12 h 2.272 c 0.113,0 0.222,0.041 0.321,0.129 0.102,0.089 0.168,0.198 0.204,0.337 0.026,0.099 0.024,0.192 -0.012,0.273 -0.033,0.082 -0.114,0.181 -0.24,0.298 -0.018,0.015 -0.047,0.039 -0.087,0.069 -0.118,0.106 -0.161,0.232 -0.122,0.382 0.036,0.137 0.143,0.367 0.314,0.69 0.171,0.325 0.468,0.847 0.889,1.566 h 4.171 C -3.385,2.168 -3.358,1.674 -3.351,1.253 -3.341,0.83 -3.357,0.55 -3.393,0.412 -3.426,0.289 -3.558,0.15 -3.793,0.002 -4.029,-0.147 -4.17,-0.317 -4.221,-0.511 c -0.042,-0.16 -0.023,-0.281 0.057,-0.37 0.08,-0.088 0.22,-0.129 0.414,-0.129 h 3.048 c 0.245,0 0.443,0.041 0.589,0.126 0.146,0.084 0.241,0.207 0.284,0.373 C 0.221,-0.322 0.164,-0.153 0,0 m -6.73,4.19 c 0.452,0.736 0.897,1.434 1.333,2.087 0.434,0.657 0.875,1.284 1.317,1.886 C -3.99,7.799 -3.899,7.269 -3.803,6.575 -3.71,5.88 -3.627,5.086 -3.557,4.19 Z"
             style="fill:#35378f;fill-opacity:1;fill-rule:nonzero;stroke:none"
             id="path44" />
        </g>
        <g
           id="g46"
           transform="translate(79.4451,752.9894)"
           style="fill:#35378f;fill-opacity:1">
          <path
             d="m 0,0 -1.746,-6.648 c -0.101,-0.382 -0.137,-0.631 -0.105,-0.749 0.028,-0.119 0.119,-0.217 0.267,-0.289 0.055,-0.021 0.125,-0.05 0.217,-0.078 0.292,-0.095 0.406,-0.265 0.343,-0.509 -0.05,-0.189 -0.129,-0.318 -0.238,-0.387 -0.108,-0.074 -0.293,-0.109 -0.55,-0.109 h -2.66 c -0.233,0 -0.387,0.039 -0.466,0.118 -0.08,0.078 -0.098,0.206 -0.052,0.382 0.067,0.251 0.248,0.421 0.545,0.508 0.298,0.087 0.461,0.143 0.493,0.161 0.161,0.108 0.286,0.239 0.376,0.392 0.092,0.157 0.199,0.466 0.32,0.933 l 1.891,7.203 c 0.076,0.286 0.099,0.477 0.069,0.58 -0.027,0.103 -0.113,0.19 -0.251,0.259 -0.053,0.024 -0.125,0.057 -0.22,0.095 -0.293,0.11 -0.406,0.299 -0.335,0.57 0.045,0.168 0.126,0.294 0.246,0.379 0.119,0.082 0.278,0.126 0.474,0.126 h 2.51 C 1.614,2.937 1.999,2.656 2.29,2.096 2.328,2.035 2.357,1.98 2.376,1.94 2.865,1.063 3.373,0.057 3.899,-1.084 4.43,-2.224 4.961,-3.46 5.497,-4.796 L 6.952,0.746 C 7.018,0.997 7.047,1.197 7.033,1.343 7.023,1.489 6.972,1.591 6.883,1.656 6.823,1.692 6.743,1.737 6.639,1.788 6.357,1.937 6.247,2.134 6.313,2.383 6.36,2.561 6.454,2.699 6.602,2.794 6.748,2.889 6.939,2.937 7.172,2.937 h 2.337 c 0.204,0 0.347,-0.054 0.427,-0.16 C 10.017,2.672 10.032,2.526 9.982,2.337 9.925,2.119 9.737,1.95 9.423,1.83 9.324,1.791 9.245,1.761 9.193,1.734 9.032,1.65 8.907,1.543 8.818,1.411 8.727,1.277 8.63,1.014 8.527,0.618 L 6.355,-7.654 C 6.214,-8.191 6.051,-8.537 5.872,-8.688 5.695,-8.838 5.4,-8.913 4.987,-8.913 c -0.328,0 -0.566,0.03 -0.712,0.092 -0.149,0.06 -0.266,0.182 -0.356,0.359 C 3.886,-8.399 3.775,-8.146 3.581,-7.703 2.466,-5.158 1.272,-2.591 0,0"
             style="fill:#35378f;fill-opacity:1;fill-rule:nonzero;stroke:none"
             id="path48" />
        </g>
        <g
           id="g50"
           transform="translate(91.841,748.2719)"
           style="fill:#35378f;fill-opacity:1">
          <path
             d="M 0,0 C 0.266,0.171 0.517,0.335 0.757,0.495 0.993,0.656 1.206,0.811 1.398,0.959 1.926,0.198 2.343,-0.55 2.642,-1.293 2.945,-2.033 3.066,-2.518 3.008,-2.74 2.994,-2.797 2.871,-2.893 2.638,-3.029 2.409,-3.161 2.268,-3.328 2.214,-3.531 2.175,-3.681 2.211,-3.809 2.329,-3.907 2.447,-4.003 2.62,-4.051 2.853,-4.051 H 5.9 c 0.348,0 0.612,0.045 0.792,0.137 0.179,0.091 0.298,0.242 0.35,0.448 0.061,0.227 -0.021,0.41 -0.243,0.555 C 6.77,-2.89 6.745,-2.875 6.725,-2.866 6.516,-2.719 6.388,-2.542 6.342,-2.343 6.334,-2.31 6.327,-2.286 6.322,-2.265 6.014,-1.15 5.653,-0.159 5.238,0.708 4.826,1.579 4.369,2.305 3.868,2.89 4.629,3.492 5.411,4.148 6.215,4.854 7.024,5.566 7.477,5.952 7.578,6.017 7.724,6.112 7.934,6.217 8.206,6.334 8.657,6.522 8.916,6.742 8.981,6.99 9.038,7.212 8.996,7.376 8.854,7.486 8.71,7.597 8.466,7.654 8.118,7.654 H 5.943 C 5.662,7.654 5.441,7.603 5.272,7.501 5.106,7.399 4.994,7.244 4.94,7.038 4.911,6.925 4.911,6.833 4.936,6.76 4.963,6.687 5.012,6.623 5.089,6.572 5.12,6.549 5.16,6.525 5.212,6.498 5.399,6.403 5.471,6.28 5.432,6.128 5.382,5.94 4.892,5.432 3.96,4.596 3.029,3.758 1.856,2.788 0.442,1.686 L 1.368,5.218 1.412,5.382 C 1.49,5.678 1.563,5.881 1.633,5.994 1.702,6.108 1.8,6.203 1.926,6.277 1.961,6.298 2.017,6.328 2.092,6.366 2.414,6.528 2.609,6.742 2.68,7.005 2.739,7.233 2.708,7.399 2.588,7.501 2.466,7.603 2.239,7.654 1.907,7.654 H -1.117 C -1.371,7.654 -1.588,7.597 -1.77,7.481 -1.949,7.366 -2.065,7.212 -2.114,7.023 -2.194,6.722 -2.087,6.501 -1.797,6.358 -1.785,6.352 -1.771,6.346 -1.756,6.342 -1.591,6.253 -1.492,6.148 -1.463,6.024 -1.433,5.904 -1.46,5.69 -1.54,5.382 l -2.006,-7.638 c -0.042,-0.156 -0.095,-0.278 -0.162,-0.359 -0.065,-0.081 -0.215,-0.184 -0.447,-0.305 -0.204,-0.1 -0.349,-0.194 -0.43,-0.28 -0.08,-0.087 -0.141,-0.208 -0.179,-0.352 -0.045,-0.172 -0.014,-0.295 0.095,-0.379 0.108,-0.081 0.298,-0.12 0.573,-0.12 h 3.031 c 0.333,0 0.582,0.042 0.748,0.129 0.167,0.089 0.273,0.229 0.325,0.424 0.066,0.253 -0.037,0.451 -0.304,0.593 -0.042,0.022 -0.074,0.039 -0.096,0.054 -0.124,0.077 -0.194,0.165 -0.215,0.27 -0.019,0.106 0.016,0.334 0.108,0.682 z"
             style="fill:#35378f;fill-opacity:1;fill-rule:nonzero;stroke:none"
             id="path52" />
        </g>
        <g
           id="g54"
           transform="translate(138.6621,753.3457)"
           style="fill:#35378f;fill-opacity:1">
          <path
             d="m 0,0 c 0.218,0.833 0.068,1.474 -0.45,1.916 -0.518,0.442 -1.374,0.665 -2.568,0.665 h -5.509 c -0.327,0 -0.576,-0.05 -0.736,-0.143 C -9.429,2.343 -9.542,2.184 -9.6,1.961 -9.654,1.751 -9.554,1.57 -9.299,1.417 -9.233,1.375 -9.175,1.341 -9.139,1.314 -9.096,1.283 -9.075,1.227 -9.072,1.149 -9.069,1.068 -9.09,0.948 -9.131,0.791 l -2.053,-7.812 c -0.055,-0.217 -0.125,-0.399 -0.204,-0.546 -0.081,-0.149 -0.17,-0.242 -0.26,-0.292 -0.033,-0.018 -0.079,-0.048 -0.14,-0.081 -0.396,-0.214 -0.621,-0.438 -0.681,-0.665 -0.043,-0.162 -0.014,-0.291 0.088,-0.383 0.102,-0.092 0.265,-0.137 0.486,-0.137 h 6.16 c 1.278,0 2.344,0.286 3.201,0.86 0.857,0.577 1.424,1.381 1.695,2.415 0.191,0.728 0.117,1.375 -0.223,1.937 -0.341,0.566 -0.873,0.925 -1.597,1.08 0.719,0.31 1.303,0.702 1.746,1.174 C -0.471,-1.185 -0.165,-0.635 0,0 m -3.8,-5.708 c -0.196,-0.743 -0.609,-1.3 -1.239,-1.664 -0.635,-0.367 -1.492,-0.553 -2.575,-0.553 -0.427,0 -0.684,0.042 -0.771,0.12 -0.087,0.079 -0.092,0.262 -0.018,0.546 l 0.861,3.286 c 0.264,0.009 0.575,0.041 0.934,0.093 0.357,0.053 0.811,0.136 1.358,0.247 0.605,-0.105 1.036,-0.34 1.289,-0.701 0.254,-0.361 0.305,-0.821 0.161,-1.374 M -3.035,-0.2 C -3.211,-0.869 -3.666,-1.413 -4.402,-1.835 -5.137,-2.254 -6.06,-2.493 -7.167,-2.55 l 0.878,3.341 c 0.057,0.223 0.149,0.367 0.275,0.436 0.127,0.068 0.423,0.102 0.888,0.102 h 0.282 c 0.824,0 1.37,-0.114 1.633,-0.342 0.265,-0.231 0.322,-0.628 0.176,-1.187"
             style="fill:#35378f;fill-opacity:1;fill-rule:nonzero;stroke:none"
             id="path56" />
        </g>
        <g
           id="g58"
           transform="translate(149.0671,755.0421)"
           style="fill:#35378f;fill-opacity:1">
          <path
             d="m 0,0 c -0.657,0.588 -1.666,0.884 -3.023,0.884 h -4.944 c -0.197,0 -0.358,-0.046 -0.484,-0.138 -0.127,-0.09 -0.214,-0.227 -0.259,-0.4 -0.065,-0.248 0.019,-0.439 0.251,-0.578 0.069,-0.042 0.12,-0.075 0.157,-0.102 0.105,-0.081 0.163,-0.176 0.181,-0.287 0.017,-0.11 -0.024,-0.346 -0.117,-0.702 l -2.004,-7.631 -0.035,-0.134 c -0.059,-0.221 -0.117,-0.373 -0.178,-0.457 -0.055,-0.079 -0.145,-0.158 -0.263,-0.224 -0.048,-0.027 -0.115,-0.058 -0.198,-0.095 -0.287,-0.124 -0.459,-0.296 -0.515,-0.506 -0.039,-0.149 -0.025,-0.26 0.032,-0.337 0.059,-0.077 0.167,-0.114 0.326,-0.114 h 3.402 c 0.314,0 0.535,0.036 0.66,0.108 0.123,0.069 0.212,0.198 0.262,0.391 0.06,0.226 -0.056,0.406 -0.346,0.544 -0.02,0.009 -0.036,0.018 -0.05,0.024 -0.158,0.079 -0.252,0.166 -0.281,0.259 -0.028,0.09 0,0.299 0.084,0.619 l 0.635,2.414 c 1.932,0.048 3.555,0.444 4.866,1.19 1.31,0.743 2.127,1.717 2.444,2.928 C 0.86,-1.368 0.659,-0.587 0,0 M -2.331,-2.52 C -2.529,-3.278 -2.987,-3.895 -3.702,-4.367 -4.418,-4.841 -5.307,-5.111 -6.37,-5.179 l 1.06,4.036 c 0.093,0.359 0.206,0.579 0.334,0.657 0.128,0.078 0.374,0.119 0.734,0.119 0.807,0 1.373,-0.183 1.699,-0.55 0.326,-0.366 0.397,-0.9 0.212,-1.603"
             style="fill:#35378f;fill-opacity:1;fill-rule:nonzero;stroke:none"
             id="path60" />
        </g>
        <g
           id="g62"
           transform="translate(161.2028,753.1683)"
           style="fill:#35378f;fill-opacity:1">
          <path
             d="m 0,0 c -0.331,0.883 -0.973,1.564 -1.931,2.045 -0.474,0.238 -1.11,0.412 -1.905,0.526 -0.797,0.113 -1.802,0.17 -3.014,0.17 -1.441,0 -2.423,-0.055 -2.944,-0.17 -0.519,-0.112 -0.817,-0.312 -0.892,-0.597 -0.05,-0.191 0.044,-0.357 0.28,-0.5 0.103,-0.062 0.179,-0.121 0.227,-0.164 0.088,-0.083 0.141,-0.176 0.153,-0.29 0.012,-0.112 -0.015,-0.292 -0.078,-0.534 l -1.979,-7.536 c -0.057,-0.216 -0.116,-0.377 -0.176,-0.484 -0.057,-0.102 -0.129,-0.167 -0.208,-0.196 -0.037,-0.015 -0.09,-0.036 -0.159,-0.063 -0.377,-0.144 -0.595,-0.343 -0.66,-0.586 -0.045,-0.178 -0.008,-0.318 0.12,-0.418 0.125,-0.099 0.32,-0.151 0.585,-0.151 h 4.233 c 1.157,0 2.134,0.103 2.936,0.304 0.798,0.202 1.538,0.538 2.219,0.993 0.764,0.508 1.435,1.161 2.004,1.961 0.568,0.797 0.969,1.645 1.206,2.541 C 0.335,-1.932 0.329,-0.884 0,0 m -3.122,-3.194 c -0.358,-1.361 -1.033,-2.477 -2.029,-3.342 -0.995,-0.866 -2.088,-1.297 -3.273,-1.297 -0.325,0 -0.533,0.064 -0.626,0.194 -0.092,0.13 -0.093,0.364 -0.005,0.7 l 1.987,7.568 c 0.084,0.321 0.208,0.544 0.37,0.664 0.161,0.122 0.409,0.181 0.746,0.181 1.235,0 2.113,-0.42 2.626,-1.26 0.511,-0.843 0.578,-1.98 0.204,-3.408"
             style="fill:#35378f;fill-opacity:1;fill-rule:nonzero;stroke:none"
             id="path64" />
        </g>
        <g
           id="g66"
           transform="translate(179.0034,753.1683)"
           style="fill:#35378f;fill-opacity:1">
          <path
             d="m 0,0 c -0.331,0.883 -0.973,1.564 -1.931,2.045 -0.475,0.238 -1.11,0.412 -1.907,0.526 -0.797,0.113 -1.8,0.17 -3.013,0.17 -1.44,0 -2.423,-0.055 -2.943,-0.17 -0.519,-0.112 -0.818,-0.312 -0.892,-0.597 -0.051,-0.191 0.044,-0.357 0.28,-0.5 0.103,-0.062 0.179,-0.121 0.227,-0.164 0.087,-0.083 0.141,-0.176 0.153,-0.29 0.011,-0.112 -0.015,-0.292 -0.078,-0.534 l -1.979,-7.536 c -0.057,-0.216 -0.118,-0.377 -0.176,-0.484 -0.057,-0.102 -0.129,-0.167 -0.209,-0.196 -0.036,-0.015 -0.089,-0.036 -0.158,-0.063 -0.378,-0.144 -0.596,-0.343 -0.66,-0.586 -0.047,-0.178 -0.008,-0.319 0.12,-0.418 0.125,-0.099 0.32,-0.151 0.584,-0.151 h 4.234 c 1.155,0 2.134,0.103 2.936,0.304 0.798,0.202 1.538,0.538 2.219,0.993 0.764,0.508 1.433,1.161 2.003,1.961 0.567,0.797 0.97,1.645 1.205,2.541 C 0.334,-1.932 0.329,-0.884 0,0 m -3.122,-3.194 c -0.358,-1.361 -1.033,-2.477 -2.029,-3.342 -0.995,-0.866 -2.088,-1.297 -3.275,-1.297 -0.323,0 -0.531,0.064 -0.624,0.194 -0.093,0.13 -0.093,0.364 -0.005,0.7 l 1.987,7.568 c 0.084,0.321 0.208,0.544 0.368,0.664 0.161,0.122 0.411,0.181 0.748,0.181 1.234,0 2.113,-0.42 2.624,-1.26 0.513,-0.843 0.58,-1.98 0.206,-3.408"
             style="fill:#35378f;fill-opacity:1;fill-rule:nonzero;stroke:none"
             id="path68" />
        </g>
        <g
           id="g70"
           transform="translate(185.2863,755.9263)"
           style="fill:#35378f;fill-opacity:1">
          <path
             d="m 0,0 h -2.978 c -0.24,0 -0.431,-0.039 -0.569,-0.111 -0.139,-0.072 -0.229,-0.19 -0.271,-0.349 -0.053,-0.205 0.03,-0.391 0.249,-0.554 0.073,-0.052 0.124,-0.096 0.16,-0.126 0.045,-0.042 0.063,-0.132 0.054,-0.267 -0.011,-0.139 -0.054,-0.36 -0.135,-0.665 l -2.014,-7.673 c -0.071,-0.267 -0.138,-0.466 -0.206,-0.589 -0.068,-0.124 -0.141,-0.212 -0.224,-0.265 -0.044,-0.029 -0.11,-0.061 -0.197,-0.111 -0.295,-0.166 -0.469,-0.346 -0.517,-0.53 -0.039,-0.153 -0.014,-0.27 0.081,-0.348 0.096,-0.079 0.257,-0.118 0.477,-0.118 h 2.983 c 0.242,0 0.432,0.036 0.567,0.11 0.135,0.072 0.224,0.188 0.265,0.341 0.057,0.216 -0.03,0.411 -0.259,0.587 -0.062,0.045 -0.107,0.084 -0.137,0.108 -0.046,0.042 -0.063,0.127 -0.054,0.247 0.009,0.119 0.059,0.346 0.146,0.678 l 2.018,7.686 c 0.069,0.265 0.137,0.457 0.2,0.579 0.063,0.12 0.138,0.209 0.226,0.263 0.037,0.021 0.09,0.05 0.15,0.086 0.314,0.185 0.495,0.373 0.544,0.561 C 0.6,-0.305 0.573,-0.191 0.483,-0.114 0.392,-0.036 0.232,0 0,0"
             style="fill:#35378f;fill-opacity:1;fill-rule:nonzero;stroke:none"
             id="path72" />
        </g>
        <g
           id="g74"
           transform="translate(188.9225,748.8434)"
           style="fill:#35378f;fill-opacity:1">
          <path
             d="m 0,0 c -0.863,1.537 -1.522,3.164 -1.979,4.884 -0.038,0.14 -0.063,0.241 -0.08,0.3 -0.061,0.206 -0.204,0.413 -0.425,0.624 -0.223,0.21 -0.31,0.406 -0.265,0.577 0.056,0.211 0.176,0.382 0.361,0.508 0.182,0.127 0.398,0.19 0.647,0.19 H 1.101 C 1.363,7.083 1.553,7.029 1.666,6.92 1.78,6.812 1.812,6.662 1.761,6.466 1.714,6.292 1.573,6.12 1.332,5.951 1.095,5.784 0.968,5.672 0.953,5.618 0.907,5.441 1.023,4.951 1.304,4.15 1.585,3.352 1.966,2.496 2.442,1.582 3.349,2.463 4.103,3.262 4.701,3.982 5.298,4.698 5.633,5.197 5.707,5.477 5.752,5.651 5.675,5.808 5.471,5.937 5.421,5.969 5.385,5.991 5.363,6.008 5.251,6.086 5.182,6.163 5.157,6.232 5.131,6.304 5.131,6.391 5.16,6.496 5.209,6.689 5.311,6.832 5.469,6.931 5.629,7.032 5.835,7.083 6.089,7.083 H 8.036 C 8.287,7.083 8.464,7.033 8.56,6.936 8.656,6.839 8.676,6.692 8.626,6.496 8.569,6.28 8.406,6.084 8.142,5.91 7.878,5.737 7.739,5.642 7.724,5.627 7.672,5.573 7.54,5.42 7.331,5.16 5.991,3.498 4.529,1.868 2.937,0.269 L 2.197,-2.547 C 2.12,-2.839 2.092,-3.032 2.101,-3.129 2.111,-3.23 2.157,-3.302 2.232,-3.357 2.274,-3.388 2.341,-3.429 2.43,-3.477 2.692,-3.615 2.791,-3.817 2.72,-4.086 2.672,-4.269 2.575,-4.406 2.424,-4.493 2.275,-4.581 2.065,-4.623 1.805,-4.623 h -3.163 c -0.272,0 -0.462,0.042 -0.562,0.13 -0.101,0.087 -0.127,0.224 -0.08,0.407 0.072,0.275 0.316,0.501 0.731,0.672 0.054,0.023 0.093,0.043 0.126,0.057 0.104,0.046 0.194,0.124 0.266,0.247 0.072,0.12 0.142,0.307 0.208,0.563 z"
             style="fill:#35378f;fill-opacity:1;fill-rule:nonzero;stroke:none"
             id="path76" />
        </g>
        <g
           id="g78"
           transform="translate(109.1499,757.2948)"
           style="fill:#35378f;fill-opacity:1">
          <path
             d="m 0,0 c 0,0 0.546,-0.484 0.681,-0.602 0.136,-0.117 0.206,-11.311 0.017,-11.531 -0.11,-0.129 -0.606,-0.099 -0.542,-0.167 0.011,-0.012 -0.033,-0.04 -0.018,-0.233 0.39,0.084 0.707,0.08 1.009,0.005 0.321,-0.08 0.596,-0.203 0.94,-0.268 -0.01,0.062 0.139,0.229 0.029,0.257 -0.17,0.045 -0.537,0.148 -0.632,0.295 L 1.421,-0.86 1.567,-0.52 2.144,-0.027 C 2.144,-0.029 1.612,-0.37 1.093,-0.367 0.574,-0.364 0.089,-0.069 0,0"
             style="fill:#35378f;fill-opacity:1;fill-rule:nonzero;stroke:none"
             id="path80" />
        </g>
        <g
           id="g82"
           transform="translate(109.0868,743.4642)"
           style="fill:#35378f;fill-opacity:1">
          <path
             d="m 0,0 c 0.498,0.075 1.047,-0.034 1.364,-0.185 0.407,-0.189 0.707,-0.403 1.155,-0.442 1.098,-0.078 2.033,1.346 2.472,2.523 0.468,1.59 0.399,3.609 0.286,4.749 0,0 -0.236,1.754 -1.184,2.671 0,0 1.065,1.973 0.778,3.346 -0.084,0.698 -0.979,2.88 -2.94,2.164 -0.119,-0.102 -1.725,-0.788 -2.099,-0.207 0,0 0.201,-0.96 2.264,-0.322 0,0 1.321,0.198 1.794,-0.2 C 4.659,12.916 4.633,10.689 3.481,9.584 3.215,9.328 2.417,9.812 2.03,9.635 2.03,9.635 3.483,9.202 4.117,8.48 4.552,7.987 4.689,7.142 4.702,6.525 4.871,3.946 4.492,-0.477 2.146,-0.065 1.489,0.053 0.686,0.829 0,0"
             style="fill:#35378f;fill-opacity:1;fill-rule:nonzero;stroke:none"
             id="path84" />
        </g>
        <g
           id="g86"
           transform="translate(116.4193,757.421)"
           style="fill:#35378f;fill-opacity:1">
          <path
             d="M 0,0 C 0.02,0.006 0.041,0.014 0.062,0.02 L 0.048,-0.042 c 0.015,0 0.032,-0.038 0.032,-0.057 l 0.015,-0.018 c 0.016,0 0.079,-0.097 0.079,-0.116 l 0.033,-0.02 V -0.271 -0.292 C 0.223,-0.31 0.254,-0.329 0.254,-0.349 h 0.128 v 0.02 c 0.08,0.058 0.397,0 0.508,0 0,0.019 -0.015,0.037 -0.015,0.058 l -0.016,0.018 c -0.032,0 -0.032,0.039 -0.047,0.039 0,0.019 -0.016,0.097 -0.033,0.097 v 0.018 0.019 l -0.015,0.02 c -0.017,0 -0.032,0.018 -0.032,0.039 -0.016,0 -0.031,0.018 -0.031,0.038 -0.065,0 -0.128,0.094 -0.176,0.134 z M 0.062,0.02 0.048,-0.042 c 0.015,0 0.032,-0.038 0.032,-0.057 l 0.015,-0.018 c 0.016,0 0.079,-0.097 0.079,-0.116 l 0.033,-0.02 V -0.271 -0.292 C 0.223,-0.31 0.254,-0.329 0.254,-0.349 h 0.128 v 0.02 c 0.08,0.058 0.397,0 0.508,0 0,0.019 -0.015,0.037 -0.015,0.058 l -0.016,0.018 c -0.032,0 -0.032,0.039 -0.047,0.039 0,0.019 -0.016,0.097 -0.033,0.097 v 0.018 0.019 l -0.015,0.02 c -0.017,0 -0.032,0.018 -0.032,0.039 -0.016,0 -0.031,0.018 -0.031,0.038 -0.065,0 -0.128,0.094 -0.176,0.134 L 0,0 c -0.629,-0.193 -1.074,-0.179 -1.074,-0.179 -0.744,0.041 -1.388,0.957 -1.388,0.957 0,0.039 0.542,-0.213 1.421,-0.558 0.88,-0.346 1.083,0.118 1.083,0.118 C 0.489,1.017 1.429,0.811 1.429,0.811 2.173,0.612 2.211,0.048 2.211,0.048 3.057,-1.507 2.985,-6.635 2.985,-6.635 3.071,-7.847 2.97,-10.28 2.432,-12.088 c -0.351,-1.167 -1.14,-2.339 -1.984,-2.634 -0.807,-0.357 -2.698,1.331 -3.561,1.374 0.086,0.047 -0.086,0.181 0.014,0.193 0.97,0.115 2.968,-1.363 3.48,-1.209 1.678,0.658 1.738,4.998 1.827,6.695 C 2.383,-5.578 1.86,-0.704 1.86,-0.704 1.555,0.492 1.048,0.471 1.048,0.471 0.699,0.259 0.361,0.116 0.062,0.02"
             style="fill:#35378f;fill-opacity:1;fill-rule:nonzero;stroke:none"
             id="path88" />
        </g>
        <g
           id="g90"
           transform="translate(115.1697,744.7771)"
           style="fill:#35378f;fill-opacity:1">
          <path
             d="m 0,0 c -0.089,0.012 -0.423,0.086 -0.495,0.069 0.081,0.008 -0.092,-0.08 0.014,-0.122 0.222,-0.088 0.498,-0.141 0.89,-0.272 0.417,-0.138 0.692,-0.314 1.054,-0.469 0.041,0.08 0.224,0.06 0.113,0.147 -0.251,0.196 -0.827,0.491 -0.848,0.572 L 0.66,5.23 0.02,5.005 0.017,4.719 C 0.007,3.768 0.027,0.379 0,0"
             style="fill:#35378f;fill-opacity:1;fill-rule:nonzero;stroke:none"
             id="path92" />
        </g>
        <g
           id="g94"
           transform="translate(115.0855,756.4706)"
           style="fill:#35378f;fill-opacity:1">
          <path
             d="m 0,0 -0.026,-4.99 -0.001,-0.126 0.714,0.325 0.017,4.96 0.374,0.351 C 0.407,0.259 0.014,0.444 -0.595,0.39 -0.284,0.265 -0.107,0.247 0,0"
             style="fill:#35378f;fill-opacity:1;fill-rule:nonzero;stroke:none"
             id="path96" />
        </g>
        <g
           id="g98"
           transform="translate(112.8041,744.2567)"
           style="fill:#35378f;fill-opacity:1">
          <path
             d="m 0,0 c -0.028,0.035 0.023,0.208 -0.042,0.235 -0.12,0.054 -0.256,0.078 -0.359,0.191 -0.032,0.034 -0.044,0.248 -0.035,0.302 l 0.081,5.129 c 0.842,-0.118 2.241,-0.179 3.133,0.354 1.337,0.598 1.935,2.17 2.027,2.974 0.284,1.456 0.137,2.688 -0.125,3.39 -0.023,0.06 -0.047,0.116 -0.072,0.168 -0.11,-0.067 -0.268,-0.109 -0.444,-0.109 -0.095,0 -0.183,0.012 -0.263,0.034 0.053,-0.15 0.081,-0.301 0.102,-0.433 C 4.227,10.88 4.202,8.701 3.513,7.686 2.896,6.268 0.036,6.269 -0.343,6.295 -0.341,6.803 -0.34,7.555 -0.338,8.05 -0.481,7.906 -0.585,7.982 -0.668,7.981 -0.85,7.979 -0.95,8.142 -1.048,8.164 -1.045,7.439 -1.08,6.28 -1.08,6.28 -1.162,6.301 -1.292,6.274 -1.395,6.242 -1.624,6.172 -1.815,6.071 -1.824,6.075 -1.606,5.958 -1.305,6.006 -1.071,5.958 L -1.125,0.528 -1.411,0.454 -1.389,0.278 C -1.107,0.313 -0.935,0.317 -0.693,0.265 -0.483,0.217 -0.259,0.126 0,0 m -0.338,8.313 c -0.116,0.12 -0.388,0.199 -0.537,0.199 -0.149,0 -0.111,0.156 -0.179,0.141 -0.003,1.179 -0.036,2.347 -0.018,2.857 0.033,0.997 -0.575,1.203 -0.575,1.203 0.212,0.221 0.676,-0.251 0.882,-0.213 0.206,0.039 0.586,0.042 0.804,0.195 l -0.374,-0.388 c 0,0 0.001,-1.798 -0.003,-3.994 m 4.489,5.002 C 2.806,14.376 1.966,14.022 1.966,14.022 1.041,13.963 0.453,13.74 -0.4,13.321 -0.671,13.3 -0.884,13.417 -1.095,13.474 -1.541,13.598 -1.89,13.742 -1.89,13.742 l 1.11,-0.686 c 0.766,-0.239 1.031,0.066 1.595,0.289 1.653,0.486 2.433,0.227 2.818,-0.208 0.101,0.103 0.295,0.175 0.518,0.178"
             style="fill:#35378f;fill-opacity:1;fill-rule:nonzero;stroke:none"
             id="path100" />
        </g>
        <g
           id="g102"
           transform="translate(111.929,741.9273)"
           style="fill:#35378f;fill-opacity:1">
          <path
             d="M 0,0 H 0.776 C 0.929,0 1.053,-0.021 1.147,-0.063 1.241,-0.105 1.319,-0.165 1.381,-0.244 1.442,-0.323 1.486,-0.414 1.514,-0.519 1.541,-0.623 1.556,-0.732 1.556,-0.85 1.556,-1.033 1.535,-1.174 1.493,-1.275 1.453,-1.376 1.395,-1.46 1.323,-1.528 1.25,-1.596 1.171,-1.641 1.087,-1.665 0.973,-1.695 0.869,-1.711 0.776,-1.711 H 0 Z m 0.522,-0.387 v -0.935 h 0.129 c 0.108,0 0.187,0.012 0.232,0.036 0.046,0.024 0.082,0.068 0.109,0.13 0.026,0.06 0.04,0.159 0.04,0.296 0,0.182 -0.03,0.305 -0.088,0.371 -0.058,0.068 -0.156,0.102 -0.291,0.102 z"
             style="fill:#35378f;fill-opacity:1;fill-rule:nonzero;stroke:none"
             id="path104" />
        </g>
        <g
           id="g106"
           transform="translate(115.5772,741.1725)"
           style="fill:#35378f;fill-opacity:1">
          <path
             d="M 0,0 C 0.316,0 0.266,0.576 0.274,0.758 H 0.789 C 0.788,0.238 0.671,-0.429 0.23,-0.43 v -0.529 h -0.24 -0.241 v 0.529 c -0.462,0.01 -0.537,0.668 -0.539,1.188 h 0.504 C -0.277,0.576 -0.375,-0.003 0,0"
             style="fill:#35378f;fill-opacity:1;fill-rule:nonzero;stroke:none"
             id="path108" />
        </g>
      </g>
      <g
         id="g112"
         transform="matrix(0.35277777,0,0,-0.35277777,21.061939,343.38914)"
         style="fill:#35378f;fill-opacity:1">
        <g
           id="g114"
           clip-path="url(#clipPath118)"
           style="fill:#35378f;fill-opacity:1">
          <g
             id="g120"
             transform="translate(114.1486,762.5175)"
             style="fill:#35378f;fill-opacity:1">
            <path
               d="M 0,0 C 1.956,0 3.844,-0.202 5.618,-0.574 7.618,-3.376 8.9,-7.635 8.9,-12.39 8.9,-17.145 7.618,-21.404 5.618,-24.204 3.844,-24.577 1.956,-24.778 0,-24.778 c -1.956,0 -3.844,0.201 -5.62,0.574 -2,2.8 -3.281,7.059 -3.281,11.814 0,4.755 1.281,9.014 3.281,11.816 C -3.844,-0.202 -1.956,0 0,0 m 0,-0.985 c -4.364,0 -7.924,-5.122 -7.924,-11.405 0,-6.28 3.56,-11.405 7.924,-11.405 4.363,0 7.922,5.125 7.922,11.405 0,6.283 -3.559,11.405 -7.922,11.405"
               style="fill:#35378f;fill-opacity:1;fill-rule:nonzero;stroke:none"
               id="path122" />
          </g>
        </g>
      </g>
    </g>
  </g>
</svg>
