<svg xmlns="http://www.w3.org/2000/svg" viewBox="0 0 2733.61 535.35"><path d="M1758.45,186.3a156,156,0,0,0-45.28,7.18V79.78h-88V416.67A323.12,323.12,0,0,0,1732.92,434c97.53,0,151.39-43.09,151.39-132.84C1884.11,228,1833.05,186.3,1758.45,186.3Zm-20,190.88A94.47,94.47,0,0,1,1713,374V246.13a83.51,83.51,0,0,1,27.73-5c35.1,0,55.45,23.93,55.45,66.22s-21,69.81-57.45,69.81Z"/><path d="M2024.93,182.31a339.05,339.05,0,0,0-113.49,19.94l21.34,48.87a279.18,279.18,0,0,1,81.38-14.76c29.92,0,45.87,9,45.87,27.93v9.37c-86.76,4-164.55,18.75-164.55,82.18,0,51.06,44.68,79.78,135.43,79.78a326.35,326.35,0,0,0,111.9-17.35v-146C2142.61,208.84,2103.12,182.31,2024.93,182.31ZM2060,379.77a137.1,137.1,0,0,1-31.91,3.59c-31.31,0-51.06-10.57-51.06-30.11,0-28.33,35.7-32.91,83.17-34.71Z"/><path d="M2296.2,182.31a377.05,377.05,0,0,0-119.68,19.94V429.64h88V246.13a90.72,90.72,0,0,1,30.72-6c31.51,0,42.88,13.17,42.88,33.11V428.64h88V264.88C2425.65,212.82,2386.15,182.31,2296.2,182.31Z"/><polygon points="2726.24 189.29 2627.1 189.29 2547.52 291.81 2546.52 291.81 2546.52 79.98 2459.75 79.98 2459.75 428.64 2546.52 428.64 2546.52 309.17 2547.52 309.17 2635.48 428.64 2733.61 428.64 2636.68 300.79 2726.24 189.29"/><polygon points="1456.46 359.43 1398.22 189.29 1302.48 189.29 1410.79 428.64 1367.51 524.18 1459.86 524.18 1610.05 189.29 1514.31 189.29 1456.46 359.43"/><polygon points="899.97 107.11 832.35 305.77 764.73 107.11 662.41 107.11 615.94 428.64 699.71 428.64 726.24 207.64 804.63 428.64 860.08 428.64 938.46 207.64 964.99 428.64 1048.77 428.64 1002.29 107.11 899.97 107.11"/><path d="M1189.39,182.31a380.93,380.93,0,0,0-113.5,19.94L1097,250.12a279.58,279.58,0,0,1,81.59-14.76c29.91,0,45.87,9,45.87,27.93v9.37c-86.76,4-164.56,18.75-164.56,82.18,0,51.06,44.69,79.79,135.44,79.79a326.88,326.88,0,0,0,111.9-17.36v-145C1307.07,208.84,1267.78,182.31,1189.39,182.31ZM1224.49,379a138.19,138.19,0,0,1-31.91,3.59c-31.32,0-51.06-10.57-51.06-30.12,0-28.33,35.7-32.91,83.17-34.71Z"/><ellipse cx="266.57" cy="268.19" rx="255.72" ry="252.02" transform="translate(-3.25 3.27) rotate(-0.7)" fill="#ffc700"/><path d="M267.68,0C119.84,0,0,119.84,0,267.68S119.84,535.35,267.68,535.35,535.35,415.51,535.35,267.68,415.51,0,267.68,0Zm0,514c-136,0-246.34-110.29-246.34-246.33S131.63,21.34,267.68,21.34,514,131.63,514,267.68,404,513.9,268.08,514Z"/><path d="M161,255.51C147.2,229,118.88,266.88,115.69,290,124.86,272.86,141.82,250.52,161,255.51Z"/><path d="M119.68,255.71a59.82,59.82,0,0,1,29.72-23.54C139.62,225.59,125.26,233.77,119.68,255.71Z"/><path d="M167.75,291c9.77-8.37,8.77-19.94-6.39-24.73-11.37-2.79-35.7,17.55-38.29,39.89C132.64,294,160.77,271.07,167.75,291Z"/><path d="M344.67,266.48c-29.52-39.89,16.35-67.42-42.29-114.69,31.12,48.67-18.15,95.94-12.76,125.66s33.51,43.08,31.91,72.21c37.5-50.67-19.95-79.79-3-102.33A56.19,56.19,0,0,0,344.67,266.48Z"/><path d="M226.79,116.09c-2.6,13-34.51,15.55-41.69,34.7,17.35-15.16,39.89-9.17,55.65-24.33C245.74,120.87,233.77,116.09,226.79,116.09Z"/><path d="M183.9,204.25a51.73,51.73,0,0,1,14.16-18.35c5.59,4,15.56,1.39,28.93-13.37h1.19C217.61,209,190.49,215,181.91,212.43c5.38,7.77,39.89,12.76,43.88-2.6,9.77-34.7,43.28-49.66,14.36-49.06,7.78-9.18,34.11-17.76,39.89-24.34s-.79-16.75-27.72-20.54c29.12,14.16-17.75,17.15-19.95,41.69-15.36,6.18-27.52-4-35.1,3s-16,2.19-13.37-5.59a11.17,11.17,0,0,0,1.6,20c1.79,0,3.19,2.39,2,3.79C178.52,187.69,174.13,195.47,183.9,204.25ZM208,166.75H221.8c-7.58,4-11.17,13.56-15,13.36s-4.19-3-4.59-7C204.85,179.51,212,176.92,208,166.75Z"/><path d="M323.92,144.81A64.18,64.18,0,0,0,304,94c-5.39-3-13.17,17.55-10.57,25.13A113.57,113.57,0,0,1,323.92,144.81Z"/><path d="M150.79,173.53c8.78-28.92,18.15-37.5,56.05-53.85a199.54,199.54,0,0,1,61-21.15,41.57,41.57,0,0,1-4,11.37,14.75,14.75,0,0,0,15.36-12.56c4.78-21.14,12.16-49.07,26.32-37.5a125,125,0,0,1,36.9,91.55,14.12,14.12,0,0,1-11.36,0c13,25.73,55.84,37.5,46.07,3.19,18.15,13,48.07,29.92,52.06,70.41a86.74,86.74,0,0,0-23.74-91,77.33,77.33,0,0,1,33.31,11.37A173.86,173.86,0,0,0,366,95.54a223.45,223.45,0,0,0-49.27-46.67c-15.35-12.57-27.32-11.57-33.51-2a139.92,139.92,0,0,0-13.36,38.3l-10.57,1.4A43.06,43.06,0,0,0,234,67.82c-3.59,0-3.19,15.16-5.39,27.92-85.17,33.31-82.57,47.67-90.75,68.82a154.58,154.58,0,0,0-66.42,73A274.15,274.15,0,0,1,150.79,173.53Z"/><path d="M299.19,169.54a32.73,32.73,0,0,0-33.51-3c-15.56,14-7.58,39.89-13,56.85a20,20,0,0,0-27.9,4.18l-.43.6c-7.38,8.58-9.77,21.74-31.11,16.56s-7.38-41.89-45.48-22.54c31.72-2.79,11.77,17.15,23.54,34.11a22.73,22.73,0,0,0,28.32,9.57,37.5,37.5,0,0,1,41.09,19.95,26.52,26.52,0,0,0-16.89-33.5l-.66-.21c24.53-34.71,46.47,33.31,38.49,68.81a79.75,79.75,0,0,0,0-91C269.27,185.3,285,169.14,299.19,169.54Z"/><path d="M438.81,234c-39.89,39.89,22.74,135.83-69,199.46A180.92,180.92,0,0,0,385,336.49a33.1,33.1,0,0,1,13,13.17,149.92,149.92,0,0,0-5.78-96.94,45.87,45.87,0,0,1,19.95,9.77c2.19-55.85-38.5-59.84-46.28-75.2,0,16.36,19.95,30.12,22.54,51.27a54.82,54.82,0,0,0-29.92-6.39,115.11,115.11,0,0,1,27.13,87,49.29,49.29,0,0,0-28.92-13,100.74,100.74,0,0,1,2,88.76,50.84,50.84,0,0,0-8-25.33,57.43,57.43,0,0,1-42.88,41.69,36.89,36.89,0,0,0-11.77-61c-23.74-8.18-53.85,8-66,64.42-17.16,5-68.42-6-37.9-39.89,18.75,6.18,66.42-25.73,63.23-47.87a51.47,51.47,0,0,0-55.85-40.69c-27.72,0-46.47,26.32-69.21,37.5-20-2.8-25.33-5.59-35.11-30.92-1.19-15.56,15.36-26.33,15-42.29C96.74,253.32,93.35,233,67,254.11c-2-3.79,1.4-12.76,1.4-12.76a35.47,35.47,0,0,0-11.77,21.34A65.45,65.45,0,0,0,81,289c15.56,41.49,31.52,46.07,47.87,47.47a52.65,52.65,0,0,0,30.32,19.94,101.42,101.42,0,0,1-1.4-35.3c33.71-33.71,58.64-13.16,61.84-4.19-29.92,6.19-8.78,70-58.25,41.69a49.47,49.47,0,0,0,7,32.31c5,43.89,59.83,33.11,77.19,39.9-1.8-42.49,21.74-73.61,41.88-71s25.53,35.7-9,67a96.13,96.13,0,0,0,64.42-15.36,132.81,132.81,0,0,1-29.32,67.22c115.89-24.92,189.63-139.06,164.71-254.95a214.58,214.58,0,0,0-22.49-59.6c19.94,67.61,14,132.64-6,171.33C452.18,311.16,430.84,275.46,438.81,234Zm-350,49.26a68.62,68.62,0,0,1-19-19.94,32.46,32.46,0,0,1,14.56-10c5.39-1.4,8.78,1.59,8.18,3.19s-5.59,1.79-7,5.78,4.79,8.18,6.18,11a7.18,7.18,0,0,1-2.67,9.8ZM137,331.5a20,20,0,0,1,12.17-9.17A86.85,86.85,0,0,0,152,348.06s-14.76-9-15-16.56Zm75.6,10.38c3.78,0,7,3.39,10.57,0s0-12.57-2.8-16c3.2,0,16.56,0,15.76,5.58-1.59,12.37-9.37,16.36-28.32,25.53C211.23,355,210.63,348.46,212.63,341.88Zm-38.1,41.88a21.5,21.5,0,0,1-6.38-15.16,53.46,53.46,0,0,0,15,6A25.41,25.41,0,0,1,174.53,383.76Z"/></svg>
