<?xml version="1.0" encoding="UTF-8" standalone="no"?>
<svg
   xmlns:dc="http://purl.org/dc/elements/1.1/"
   xmlns:cc="http://creativecommons.org/ns#"
   xmlns:rdf="http://www.w3.org/1999/02/22-rdf-syntax-ns#"
   xmlns:svg="http://www.w3.org/2000/svg"
   xmlns="http://www.w3.org/2000/svg"
   xmlns:sodipodi="http://sodipodi.sourceforge.net/DTD/sodipodi-0.dtd"
   xmlns:inkscape="http://www.inkscape.org/namespaces/inkscape"
   id="svg2985"
   version="1.1"
   inkscape:version="1.0.1 (3bc2e813f5, 2020-09-07)"
   width="301"
   height="64.00827"
   xml:space="preserve"
   sodipodi:docname="Maybank_2012.svg"><metadata
     id="metadata2991"><rdf:RDF><cc:Work
         rdf:about=""><dc:format>image/svg+xml</dc:format><dc:type
           rdf:resource="http://purl.org/dc/dcmitype/StillImage" /><dc:title></dc:title></cc:Work></rdf:RDF></metadata><defs
     id="defs2989"><clipPath
       clipPathUnits="userSpaceOnUse"
       id="clipPath3027"><path
         d="M 36,693.664 H 172.521 V 756 H 36 Z"
         id="path3029"
         inkscape:connector-curvature="0" /></clipPath><clipPath
       clipPathUnits="userSpaceOnUse"
       id="clipPath3131"><path
         d="M 0,0 H 612 V 792 H 0 Z"
         id="path3133"
         inkscape:connector-curvature="0" /></clipPath><clipPath
       clipPathUnits="userSpaceOnUse"
       id="clipPath3463"><path
         d="M 0,0 H 612 V 792 H 0 Z"
         id="path3465"
         inkscape:connector-curvature="0" /></clipPath><clipPath
       clipPathUnits="userSpaceOnUse"
       id="clipPath3627"><path
         d="m 507.643,40.108 h 68.26 v 31.168 h -68.26 z"
         id="path3629"
         inkscape:connector-curvature="0" /></clipPath></defs><sodipodi:namedview
     pagecolor="#ffffff"
     bordercolor="#666666"
     borderopacity="1"
     objecttolerance="10"
     gridtolerance="10"
     guidetolerance="10"
     inkscape:pageopacity="0"
     inkscape:pageshadow="2"
     inkscape:window-width="1920"
     inkscape:window-height="1001"
     id="namedview2987"
     showgrid="false"
     fit-margin-left="0.5"
     fit-margin-bottom="0.5"
     fit-margin-top="0.5"
     fit-margin-right="0.5"
     inkscape:zoom="0.70710678"
     inkscape:cx="478.24488"
     inkscape:cy="151.92391"
     inkscape:window-x="-9"
     inkscape:window-y="-9"
     inkscape:window-maximized="1"
     inkscape:current-layer="svg2985"
     inkscape:document-rotation="0" /><g
     id="g94"
     transform="translate(0.5,0.49956912)"><g
       id="g4039"
       transform="matrix(1.7902111,0,0,-1.7902111,0,4.3087785e-4)"><path
         d="m 0,0 v -35.188 l 167.578,-0.008 V 0 Z"
         style="fill:#ffcf01;fill-opacity:1;fill-rule:nonzero;stroke:none"
         id="path4041"
         inkscape:connector-curvature="0" /></g><path
       inkscape:connector-curvature="0"
       id="path4065"
       style="fill:#000000;fill-opacity:1;fill-rule:nonzero;stroke:none;stroke-width:1.79021"
       d="m 186.89876,28.343937 c -0.99536,0 -2.05158,0.225567 -2.73366,0.486937 v 12.61741 c 0.52632,0.168276 1.52526,0.295383 2.52599,0.295383 3.57326,0 5.67676,-2.486601 5.67676,-6.86904 0,-4.160451 -2.00145,-6.53069 -5.46909,-6.53069 m -0.78412,19.013834 c -4.20699,0 -8.25466,-0.785907 -10.6249,-1.693542 V 12.454023 h 8.67536 v 11.163758 c 1.10636,-0.397429 3.0004,-0.699974 4.47016,-0.699974 7.36314,0 12.40975,4.106745 12.40975,11.335616 0,8.868708 -5.30798,13.104348 -14.93037,13.104348" /><path
       inkscape:connector-curvature="0"
       id="path4069"
       style="fill:#000000;fill-opacity:1;fill-rule:nonzero;stroke:none;stroke-width:1.79021"
       d="m 218.39179,35.968088 c -4.67066,0.191553 -8.19738,0.621204 -8.19738,3.430047 0,1.919103 1.94596,2.97354 5.04303,2.97354 1.21376,0 2.58148,-0.173649 3.15435,-0.361623 z m -2.89298,11.389326 c -8.93136,0 -13.3514,-2.744397 -13.3514,-7.792791 0,-6.263949 7.6818,-7.717599 16.24438,-8.097123 v -0.92196 c 0,-1.881513 -1.57001,-2.767666 -4.52028,-2.767666 -2.73545,0 -5.99363,0.757258 -8.03626,1.448282 l -2.11066,-4.81925 c 2.52241,-0.82708 6.03122,-1.87256 11.21209,-1.87256 7.72476,0 11.61668,2.608338 11.61668,8.875863 v 14.255454 c -2.1572,0.905847 -6.52532,1.691751 -11.05455,1.691751" /><path
       inkscape:connector-curvature="0"
       id="path4073"
       style="fill:#000000;fill-opacity:1;fill-rule:nonzero;stroke:none;stroke-width:1.79021"
       d="M 245.79044,46.830908 V 31.503119 c 0,-1.976392 -1.11173,-3.274294 -4.21058,-3.274294 -1.61835,0 -3.04873,0.603298 -3.04873,0.603298 v 17.998785 h -8.67357 V 24.406723 c 3.1633,-1.01505 6.8941,-1.872561 11.82971,-1.872561 8.8884,0 12.77853,3.000393 12.77853,8.145463 v 16.151283 z" /><path
       inkscape:connector-curvature="0"
       id="path4077"
       style="fill:#000000;fill-opacity:1;fill-rule:nonzero;stroke:none;stroke-width:1.79021"
       d="m 275.18551,46.830908 -8.67715,-11.78496 h -0.10741 v 11.78496 h -8.56616 V 12.453483 h 8.56616 v 20.897135 h 0.10741 l 7.83396,-10.129016 h 9.77993 l -8.83112,10.995479 9.57048,12.613827 z" /><path
       inkscape:connector-curvature="0"
       id="path4081"
       style="fill:#000000;fill-opacity:1;fill-rule:nonzero;stroke:none;stroke-width:1.79021"
       d="m 159.16788,56.268902 h -9.09606 l 4.25533,-9.437991 -10.67323,-23.609305 h 9.43799 l 5.75911,16.7707 5.70003,-16.7707 h 9.44515 z" /><path
       inkscape:connector-curvature="0"
       id="path4085"
       style="fill:#000000;fill-opacity:1;fill-rule:nonzero;stroke:none;stroke-width:1.79021"
       d="m 114.03323,15.124658 h -10.10037 l -6.668537,19.588491 -6.67749,-19.588491 h -10.10037 l -4.570407,31.70643 h 8.252871 l 2.62803,-21.790452 7.733712,21.790452 h 5.463726 l 7.733715,-21.790452 2.63161,21.790452 h 8.25287 z" /><path
       inkscape:connector-curvature="0"
       id="path4089"
       style="fill:#000000;fill-opacity:1;fill-rule:nonzero;stroke:none;stroke-width:1.79021"
       d="m 135.95632,35.968088 c -4.6814,0.191553 -8.20454,0.621204 -8.20454,3.430047 0,1.919103 1.94776,2.97354 5.05019,2.97354 1.20481,0 2.56895,-0.173649 3.15435,-0.361623 z m -2.89119,11.389326 c -8.94389,0 -13.35497,-2.744397 -13.35497,-7.792791 0,-6.263949 7.67642,-7.717599 16.24616,-8.097123 v -0.92196 c 0,-1.881513 -1.57718,-2.767666 -4.52207,-2.767666 -2.73723,0 -5.99721,0.757258 -8.04521,1.448282 l -2.10708,-4.81925 c 2.52599,-0.82708 6.7849,-1.87256 11.20493,-1.87256 7.73193,0 11.61848,2.608338 11.61848,8.875863 v 14.255454 c -2.15005,0.905847 -6.52175,1.691751 -11.04024,1.691751" /><path
       inkscape:connector-curvature="0"
       id="path4093"
       style="fill:#000000;fill-opacity:1;fill-rule:nonzero;stroke:none;stroke-width:1.79021"
       d="m 41.545425,55.251347 c -13.414049,0 -24.289584,-10.877325 -24.289584,-24.293166 0,-13.412262 10.875535,-24.3128551 24.289584,-24.3128551 13.423002,0 24.293163,10.9005931 24.293163,24.3128551 0,13.415841 -10.870161,24.293166 -24.293163,24.293166 m 0,-50.7005707 c -14.588431,0 -26.414563,11.8171847 -26.414563,26.4074047 0,14.592012 11.826132,26.414565 26.414563,26.414565 14.590221,0 26.412774,-11.822553 26.412774,-26.414565 0,-14.59022 -11.822553,-26.4074047 -26.412774,-26.4074047" /><path
       inkscape:connector-curvature="0"
       id="path4097"
       style="fill:#000000;fill-opacity:1;fill-rule:nonzero;stroke:none;stroke-width:1.79021"
       d="m 31.008783,29.749609 c -1.890458,-0.485147 -3.553567,1.727551 -4.477317,3.397819 0.32224,-2.286096 3.131081,-6.029429 4.477317,-3.397819" /><path
       inkscape:connector-curvature="0"
       id="path4101"
       style="fill:#000000;fill-opacity:1;fill-rule:nonzero;stroke:none;stroke-width:1.79021"
       d="m 26.853168,29.775748 c 0.633736,-2.169739 2.135721,-2.966382 2.939529,-2.325487 -1.09203,0.338348 -1.883303,0.984619 -2.939529,2.325487" /><path
       inkscape:connector-curvature="0"
       id="path4105"
       style="fill:#000000;fill-opacity:1;fill-rule:nonzero;stroke:none;stroke-width:1.79021"
       d="m 31.678323,33.26093 c 0.973872,-0.819915 0.873624,-2.033679 -0.635526,-2.432898 -1.115298,-0.282852 -3.523133,1.734714 -3.784502,3.956367 0.966711,-1.235244 3.750488,-3.510603 4.420028,-1.523469" /><path
       inkscape:connector-curvature="0"
       id="path4109"
       style="fill:#000000;fill-opacity:1;fill-rule:nonzero;stroke:none;stroke-width:1.79021"
       d="m 46.840875,39.045998 c 0.173649,-2.85897 -2.604759,-4.194465 -3.13824,-7.123251 -0.520953,-2.932366 4.335891,-7.617346 1.269261,-12.415113 5.793123,4.672452 1.254936,7.443699 4.180143,11.326668 -1.134996,-0.343722 -2.25567,-1.348029 -2.595807,-1.876143 -1.627302,2.142879 3.992169,5.089569 0.284643,10.087839" /><path
       inkscape:connector-curvature="0"
       id="path4113"
       style="fill:#000000;fill-opacity:1;fill-rule:nonzero;stroke:none;stroke-width:1.79021"
       d="m 37.515663,15.991658 c 0.683859,0.0054 1.865403,0.488728 1.383837,1.038322 -1.605822,1.494828 -3.777351,0.878994 -5.499531,2.398886 0.707133,-1.881513 3.852537,-2.150045 4.115694,-3.437208" /><path
       inkscape:connector-curvature="0"
       id="path4117"
       style="fill:#000000;fill-opacity:1;fill-rule:nonzero;stroke:none;stroke-width:1.79021"
       d="m 35.536761,22.305555 c -0.209454,0 -0.401007,-0.291806 -0.456504,-0.67491 0.275691,0.698183 0.968505,0.365202 0.574656,-0.644475 0.24705,0.0054 0.639108,0.03938 1.367724,-0.0038 -0.76263,0.395635 -1.099188,1.330128 -1.485876,1.322966 m 7.189488,-4.196254 c 0.671331,-0.75905 0.0555,-1.793791 -2.70501,-2.132143 2.876868,1.394575 -1.749033,1.704282 -1.908363,4.122856 -1.50915,0.588979 -2.717541,-0.392057 -3.469431,0.284644 -0.723246,0.655217 -1.559274,0.202293 -1.315806,-0.551385 -0.87183,0.445762 -0.696393,1.632672 0.152169,2.001456 0.166494,0.0734 0.315075,0.229148 0.187974,0.350882 -0.929121,0.878994 -1.365933,1.648784 -0.393849,2.511667 0.533484,-0.975665 0.802017,-1.328337 1.394577,-1.804535 0.553173,0.365203 1.53063,0.105624 2.846433,-1.321175 0.06266,-0.08235 0.152172,-0.05191 0.118152,0.03759 -1.043691,3.596536 -3.712896,4.176563 -4.566828,4.006494 0.510213,0.778742 3.908037,1.251354 4.337682,-0.263159 0.964926,-3.422888 4.257123,-4.912344 1.410687,-4.846105 0.771582,-0.904054 3.356646,-1.747245 3.911613,-2.397091" /><path
       inkscape:connector-curvature="0"
       id="path4121"
       style="fill:#000000;fill-opacity:1;fill-rule:nonzero;stroke:none;stroke-width:1.79021"
       d="m 44.162538,16.26789 c 1.376676,0.893314 2.026518,1.478716 2.925207,2.54926 0.170067,-1.460811 -0.657009,-4.350214 -1.886886,-5.01438 -0.528111,-0.286435 -1.290741,1.734714 -1.038321,2.46512" /><path
       inkscape:connector-curvature="0"
       id="path4125"
       style="fill:#000000;fill-opacity:1;fill-rule:nonzero;stroke:none;stroke-width:1.79021"
       d="m 22.171409,27.997888 c 0.887943,-2.345174 3.050519,-5.136113 6.559333,-7.20918 0.809177,-2.094546 0.542435,-3.508814 9.040566,-6.808172 0.214827,-1.249568 0.177234,-2.762294 0.531693,-2.762294 0.365202,0 1.61835,0.569287 2.515245,1.851078 0.372366,-0.02864 0.699978,-0.06624 0.927327,-0.112785 0.153963,-0.728615 0.662382,-2.735443 1.328337,-3.7737653 0.608673,-0.9541818 1.790217,-1.0562241 3.317265,0.2058744 1.580754,1.2871619 2.696061,1.8206459 4.864002,4.5918919 1.833174,0.821708 4.699308,1.876141 7.180536,4.923082 -1.079496,-0.721457 -2.298627,-0.986408 -3.302937,-1.093821 2.02473,1.770522 3.358437,4.701096 2.346966,8.981491 -0.401007,-4.001124 -3.342324,-5.68213 -5.139696,-6.946018 0.973872,3.370964 -3.25281,2.200169 -4.543557,-0.336562 0.426069,0.136055 0.868254,0.118153 1.134996,-0.04833 -0.146799,-5.161179 -2.567163,-8.12756 -3.646662,-9.011926 -1.390995,-1.1546847 -2.130351,1.614771 -2.601177,3.684257 -0.146796,0.692811 -0.741147,1.188697 -1.493034,1.167214 0.168276,-0.250627 0.354459,-0.920165 0.383103,-1.138573 -2.133933,0.180811 -4.543554,1.439332 -6.022269,2.105289 -3.757656,1.698911 -4.699308,2.54747 -5.529963,5.395698 -2.977119,1.26568 -6.412534,4.69393 -7.850074,6.335554" /><path
       inkscape:connector-curvature="0"
       id="path4129"
       style="fill:#000000;fill-opacity:1;fill-rule:nonzero;stroke:none;stroke-width:1.79021"
       d="m 40.91778,27.274105 c 0.418911,0.479775 2.894772,4.221316 0.02508,8.979703 0.78411,-3.499866 -1.398156,-10.205998 -3.805992,-6.77237 1.634466,0.70355 2.16795,2.03726 1.72935,3.33695 -0.667752,-1.254936 -2.366661,-2.606544 -4.051251,-2.049789 -0.83961,0.300753 -1.954911,0.307917 -2.787357,-0.939861 -1.084872,-1.573597 0.735774,-3.546408 -2.364868,-3.388871 3.75049,-1.899414 2.663833,1.790211 4.471945,2.243136 2.103495,0.490516 2.350545,-0.796643 3.075585,-1.630883 0.581814,-0.710712 1.655946,-1.242406 2.785566,-0.486937 0.538854,-1.638042 -0.24705,-4.24101 1.288953,-5.610522 0.567495,-0.508419 2.372028,-0.436812 3.306519,0.295383 -1.328337,-0.0161 -2.89119,1.570015 -3.673515,6.024061" /><path
       inkscape:connector-curvature="0"
       id="path4133"
       style="fill:#000000;fill-opacity:1;fill-rule:nonzero;stroke:none;stroke-width:1.79021"
       d="m 32.354844,42.389396 c -0.180813,-0.146799 -0.676704,-0.793065 -0.630156,-1.485873 0.630156,0.406374 1.485873,0.610458 1.485873,0.610458 0,0 -0.404586,0.687441 -0.855717,0.875415 m 3.770184,-4.122855 c 0.374151,0.05549 0.694599,0.35625 1.032954,0.107409 0.331182,-0.247047 -0.01434,-1.244193 -0.275697,-1.578966 0.327609,-0.05549 1.632672,0.07519 1.566435,0.540645 -0.153957,1.244199 -0.927327,1.634463 -2.79273,2.529567 0.318663,-0.293592 0.266742,-0.948813 0.469038,-1.598655 m -7.466971,-1.00431 c 0.159328,-0.384897 0.875412,-0.878994 1.194072,-0.911217 -0.127105,1.075917 0.266743,2.543889 0.266743,2.543889 0,0 -1.44828,-0.91659 -1.460815,-1.632672 m -4.761961,-4.770915 c -0.682072,-0.47619 -1.752615,-1.591497 -1.865399,-1.996083 0.134267,-0.152169 0.705345,-0.764419 1.433958,-0.973876 0.526321,-0.137844 0.871832,0.153958 0.794856,0.313285 -0.07519,0.191556 -0.544225,0.191556 -0.682072,0.59256 -0.213033,0.610464 0.465453,0.803805 0.606883,1.079496 0.08056,0.177234 0.266738,0.63195 -0.288226,0.984618 M 60.101325,20.731422 c 1.911945,6.663163 1.37667,13.079282 -0.594351,16.919282 0.24705,-2.402463 -1.863609,-5.916648 -1.01505,-10.021599 -3.995748,3.877593 2.248503,13.394361 -6.811752,19.643988 1.351605,-2.184057 1.967442,-7.597659 1.484085,-9.572259 0.483357,0.198711 0.973872,0.787692 1.28358,1.29969 0.748308,-2.493765 0.844983,-6.013317 -0.58182,-9.586578 0.497679,0.07161 1.512729,0.517372 1.979973,0.950601 0.22557,-5.503109 -3.804198,-5.91486 -4.561455,-7.409683 0,1.6094 1.879722,2.961009 2.225232,5.066295 -1.321176,-0.626574 -2.280729,-0.689232 -2.961009,-0.626574 1.02042,0.74831 3.285039,5.141488 2.615499,8.653882 -0.975666,-0.819915 -1.879722,-1.197648 -2.857179,-1.285371 1.199442,1.829595 1.688169,6.587979 0.191556,8.779194 -0.04118,-0.497679 -0.220197,-1.926267 -0.784113,-2.518824 -0.708924,2.670993 -2.790942,3.789876 -4.223109,4.131804 1.777677,-1.856448 1.432167,-5.154015 -1.16901,-6.02943 -2.336223,-0.798435 -5.313345,0.789483 -6.521739,6.355248 -1.686378,0.49947 -6.758046,-0.581817 -3.725424,-3.861483 1.847493,0.626574 6.546801,-2.511666 6.231723,-4.722579 -0.456501,-3.070209 -3.249234,-4.147917 -5.47089,-4.130016 -2.7426,0.05012 -4.595469,2.608338 -6.83681,3.712899 -1.870772,-0.281067 -2.509877,-0.546018 -3.460481,-3.048729 -0.123525,-1.518099 1.500198,-2.590437 1.475135,-4.167616 -1.331919,0.275697 -1.661318,-1.725759 -4.255333,0.356256 -0.202294,-0.379523 0.13964,-1.276421 0.13964,-1.276421 -0.959553,0.871832 -1.140364,1.895835 -1.160061,2.110656 0.470826,0.929124 1.126042,1.763361 2.402466,2.592228 1.53063,4.094211 3.100646,4.548927 4.722576,4.701096 0.275694,0.388476 1.475136,1.826013 3.002185,2.056953 -0.261372,-0.771582 -0.298965,-2.934156 -0.145011,-3.474801 3.319053,-3.328002 5.785962,-1.305063 6.106413,-0.417117 -2.950272,0.594345 -0.864675,6.90126 -5.75553,4.096002 -0.19692,0.646266 0.0734,2.255664 0.694605,3.197316 0.499464,4.30725 5.930967,3.265344 7.615557,4.011861 -0.187971,-4.190883 2.135721,-7.252143 4.131807,-6.999726 2.003244,0.250632 2.518827,3.512397 -0.891525,6.598722 0.836028,0.456504 4.495218,-0.1647 6.360621,-1.516311 0.170067,1.072338 -1.206606,4.206996 -2.919837,6.44118 14.350335,-3.299361 20.759286,-18.854505 14.038836,-31.010036" /></g></svg>
