<?xml version="1.0" encoding="UTF-8" standalone="no"?>
<svg
   xmlns:dc="http://purl.org/dc/elements/1.1/"
   xmlns:cc="http://creativecommons.org/ns#"
   xmlns:rdf="http://www.w3.org/1999/02/22-rdf-syntax-ns#"
   xmlns:svg="http://www.w3.org/2000/svg"
   xmlns="http://www.w3.org/2000/svg"
   version="1.1"
   id="svg49882"
   viewBox="0 0 250 53.116892"
   height="53.11689"
   width="250">
  <defs
     id="defs49884" />
  <metadata
     id="metadata49887">
    <rdf:RDF>
      <cc:Work
         rdf:about="">
        <dc:format>image/svg+xml</dc:format>
        <dc:type
           rdf:resource="http://purl.org/dc/dcmitype/StillImage" />
        <dc:title></dc:title>
      </cc:Work>
    </rdf:RDF>
  </metadata>
  <g
     transform="translate(982.12673,-565.3096)"
     id="layer1">
    <g
       transform="matrix(0.64322707,0,0,0.64322707,-349.89624,220.0336)"
       id="g51041">
      <g
         id="g50258"
         transform="matrix(1.25,0,0,-1.25,-961.83798,575.94149)">
        <path
           d="m 0,0 -15.341,5.862 c 0.883,3.67 2.399,7.092 4.412,10.16 L 2.787,7.497 C 1.282,5.326 0.294,2.768 0,0 M 18.315,-6.996 1.799,-0.683 c 0.475,2.548 1.544,4.902 3.069,6.895 l 13.447,-8.37 0,-4.838 z m 0,5.477 L 5.53,7.017 c 1.603,1.83 3.61,3.285 5.882,4.249 l 6.903,-7.054 0,-5.731 z m -32.746,-10.84 c -1.162,3.333 -1.8,6.912 -1.8,10.645 0,2.078 0.196,4.105 0.569,6.066 l 15.583,-5.476 -0.007,-0.582 c 0,-3.832 1.335,-7.355 3.569,-10.125 -1.149,2.481 -1.949,5.258 -1.949,8.215 0,0.639 0.038,1.269 0.114,1.889 l 16.667,-5.853 0,-4.779 -32.746,0 z m 1.187,-2.933 c -0.284,0.61 -0.548,1.236 -0.794,1.859 l 9.622,0 1.781,-1.879 14.398,0 -3.157,-3.331 -17.726,0 c -0.558,1.813 -2.172,3.186 -4.124,3.351 m 36.63,-0.797 c 1.147,0.592 2.209,1.311 3.171,2.138 0.631,0.527 1.218,1.099 1.756,1.739 2.42,2.831 3.883,6.494 3.883,10.506 0,8.913 -7.229,16.141 -16.142,16.141 -1.868,0 -3.668,-0.315 -5.332,-0.898 L -0.543,25.984 c 4.848,2.914 10.525,4.588 16.597,4.588 17.828,0 32.278,-14.45 32.278,-32.286 0,-17.829 -14.45,-32.274 -32.278,-32.274 -8.87,0 -16.901,3.571 -22.736,9.36 l 39.595,0 -41.502,2.061 43.857,0.278 -45.896,2.39 17.629,0.273 c 0,0 9.249,-0.281 16.385,3.537 M 3.463,8.4 -9.983,17.378 c 2.187,2.981 4.869,5.566 7.929,7.64 L 9.612,13.096 C 7.199,12.046 5.093,10.421 3.463,8.4"
           style="fill:#d10a10;fill-opacity:1;fill-rule:nonzero;stroke:none"
           id="path50260" />
      </g>
      <g
         id="g50262"
         transform="matrix(1.25,0,0,-1.25,-870.85268,599.10711)">
        <path
           d="m 0,0 c -10.821,0 -16.101,6.236 -16.101,16.399 0,10.546 7.816,17.213 17.343,17.213 9.215,0 16.1,-4.939 16.1,-16.301 C 17.342,6.669 9.68,0 0,0 m 0.617,26.802 c -4.189,0 -8.174,-3.016 -8.174,-9.782 0,-6.23 2.486,-10.165 8.024,-10.165 3.829,0 8.331,2.635 8.331,9.973 0,6.523 -2.845,9.974 -8.181,9.974"
           style="fill:#d10a10;fill-opacity:1;fill-rule:nonzero;stroke:none"
           id="path50264" />
      </g>
      <g
         id="g50266"
         transform="matrix(1.25,0,0,-1.25,-824.64138,598.86523)">
        <path
           d="m 0,0 c -12.895,0 -16.362,8.1 -16.362,15.437 0,10.503 6.161,17.596 17.705,17.596 2.434,0 4.966,-0.287 7.148,-0.816 L 7.555,25.459 c -1.969,0.528 -4.191,0.86 -6.366,0.86 -5.642,0 -8.699,-3.786 -8.699,-9.634 0,-6.376 2.798,-9.878 9.115,-9.878 1.813,0 4.448,0.432 6.105,1.149 L 8.646,1.293 C 6.107,0.475 3.002,0 0,0"
           style="fill:#d10a10;fill-opacity:1;fill-rule:nonzero;stroke:none"
           id="path50268" />
      </g>
      <g
         id="g50270"
         transform="matrix(1.25,0,0,-1.25,-793.38988,598.45099)">
        <path
           d="m 0,0 c -2.067,0 -5.953,0.105 -11.026,0.105 l 0,32.31 c 3.208,0.142 8.441,0.24 12.737,0.24 7.607,0 12.112,-2.733 12.112,-8.152 0,-3.02 -2.071,-5.755 -5.074,-6.998 l 0,-0.146 C 12.324,16.495 14.391,13.43 14.391,10.215 14.391,5.037 10.304,0 0,0 m 0.415,26.664 c -1.24,0 -2.382,-0.049 -3.363,-0.096 l 0,-7.098 c 0.672,-0.048 1.449,-0.048 2.38,-0.048 3.934,0 5.849,1.485 5.849,3.932 0,2.065 -1.498,3.31 -4.866,3.31 M -0.256,13.908 c -0.417,0 -2.074,0 -2.692,-0.048 l 0,-7.626 c 0.672,-0.09 1.863,-0.144 3.104,-0.144 3.575,0 5.593,1.535 5.593,4.031 0,2.495 -2.228,3.787 -6.005,3.787"
           style="fill:#d10a10;fill-opacity:1;fill-rule:nonzero;stroke:none"
           id="path50272" />
      </g>
      <g
         id="g50274"
         transform="matrix(1.25,0,0,-1.25,-750.54428,598.86523)">
        <path
           d="m 0,0 c -12.888,0 -16.356,8.1 -16.356,15.437 0,10.503 6.159,17.596 17.703,17.596 2.433,0 4.97,-0.287 7.141,-0.816 L 7.561,25.459 c -1.968,0.528 -4.195,0.86 -6.366,0.86 -5.648,0 -8.699,-3.786 -8.699,-9.634 0,-6.376 2.793,-9.878 9.107,-9.878 1.817,0 4.457,0.432 6.111,1.149 L 8.648,1.293 C 6.111,0.475 3.004,0 0,0"
           style="fill:#d10a10;fill-opacity:1;fill-rule:nonzero;stroke:none"
           id="path50276" />
      </g>
      <g
         id="g50278"
         transform="matrix(1.25,0,0,-1.25,-695.52928,598.31948)">
        <path
           d="m 0,0 -8.232,13.945 c -1.495,2.492 -2.692,4.99 -3.622,7.096 0.155,-2.397 0.259,-5.658 0.259,-8.726 l 0,-12.315 -7.766,0 0,32.359 10.358,0 7.659,-12.804 c 1.55,-2.687 3.001,-5.463 4.246,-7.961 -0.257,2.786 -0.361,7.05 -0.361,10.121 l 0,10.644 7.764,0 L 10.305,0 0,0 Z"
           style="fill:#d10a10;fill-opacity:1;fill-rule:nonzero;stroke:none"
           id="path50280" />
      </g>
      <path
         d="m -675.00378,557.87186 10.0913,0 0,40.4475 -10.0913,0 0,-40.4475 z"
         style="fill:#d10a10;fill-opacity:1;fill-rule:nonzero;stroke:none"
         id="path50282" />
      <g
         id="g50292"
         transform="matrix(1.25,0,0,-1.25,-648.60318,599.03948)">
        <path
           d="m 0,0 c -2.435,0 -4.922,0.232 -7.144,0.718 l 0.414,6.904 c 1.97,-0.676 4.817,-1.204 7.352,-1.204 2.943,0 5.074,1.153 5.074,3.452 0,5.516 -13.924,2.682 -13.924,13.52 0,6.093 5.124,10.122 13.871,10.122 1.865,0 4.192,-0.192 6.366,-0.578 l -0.467,-6.475 c -1.965,0.531 -4.136,0.866 -6.213,0.866 -3.36,0 -4.912,-1.343 -4.912,-3.165 0,-5.034 13.922,-3.118 13.922,-13.232 C 14.339,4.643 8.905,0 0,0"
           style="fill:#d10a10;fill-opacity:1;fill-rule:nonzero;stroke:none"
           id="path50294" />
      </g>
      <g
         id="g50296"
         transform="matrix(1.25,0,0,-1.25,-612.23238,584.96348)">
        <path
           d="m 0,0 c -0.413,0 -1.135,0 -1.859,0.05 l 0,-10.735 -8.076,0 0,32.358 c 2.997,0.143 6.312,0.238 9.935,0.238 8.908,0 13.773,-3.735 13.773,-10.403 C 13.773,5.226 8.908,0 0,0 m -0.152,15.825 c -0.566,0 -1.137,0 -1.707,-0.046 l 0,-9.496 c 0.516,-0.048 0.983,-0.1 1.392,-0.1 3.366,0.052 5.908,1.827 5.908,4.989 0,2.733 -1.61,4.653 -5.593,4.653"
           style="fill:#d10a10;fill-opacity:1;fill-rule:nonzero;stroke:none"
           id="path50298" />
      </g>
    </g>
  </g>
</svg>
