
<svg xmlns="http://www.w3.org/2000/svg" xmlns:xlink="http://www.w3.org/1999/xlink" viewBox="0 0 832.34 263.32"><defs><linearGradient id="a" x1="5539.12" y1="85.1" x2="5556.55" y2="105.91" gradientTransform="matrix(-1, 0, 0, 1, 5562, 0)" gradientUnits="userSpaceOnUse"><stop offset="0" stop-color="#f7e349"/><stop offset="1" stop-color="#a3822e"/></linearGradient><linearGradient id="b" x1="224.35" y1="85.1" x2="241.78" y2="105.91" gradientTransform="matrix(1, 0, 0, 1, 0, 0)" xlink:href="#a"/><linearGradient id="c" x1="5516.3" y1="55.2" x2="5537.11" y2="56.6" xlink:href="#a"/><linearGradient id="d" x1="5490.7" y1="37.2" x2="5505.04" y2="67.57" xlink:href="#a"/><linearGradient id="e" x1="5475.7" y1="47.46" x2="5521.25" y2="47.46" xlink:href="#a"/><linearGradient id="f" x1="5539.72" y1="215.24" x2="5501.48" y2="221.14" xlink:href="#a"/><linearGradient id="g" x1="5523.54" y1="193.84" x2="5530.85" y2="226.46" xlink:href="#a"/><linearGradient id="h" x1="5537.94" y1="171.47" x2="5550.03" y2="192.28" xlink:href="#a"/><linearGradient id="i" x1="5525.39" y1="181.24" x2="5492.21" y2="215.55" xlink:href="#a"/><linearGradient id="j" x1="5541.11" y1="141.88" x2="5558.54" y2="181.25" xlink:href="#a"/><linearGradient id="k" x1="5539.36" y1="111.22" x2="5565.51" y2="143.27" xlink:href="#a"/><linearGradient id="l" x1="5524.35" y1="69.88" x2="5548.25" y2="73.25" xlink:href="#a"/><linearGradient id="m" x1="201.53" y1="55.2" x2="222.34" y2="56.6" gradientTransform="matrix(1, 0, 0, 1, 0, 0)" xlink:href="#a"/><linearGradient id="n" x1="175.93" y1="37.2" x2="190.27" y2="67.57" gradientTransform="matrix(1, 0, 0, 1, 0, 0)" xlink:href="#a"/><linearGradient id="o" x1="160.93" y1="47.46" x2="206.48" y2="47.46" gradientTransform="matrix(1, 0, 0, 1, 0, 0)" xlink:href="#a"/><linearGradient id="p" x1="224.95" y1="215.24" x2="186.71" y2="221.14" gradientTransform="matrix(1, 0, 0, 1, 0, 0)" xlink:href="#a"/><linearGradient id="q" x1="208.77" y1="193.84" x2="216.08" y2="226.46" gradientTransform="matrix(1, 0, 0, 1, 0, 0)" xlink:href="#a"/><linearGradient id="r" x1="223.17" y1="171.47" x2="235.26" y2="192.28" gradientTransform="matrix(1, 0, 0, 1, 0, 0)" xlink:href="#a"/><linearGradient id="s" x1="210.62" y1="181.24" x2="177.44" y2="215.55" gradientTransform="matrix(1, 0, 0, 1, 0, 0)" xlink:href="#a"/><linearGradient id="t" x1="226.34" y1="141.88" x2="243.77" y2="181.25" gradientTransform="matrix(1, 0, 0, 1, 0, 0)" xlink:href="#a"/><linearGradient id="u" x1="224.59" y1="111.22" x2="250.74" y2="143.27" gradientTransform="matrix(1, 0, 0, 1, 0, 0)" xlink:href="#a"/><linearGradient id="v" x1="209.58" y1="69.88" x2="233.48" y2="73.25" gradientTransform="matrix(1, 0, 0, 1, 0, 0)" xlink:href="#a"/><linearGradient id="w" x1="123.43" y1="203.4" x2="123.43" y2="263.17" gradientTransform="matrix(1, 0, 0, 1, 0, 0)" xlink:href="#a"/><linearGradient id="x" x1="123.43" y1="46.02" x2="123.43" y2="0.15" gradientTransform="matrix(1, 0, 0, 1, 0, 0)" xlink:href="#a"/><linearGradient id="y" x1="123.43" y1="34.27" x2="123.43" y2="231.39" gradientTransform="matrix(1, 0, 0, 1, 0, 0)" xlink:href="#a"/></defs><path d="M339.48,95.11a13.54,13.54,0,0,0-4.33-4.68,20,20,0,0,0-5.74-2.63,29.58,29.58,0,0,0-3.11-.71,26.73,26.73,0,0,0,3.19-1.44,18.73,18.73,0,0,0,4.88-3.7,16.33,16.33,0,0,0,3.29-5,16.12,16.12,0,0,0,1.14-6.13,12.48,12.48,0,0,0-2.48-8.05,13.67,13.67,0,0,0-7.29-4.3,46.88,46.88,0,0,0-11.82-1.26h-19v65.24h14c3,0,5.52,0,7.67-.17a34.8,34.8,0,0,0,6.58-1.07,19.66,19.66,0,0,0,6-2.63,19,19,0,0,0,8.73-16.37A14.35,14.35,0,0,0,339.48,95.11ZM307.69,61.94H314a31,31,0,0,1,8.53,1,9.33,9.33,0,0,1,5,3.37,10.76,10.76,0,0,1,1.77,6.48,11.42,11.42,0,0,1-6.8,10.78,19.3,19.3,0,0,1-5.22,1.54,44.72,44.72,0,0,1-6.35.38h-3.22Zm21.57,49a13.33,13.33,0,0,1-5.34,5,17,17,0,0,1-7.95,1.8h-8.28V90.23h4.61c6.08,0,10.81,1,14.07,3.09s4.79,5.44,4.79,10.45A13.81,13.81,0,0,1,329.26,110.93Z"/><path d="M391.19,117.89c-2.23.51-3.42.51-3.9,0a1.74,1.74,0,0,1-.48-1.09,20.18,20.18,0,0,1-.13-2.63V92.41c0-5.42-1.36-9.54-4.05-12.3S376,76,370.84,76s-10.38,1.77-15.51,5.29l-.28.2v6.18h2.15l.15-.43a6.91,6.91,0,0,1,1.7-2.53,11.53,11.53,0,0,1,3.64-2.46,13,13,0,0,1,5.24-1c3.32,0,5.87.92,7.67,2.69s2.68,4.38,2.68,7.69A3.81,3.81,0,0,1,375.07,96a60.23,60.23,0,0,1-6.23,1.29,70.45,70.45,0,0,0-9.29,2,13.14,13.14,0,0,0-6.1,4c-1.67,1.95-2.53,4.69-2.53,8.13a11,11,0,0,0,3.93,8.73,13.62,13.62,0,0,0,9.23,3.37,19.74,19.74,0,0,0,14.33-6.08,5.87,5.87,0,0,0,2.15,3.49,8.36,8.36,0,0,0,5,1.52,15.58,15.58,0,0,0,3.09-.28,12.33,12.33,0,0,0,3-1L392,121v-3.29Zm-13.29-5.54a2.49,2.49,0,0,1-.35.51,6.27,6.27,0,0,1-1,1c-.36.36-.71.69-1,1a12.77,12.77,0,0,1-3.41,2.35,8.14,8.14,0,0,1-3.67,1c-2.76,0-4.91-.68-6.38-2s-2.2-3.41-2.2-6.17a7.27,7.27,0,0,1,1.39-4.61,9.11,9.11,0,0,1,3.54-2.78,26.31,26.31,0,0,1,4.79-1.55c1.77-.38,3.69-.76,5.74-1.11l2.53-.53Z"/><path d="M424.09,76a16.76,16.76,0,0,0-14.46,7.57V76.49l-.67.05-2.25.18a13.26,13.26,0,0,1-3,0l-2.16-.18-.69-.06v46.3l.71-.08,1.59-.15,1-.1c.16,0,.52,0,1.07,0a10.18,10.18,0,0,1,1.12,0l1.06.09c.41,0,.91.07,1.52.14l.69.07V100.29c0-6.16.88-10.81,2.6-13.82s4.65-4.36,9.06-4.36a9,9,0,0,1,6,1.84A9.51,9.51,0,0,1,430.27,89a34.6,34.6,0,0,1,.81,8.06v25.71l.7-.08c.54-.06,1-.1,1.42-.13l1.06-.09a15.49,15.49,0,0,1,2.36,0l1,.09c.41,0,.91.07,1.52.14l.7.07V94.92c0-6.42-1.23-11.21-3.65-14.27S429.68,76,424.09,76Z"/><path d="M492.68,121.39v1.36l-.69,0-1.9-.13c-.48,0-.88-.07-1.24-.1s-.78,0-1.41,0-1.17,0-1.37,0l-1.29.1-1.95.15-.35,0-.21-.28c-1.39-1.82-3.72-4.66-6.88-8.35s-6.88-8-11.08-12.76c-1.07-1.16-1.55-1.24-1.68-1.24s-.55.51-.55,2.81v19.87l-.71-.08-1.52-.13c-.43,0-.76-.07-1.06-.1s-.63,0-1.12,0-.91,0-1.06,0l-1,.1-1.59.15-.71.08v-61h8.81V93.62a15.59,15.59,0,0,0,.07,2.28.61.61,0,0,0,0,.15c1.16-.15,3.37-1.26,7.44-5.34l5.82-5.92L483,76.51l.33,0c.78,0,1.51.12,2.15.18s1.14.1,1.54.1.79,0,1.39-.1,1.37-.13,2.26-.18l.65-.05v1.64l-.2.18c-1,.91-1.85,1.67-2.61,2.28s-2.45,2-5.08,4.27-5.19,4.46-7.75,6.74q-3.25,3-4.81,4.4c1,1.09,2.21,2.53,3.73,4.3q2.58,3.08,6,7.09c2.31,2.71,4.43,5.14,6.31,7.34s3.77,4.35,5.59,6.48Z"/><path d="M337.07,176.21c-3.07-2.7-7.68-5.27-13.71-7.66s-10.3-4.58-13.07-6.69-4-5.24-4-9.6a12.05,12.05,0,0,1,1.8-6.52,12.37,12.37,0,0,1,4.91-4.43,15,15,0,0,1,6.87-1.58,13.87,13.87,0,0,1,8.22,2.5,14.41,14.41,0,0,1,5.18,6.89l.15.41h2l.14-.45c1.41-4.8,2.43-7.89,3-9.17l.18-.42-.33-.31a19.44,19.44,0,0,0-7.54-4.19,30.62,30.62,0,0,0-9-1.37c-7.35,0-13.52,1.93-18.35,5.75s-7.35,9.42-7.35,16.53c0,5.85,1.61,10.29,4.78,13.19s7.65,5.43,13.55,7.75,10.13,4.48,12.93,6.58,4,5.28,4,9.71a16.52,16.52,0,0,1-2,7.9,15.16,15.16,0,0,1-5.4,5.8,14.4,14.4,0,0,1-7.71,2.13,17.3,17.3,0,0,1-10-2.8,28.45,28.45,0,0,1-7.7-8.63l-.18-.3h-2.07l-.07.55a49.36,49.36,0,0,1-2.12,9.9l-.12.35.25.28c1.87,2.06,4.75,3.72,8.57,4.95a34.51,34.51,0,0,0,10.29,1.82,33.84,33.84,0,0,0,11.06-1.77,27.55,27.55,0,0,0,9.11-5.25,23.91,23.91,0,0,0,6.16-8.37,26.76,26.76,0,0,0,2.18-11C341.83,183.19,340.23,179,337.07,176.21Z"/><path d="M399,208.14c-2.73.66-4.17.64-4.78,0a2.3,2.3,0,0,1-.63-1.37,30.54,30.54,0,0,1-.13-3.21V177.44c0-6.48-1.62-11.39-4.83-14.65s-8-4.94-14.1-4.94S362.18,160,356,164.18l-.27.2v7.24h2.38l.12-.43a8.8,8.8,0,0,1,2.05-3.09,14.18,14.18,0,0,1,4.43-3,15.38,15.38,0,0,1,6.35-1.27c4,0,7.11,1.09,9.29,3.27s3.24,5.29,3.24,9.31a5.74,5.74,0,0,1-.94,3.65,5.81,5.81,0,0,1-3,1.77,75.35,75.35,0,0,1-7.46,1.52,83.11,83.11,0,0,0-11.16,2.4,15.71,15.71,0,0,0-7.27,4.81c-2,2.3-3,5.54-3,9.64a13.17,13.17,0,0,0,4.65,10.4,16.3,16.3,0,0,0,11,4,23.54,23.54,0,0,0,17.16-7.32l.13-.12a7.09,7.09,0,0,0,2.58,4.35,10.35,10.35,0,0,0,5.87,1.8,20.75,20.75,0,0,0,3.7-.33,16.36,16.36,0,0,0,3.56-1.22l.36-.15V208Zm-15.84-6.73a2.85,2.85,0,0,1-.45.66,8.51,8.51,0,0,1-1.17,1.29c-.43.4-.86.78-1.21,1.16a17,17,0,0,1-4.15,2.86,10.07,10.07,0,0,1-4.46,1.24c-3.34,0-5.95-.83-7.74-2.5s-2.69-4.15-2.69-7.49A8.93,8.93,0,0,1,363,193a11,11,0,0,1,4.3-3.37,30.27,30.27,0,0,1,5.8-1.87c2.12-.46,4.43-.91,6.86-1.34l3.21-.69Z"/><path d="M470.57,157.85c-7.21,0-13.12,3.49-17.59,10.37a15.54,15.54,0,0,0-6-7.26,19.92,19.92,0,0,0-17.74-1.82,17.45,17.45,0,0,0-5.69,3.65,25.44,25.44,0,0,0-3.22,3.86v-8.18l-.68.05c-1,.07-1.92.14-2.66.22a17,17,0,0,1-3.7,0c-.76-.08-1.62-.15-2.58-.22l-.68-.06v55.3l.7-.06,2.41-.22a17.49,17.49,0,0,1,3.43-.06c.32,0,.73.07,1.24.11s1.09.09,1.82.17l.7.07V180.24a27.71,27.71,0,0,1,1-8,10,10,0,0,1,3.76-5.29c1.84-1.34,4.58-2,8.14-2,3.91,0,6.8,1.21,8.58,3.58s2.73,6.29,2.73,11.49v33.75l.71-.08,1.71-.16c.51,0,.93-.07,1.26-.11a13.59,13.59,0,0,1,1.47,0,12.06,12.06,0,0,1,1.39,0c.32,0,.73.07,1.24.11s1.1.09,1.83.17l.69.07V182.61a28.28,28.28,0,0,1,2.58-12.8c1.66-3.27,4.84-4.86,9.73-4.86,3.31,0,5.86.78,7.57,2.32a11.52,11.52,0,0,1,3.46,6.17,44,44,0,0,1,.9,9.61v30.72l.7-.08,1.91-.19,1.25-.11c.19,0,.62,0,1.29,0a12.11,12.11,0,0,1,1.36,0c.34,0,.76.07,1.26.11s1.1.09,1.83.17l.7.07V180.46c0-7.45-1.43-13.12-4.23-16.87S477.39,157.85,470.57,157.85Z"/><path d="M554.18,174.28a26.87,26.87,0,0,0-4.61-8.48,21.28,21.28,0,0,0-7.44-5.87,22.36,22.36,0,0,0-9.77-2.08c-6.05,0-10.43,1.19-13,3.52a30.14,30.14,0,0,0-5.64,7.11v-10l-.66,0c-1,.08-1.95.15-2.71.23a15.82,15.82,0,0,1-3.64,0c-.76-.08-1.65-.15-2.61-.23l-.68,0v77.45h10.3V205.13c3.95,6.3,9.64,9.52,16.95,9.52a22.68,22.68,0,0,0,18.15-8.23c4.56-5.41,6.88-12.85,6.88-22.12A32.48,32.48,0,0,0,554.18,174.28ZM543,197.08a18.49,18.49,0,0,1-4.83,8.46,11.89,11.89,0,0,1-8.48,3.08c-5.31,0-9.21-1.87-11.89-5.74s-4-9-4-15.31A44.34,44.34,0,0,1,515.23,176a20.76,20.76,0,0,1,5-9.39,12.31,12.31,0,0,1,9.29-3.67,12.74,12.74,0,0,1,8.76,3,16.64,16.64,0,0,1,4.76,7.9,39.34,39.34,0,0,1,1.44,10.91A45.14,45.14,0,0,1,543,197.08Z"/><path d="M615.37,171.17a24,24,0,0,0-9.46-9.87A28,28,0,0,0,592,157.85a32.51,32.51,0,0,0-11.54,2,27.89,27.89,0,0,0-9.34,5.72,25.69,25.69,0,0,0-6.22,8.86,28.36,28.36,0,0,0-2.18,11.23,32,32,0,0,0,3.59,15.42,25.13,25.13,0,0,0,9.9,10.12,28.24,28.24,0,0,0,13.74,3.47,31.33,31.33,0,0,0,12.23-2.31A25.33,25.33,0,0,0,611.3,206a27.32,27.32,0,0,0,5.59-9.27,33.26,33.26,0,0,0-1.52-25.53Zm-9.54,25.1a24.32,24.32,0,0,1-5.54,9.7,12.69,12.69,0,0,1-9.49,3.92,14.55,14.55,0,0,1-9.62-3.16,17.94,17.94,0,0,1-5.57-8.23,34.37,34.37,0,0,1-1.74-11.14,41.09,41.09,0,0,1,1.74-12.09,19.82,19.82,0,0,1,5.77-9.16c2.64-2.33,6.15-3.52,10.46-3.52a13,13,0,0,1,7.31,2,15.2,15.2,0,0,1,4.91,5.34,25,25,0,0,1,2.68,7.32,39.67,39.67,0,0,1,.84,8.17A37.07,37.07,0,0,1,605.83,196.27Z"/><path d="M673.46,172.28a22.63,22.63,0,0,0-5.17-8.05,21.77,21.77,0,0,0-7.54-4.78,25.71,25.71,0,0,0-9-1.6,27,27,0,0,0-14.35,3.7,23.54,23.54,0,0,0-9.09,10.2,33.85,33.85,0,0,0-3,14.5,31.68,31.68,0,0,0,3.45,15.11,23.87,23.87,0,0,0,9.66,9.87,29.13,29.13,0,0,0,14.13,3.42,29.86,29.86,0,0,0,10.09-1.82,40.71,40.71,0,0,0,9.65-5l.27-.2.13-7.74L671.58,201c-5.26,5.09-10.7,7.64-16.25,7.64a19.78,19.78,0,0,1-8-1.57,16.43,16.43,0,0,1-6.05-4.4,19.16,19.16,0,0,1-3.69-6.55,24.62,24.62,0,0,1-1.24-7.93c0-.7,0-1.29,0-1.74h15.34c7.51,0,15.21.13,22.82.33l.61,0,0-.61c0-.43.08-.83.08-1.18s0-.81,0-1.35A31.26,31.26,0,0,0,673.46,172.28ZM636.53,181a30,30,0,0,1,2.08-8.71,17.44,17.44,0,0,1,5.08-7.06,12.5,12.5,0,0,1,8-2.63c4.86,0,8.18,1.69,10.18,5.16s3,7.87,3.23,13.24Z"/><path d="M711.19,157.85c-5,0-9.72,3.31-14.12,9.94v-9.32l-.68.05c-1,.07-1.93.14-2.69.22s-1.32.1-1.79.1-1.12,0-1.86-.1-1.64-.15-2.6-.22l-.68-.06v55.31l.7-.08,1.91-.19,1.25-.11c.19,0,.62,0,1.28,0a12.2,12.2,0,0,1,1.37,0c.33,0,.75.07,1.26.11s1.1.09,1.83.17l.7.07v-29.9a36.54,36.54,0,0,1,.69-8.08A14.43,14.43,0,0,1,701,170a7.18,7.18,0,0,1,3-2,11,11,0,0,1,3.75-.67,6.86,6.86,0,0,1,2.76.79,13.91,13.91,0,0,0,2.44,1l.66.14,1.73-10.62-.46-.2A9.53,9.53,0,0,0,711.19,157.85Z"/><path d="M751.89,157.85a20,20,0,0,0-17.48,9.37v-8.75l-.68.05c-1,.07-1.93.14-2.69.22s-1.32.1-1.78.1-1.12,0-1.87-.1-1.64-.15-2.6-.22l-.68-.06v55.31l.7-.08,1.92-.19,1.24-.11c.19,0,.62,0,1.29,0a12.11,12.11,0,0,1,1.36,0c.33,0,.76.07,1.26.11s1.1.09,1.83.17l.7.07V186.9c0-7.41,1.05-13,3.13-16.65s5.64-5.3,11-5.3c3.13,0,5.59.76,7.32,2.25a11.49,11.49,0,0,1,3.57,6.14,41.74,41.74,0,0,1,1,9.71v30.72l.71-.08,1.71-.16c.5,0,.92-.07,1.26-.11a13.47,13.47,0,0,1,1.47,0,12.06,12.06,0,0,1,1.39,0c.32,0,.73.07,1.24.11s1.1.09,1.83.17l.69.07V180.46c0-7.67-1.46-13.41-4.35-17.05S758.56,157.85,751.89,157.85Z"/><path d="M831.56,208.14c-2.73.66-4.2.64-4.81,0a2.17,2.17,0,0,1-.61-1.37,25,25,0,0,1-.15-3.21V177.44c0-6.48-1.62-11.39-4.83-14.65s-7.95-4.94-14.07-4.94-12.41,2.13-18.53,6.33l-.28.2v7.24h2.35l.16-.43a8.27,8.27,0,0,1,2.05-3.09,13.51,13.51,0,0,1,4.43-3,15.19,15.19,0,0,1,6.35-1.27c4,0,7.11,1.09,9.26,3.27s3.27,5.29,3.27,9.31a5.93,5.93,0,0,1-.94,3.65,6.12,6.12,0,0,1-3,1.77c-1.5.43-4,.93-7.47,1.52a81.4,81.4,0,0,0-11.16,2.4,15.53,15.53,0,0,0-7.26,4.81c-2,2.3-3,5.54-3,9.64a13.18,13.18,0,0,0,4.66,10.4,16.25,16.25,0,0,0,11,4,23.48,23.48,0,0,0,17.13-7.32l.13-.12a7.11,7.11,0,0,0,2.6,4.35,10.24,10.24,0,0,0,5.85,1.8,20.28,20.28,0,0,0,3.7-.33,15.85,15.85,0,0,0,3.56-1.22l.38-.15V208Zm-15.87-6.73a2.34,2.34,0,0,1-.43.66,9.66,9.66,0,0,1-1.16,1.29c-.46.4-.86.78-1.24,1.16a16.09,16.09,0,0,1-4.13,2.86,10.1,10.1,0,0,1-4.45,1.24c-3.34,0-5.95-.83-7.75-2.5s-2.71-4.15-2.71-7.49a9.12,9.12,0,0,1,1.7-5.62,11.12,11.12,0,0,1,4.33-3.37,29.32,29.32,0,0,1,5.77-1.87c2.12-.46,4.45-.91,6.88-1.34l3.19-.69Z"/><path d="M544.8,86.28c0-2.64-1.88-4.28-4.57-4.28s-5.27,1.88-7.15,5.33c-2.11,3.93-2.22,8.5-2.63,13.83-.47,5.86-1,10.72-3.93,15a15.19,15.19,0,0,1-12.95,6.5c-7.67,0-12.48-4.4-12.48-10.25,0-3.28,1.53-5.33,3.7-5.33a2.13,2.13,0,0,1,2.28,2.22,1.87,1.87,0,0,1-1.87,1.94,2.23,2.23,0,0,1-1.29-.36,3.51,3.51,0,0,0-1,2.87c0,5.1,4.1,8.44,10.14,8.44a12.36,12.36,0,0,0,11.54-7.67c2-4.52,2-10.49,2.87-17.58.58-4.92,1.7-8.55,4.39-11.42a12.37,12.37,0,0,1,9.14-4.1c4.22,0,7,2.16,7,4.86a3.9,3.9,0,0,1-2.05,3.28,3.74,3.74,0,0,1-2,.7c-.12,0-.29-.06-.47-.06A6.42,6.42,0,0,0,544.8,86.28Z" fill="#a9aaac"/><path d="M556.39,102.33l4-.17c-7.74,10.3-11.08,17-11.08,18.27a1.24,1.24,0,0,0,1.41,1.29c2.81,0,8.61-5,16.4-15.41l.35.3c-7.79,10.72-13.94,15.81-17.34,15.81A3,3,0,0,1,547,119.5a7.29,7.29,0,0,1,1.58-3.87l-.17-.18c-3.69,4.69-7.8,6.74-10.26,6.74-2.22,0-3.74-1.64-3.74-4.39,0-2.46,1.87-6.74,5.5-10.49s7.62-5.51,10.43-5.51c2.17,0,3.63,1.35,4,3.87Zm-6.15-.12c-1.7,0-5.45,2.23-8.73,6.8-2.46,3.45-3.63,7-3.63,9.25,0,1.76.82,2.7,2.17,2.7s3.81-1.29,6.44-4.1c4-4.4,6.1-8.55,6.1-11.66C552.59,103.27,551.65,102.21,550.24,102.21Z" fill="#a9aaac"/><path d="M571.5,105.08c-.35.53-2.11,2.76-5.21,6.92l.29.11c5.27-7.2,9.84-10.78,13.88-10.78,2.11,0,3.58,1.35,3.58,3,0,2.58-2.4,4.92-5.22,9-2.34,3.34-3.75,5.45-3.75,6.86,0,.82.53,1.29,1.59,1.29,2.81,0,9.08-4.75,16.69-15.17l.41.29c-7.61,10.48-13.82,15.58-17.69,15.58a3.19,3.19,0,0,1-3.45-3.45c0-2.52,2.16-5.34,5.39-9.67,2.16-2.93,3.33-4.75,3.33-5.68a1.41,1.41,0,0,0-1.4-1.35c-4.1,0-11.84,6.5-18.69,19.56l-4.16.3,25.54-39.25,4.28-.06Z" fill="#a9aaac"/><path d="M608.64,102.33l4-.17c-7.73,10.3-11.07,17-11.07,18.27a1.24,1.24,0,0,0,1.41,1.29c2.81,0,8.61-5,16.4-15.41l.35.3c-7.79,10.72-13.94,15.81-17.34,15.81a3,3,0,0,1-3.16-2.92,7.29,7.29,0,0,1,1.58-3.87l-.17-.18c-3.69,4.69-7.8,6.74-10.26,6.74-2.22,0-3.75-1.64-3.75-4.39,0-2.46,1.88-6.74,5.51-10.49s7.62-5.51,10.43-5.51c2.17,0,3.63,1.35,4,3.87Zm-6.15-.12c-1.7,0-5.45,2.23-8.73,6.8-2.46,3.45-3.63,7-3.63,9.25,0,1.76.82,2.7,2.17,2.7s3.8-1.29,6.44-4.1c4-4.4,6.09-8.55,6.09-11.66C604.83,103.27,603.9,102.21,602.49,102.21Z" fill="#a9aaac"/><path d="M620.53,109.89c-2.58,4-4.1,6.85-4.1,9.14,0,1.81.7,2.63,2.46,2.63,1.93,0,6-2.4,9.08-6.85,2.58-3.69,4-6.62,4.22-9.26a7.25,7.25,0,0,1-.59-2.46,1.54,1.54,0,0,1,1.46-1.52c1.29,0,2.41,1.46,2.41,3.81,0,.93-.3,1.7-.3,2.34,0,1,1.53,2.46,3.93,2.46,2.22,0,4.33-1.17,6.09-3.51l.35.23c-1.87,2.46-4,3.69-6.62,3.69a4.69,4.69,0,0,1-4-2,21.07,21.07,0,0,1-5.68,8.14c-4.22,3.63-8.09,5.45-11.07,5.45s-4.75-1.58-4.75-4.51c0-2.58,1.58-4.69,3.28-7.32L634.65,82.7l4.16-.17C635.29,87.27,629.31,96.41,620.53,109.89Z" fill="#a9aaac"/><path d="M660.65,102.33l4-.17c-7.74,10.3-11.08,17-11.08,18.27a1.24,1.24,0,0,0,1.41,1.29c2.81,0,8.61-5,16.4-15.41l.35.3c-7.79,10.72-13.94,15.81-17.34,15.81a3,3,0,0,1-3.16-2.92,7.29,7.29,0,0,1,1.58-3.87l-.17-.18c-3.69,4.69-7.8,6.74-10.26,6.74-2.22,0-3.74-1.64-3.74-4.39,0-2.46,1.87-6.74,5.5-10.49s7.62-5.51,10.43-5.51c2.17,0,3.63,1.35,4,3.87Zm-6.15-.12c-1.7,0-5.45,2.23-8.73,6.8-2.46,3.45-3.63,7-3.63,9.25,0,1.76.82,2.7,2.17,2.7s3.81-1.29,6.44-4.1c4-4.4,6.1-8.55,6.1-11.66C656.85,103.27,655.91,102.21,654.5,102.21Z" fill="#a9aaac"/><path d="M677.46,102.62h7.62l-.41.65H677l-7.38,11.6a10.93,10.93,0,0,0-1.93,5c0,1.23.64,1.75,2.11,1.75,2.93,0,10.54-4.45,17.87-15l.41.23c-7.44,10.55-14.88,15.47-19.1,15.47a3.84,3.84,0,0,1-3.93-4,7.41,7.41,0,0,1,1.29-4l7-11.07H670l.47-.65h3.22l4.46-6.91,3.69-.18Z" fill="#a9aaac"/><path d="M22.32,69.05s-4.73-10.9-7.26-11.87S7.09,90.61,9.81,98c0,0,14.1,11.09,16.43,20.73L34.65,108,40.28,88Z" stroke="#a3822e" stroke-miterlimit="10" stroke-width="0.3" fill="url(#a)"/><path d="M25.24,106a102.3,102.3,0,0,1-8.4-37.71" fill="none" stroke="#a3822e" stroke-miterlimit="10" stroke-width="0.1"/><path d="M224.91,69.05s4.73-10.9,7.26-11.87,8,33.43,5.25,40.83c0,0-14.1,11.09-16.43,20.73L212.58,108,207,88Z" stroke="#a3822e" stroke-miterlimit="10" stroke-width="0.3" fill="url(#b)"/><path d="M222,106a102.53,102.53,0,0,0,8.4-37.71" fill="none" stroke="#a3822e" stroke-miterlimit="10" stroke-width="0.1"/><path d="M50.28,42.52s-6.07-12.09-9.07-12.09-10.12,20.81-6.84,31,7.89,11.39,6.76,17.69S59.4,68.2,59.59,66.8s-1.13-16.51-1.13-16.51Z" stroke="#a3822e" stroke-miterlimit="10" stroke-width="0.3" fill="url(#c)"/><path d="M65.45,17.4s-20.93,5-13.63,48.1,22.67-6.11,22.67-6.11S97.08,41.39,89,37.08,65.45,17.4,65.45,17.4Z" stroke="#a3822e" stroke-miterlimit="10" stroke-width="0.3" fill="url(#d)"/><path d="M51.82,65.5s7-34.23,23.7-36,19.5,18,19.5,18L59.6,61Z" stroke="#a3822e" stroke-miterlimit="10" stroke-width="0.3" fill="url(#e)"/><path d="M36.86,217.93l-11.62,3.82s9.18,9.38,17.05,7.4S60,216.55,60,216.55s.92-6.75-.14-7.09-22.5,4.78-22.5,4.78Z" stroke="#a3822e" stroke-miterlimit="10" stroke-width="0.3" fill="url(#f)"/><path d="M23.73,191.7,8.83,192s11.66,19.81,25.73,24.64c0,0,6.06,5.14,17.44.75s13.91-11.95,13.91-11.95L45.39,186.12s-12.61,1.42-13.55,1.55S23.73,191.7,23.73,191.7Z" stroke="#a3822e" stroke-miterlimit="10" stroke-width="0.3" fill="url(#g)"/><path d="M37.83,194s-19,1.56-27.88-13.9S2.5,158.56,2.5,158.56s-.7-2.94,10.44,4.88l26,1.87A104.2,104.2,0,0,1,40.28,176c0,3.21,2,13.2,2,14.18S37.83,194,37.83,194Z" stroke="#a3822e" stroke-miterlimit="10" stroke-width="0.3" fill="url(#h)"/><path d="M56.12,212.38A47.1,47.1,0,0,1,36.81,192c-7-14.34-5-18.7-5-18.7l8.82-1.73s5.15,5.52,7.26,10.73,11,16.59,13.08,18.41,2.24,7.72,2.24,7.72Z" stroke="#a3822e" stroke-miterlimit="10" stroke-width="0.3" fill="url(#i)"/><path d="M11.05,131.56s-7.71-5-10.8-5a51.29,51.29,0,0,0,5.4,26c6.69,12.79,14.13,19.47,28.41,21.12,0,0,11.33-20.56,4.29-27S11.05,131.56,11.05,131.56Z" stroke="#a3822e" stroke-miterlimit="10" stroke-width="0.3" fill="url(#j)"/><path d="M26.24,118.74s.26-10.33-19.61-24c0,0-10.88,30.37,14,45.18l5.21,3.55,6-13.65Z" stroke="#a3822e" stroke-miterlimit="10" stroke-width="0.3" fill="url(#k)"/><path d="M42.06,78.7s-.18-19-16.82-26.25c0,0-11.13,22,10.06,36.94C35.3,89.39,42.81,84.3,42.06,78.7Z" stroke="#a3822e" stroke-miterlimit="10" stroke-width="0.3" fill="url(#l)"/><path d="M48.75,210.83c-1,.24-8.56-1.07-19.48-6.74a107.44,107.44,0,0,1-11.22-6.78" fill="none" stroke="#a3822e" stroke-miterlimit="10" stroke-width="0.1"/><path d="M29.78,186.12s-14.62-9.28-21-20.81" fill="none" stroke="#a3822e" stroke-miterlimit="10" stroke-width="0.1"/><path d="M24.67,160A62.09,62.09,0,0,1,2.42,132.83" fill="none" stroke="#a3822e" stroke-miterlimit="10" stroke-width="0.1"/><path d="M22.32,129.81S11.78,120.6,8.83,101.48" fill="none" stroke="#a3822e" stroke-miterlimit="10" stroke-width="0.1"/><line x1="33.53" y1="80.84" x2="26.97" y2="57.18" fill="none" stroke="#a3822e" stroke-miterlimit="10" stroke-width="0.1"/><path d="M197,42.52S203,30.43,206,30.43s10.13,20.81,6.85,31S205,72.84,206.1,79.14,187.83,68.2,187.64,66.8s1.13-16.51,1.13-16.51Z" stroke="#a3822e" stroke-miterlimit="10" stroke-width="0.3" fill="url(#m)"/><path d="M181.78,17.4s20.92,5,13.63,48.1-22.67-6.11-22.67-6.11-22.59-18-14.53-22.31S181.78,17.4,181.78,17.4Z" stroke="#a3822e" stroke-miterlimit="10" stroke-width="0.3" fill="url(#n)"/><path d="M195.41,65.5s-7-34.23-23.7-36-19.5,18-19.5,18L187.62,61Z" stroke="#a3822e" stroke-miterlimit="10" stroke-width="0.3" fill="url(#o)"/><path d="M210.37,217.93,222,221.75s-9.18,9.38-17.05,7.4-17.72-12.6-17.72-12.6-.92-6.75.14-7.09,22.5,4.78,22.5,4.78Z" stroke="#a3822e" stroke-miterlimit="10" stroke-width="0.3" fill="url(#p)"/><path d="M223.5,191.7l14.9.29s-11.66,19.81-25.73,24.64c0,0-6.06,5.14-17.44.75s-13.91-11.95-13.91-11.95l20.52-19.31s12.61,1.42,13.55,1.55S223.5,191.7,223.5,191.7Z" stroke="#a3822e" stroke-miterlimit="10" stroke-width="0.3" fill="url(#q)"/><path d="M209.4,194s19,1.56,27.88-13.9,7.45-21.52,7.45-21.52.7-2.94-10.44,4.88l-26,1.87A104.2,104.2,0,0,0,207,176c0,3.21-2,13.2-2,14.18S209.4,194,209.4,194Z" stroke="#a3822e" stroke-miterlimit="10" stroke-width="0.3" fill="url(#r)"/><path d="M191.1,212.38A47.09,47.09,0,0,0,210.42,192c7-14.34,5-18.7,5-18.7l-8.82-1.73s-5.15,5.52-7.26,10.73-11,16.59-13.08,18.41-2.24,7.72-2.24,7.72Z" stroke="#a3822e" stroke-miterlimit="10" stroke-width="0.3" fill="url(#s)"/><path d="M236.18,131.56s7.7-5,10.8-5a51.42,51.42,0,0,1-5.4,26c-6.7,12.79-14.13,19.47-28.41,21.12,0,0-11.33-20.56-4.3-27S236.18,131.56,236.18,131.56Z" stroke="#a3822e" stroke-miterlimit="10" stroke-width="0.3" fill="url(#t)"/><path d="M221,118.74s-.26-10.33,19.61-24c0,0,10.88,30.37-14,45.18l-5.22,3.55-6-13.65Z" stroke="#a3822e" stroke-miterlimit="10" stroke-width="0.3" fill="url(#u)"/><path d="M205.17,78.7s.18-19,16.82-26.25c0,0,11.12,22-10.07,36.94C211.92,89.39,204.42,84.3,205.17,78.7Z" stroke="#a3822e" stroke-miterlimit="10" stroke-width="0.3" fill="url(#v)"/><path d="M62.59,205.93C61.62,205.48,40.1,234,40.1,234s26.48,29.17,86,29.17,80.68-31.81,80.68-31.81l-23.06-28S143.77,243,62.59,205.93Z" stroke="#a3822e" stroke-miterlimit="10" stroke-width="0.3" fill="url(#w)"/><path d="M62.31,231.76l.22.15a6.56,6.56,0,0,0,.37,2.67,4,4,0,0,0,1.58,1.87,3.34,3.34,0,0,0,1.8.6,3.58,3.58,0,0,0,1.83-.43,3.82,3.82,0,0,0,1.43-1.28,2.71,2.71,0,0,0,.49-2.48,12.61,12.61,0,0,0-1.62-2.93,9.84,9.84,0,0,1-1.55-3.14,3.71,3.71,0,0,1,.76-3A4.4,4.4,0,0,1,71,221.68a6.45,6.45,0,0,1,4.11,1.23,6.66,6.66,0,0,1,1.48,1.38,4.21,4.21,0,0,1,.87,1.69,20.45,20.45,0,0,0-1.75,1.36l-.21-.14a3.4,3.4,0,0,0-.11-2,3.23,3.23,0,0,0-1.29-1.58,3.34,3.34,0,0,0-1.56-.6,2.85,2.85,0,0,0-1.56.22,2.91,2.91,0,0,0-1.24,1.05,2.72,2.72,0,0,0-.48,2.45,12.82,12.82,0,0,0,1.63,3,10.53,10.53,0,0,1,1.59,3.15,3.43,3.43,0,0,1-.67,2.85,5.9,5.9,0,0,1-1.76,1.76,5.38,5.38,0,0,1-2.18.77,6.14,6.14,0,0,1-2.33-.16A7.53,7.53,0,0,1,63.27,237a7.45,7.45,0,0,1-1.68-1.62,4.28,4.28,0,0,1-1-2A11,11,0,0,0,62.31,231.76Z"/><path d="M84.1,239l-2.62,5.35a7.51,7.51,0,0,0-.31.69.63.63,0,0,0,0,.43.62.62,0,0,0,.36.35,3.83,3.83,0,0,0,.72.23l-.25.5a3.57,3.57,0,0,1-.81-.1,4.73,4.73,0,0,1-.77-.3,2.12,2.12,0,0,1-1-.89,1.67,1.67,0,0,1,0-1.32l-.31.12a5.21,5.21,0,0,1-4.12-.22A3.57,3.57,0,0,1,73.25,242a2.86,2.86,0,0,1,.09-2.47,3.18,3.18,0,0,1,1.51-1.61,3.37,3.37,0,0,1,1.88-.24,19.1,19.1,0,0,1,2.51.62,16.7,16.7,0,0,0,1.7.44,1.21,1.21,0,0,0,1.5-.78,3.09,3.09,0,0,0,.28-2.35A3,3,0,0,0,81.07,234a3.79,3.79,0,0,0-1.48-.39,3.24,3.24,0,0,0-1.26.17,2.22,2.22,0,0,0-.79.46l-.26-.12.63-1.29a7.3,7.3,0,0,1,4.35.55,4.17,4.17,0,0,1,2.31,2.34A4.44,4.44,0,0,1,84.1,239Zm-4.26,4,1.65-3.37-.89-.23L79.06,239a7.74,7.74,0,0,0-1.4-.2,2.59,2.59,0,0,0-1.29.28,2.21,2.21,0,0,0-1,1,2.35,2.35,0,0,0-.2,1.92,2.64,2.64,0,0,0,1.4,1.37,2.38,2.38,0,0,0,1.1.2,3.53,3.53,0,0,0,1.18-.18l.36-.11a3.12,3.12,0,0,0,.39-.15A.74.74,0,0,0,79.84,243.05Z"/><path d="M86.14,248.94l3.29-11.84.55.21.42.14.42.09.59.11-.59,2.13a6.45,6.45,0,0,1,1.28-1,3.9,3.9,0,0,1,1.42-.43,4.4,4.4,0,0,1,3.66,1.43,3.37,3.37,0,0,1,.87,2.17,4.57,4.57,0,0,1,4.57-1.37,3.75,3.75,0,0,1,2.76,2.06,6.21,6.21,0,0,1-.11,3.87l-2,7.16-.4-.15-.26-.1-.31-.1-.3-.08-.28-.05-.43-.07,1.82-6.59a9.83,9.83,0,0,0,.4-2.2,2.79,2.79,0,0,0-.41-1.65,2.65,2.65,0,0,0-1.6-1,2.37,2.37,0,0,0-2.58.52,6.46,6.46,0,0,0-1.38,2.71l-1.85,6.68-.4-.15-.26-.09-.31-.11-.35-.08-.27,0-.39-.07,2-7.25a4.52,4.52,0,0,0,.09-2.78,2.39,2.39,0,0,0-1.76-1.39,3.2,3.2,0,0,0-2-.05,2.38,2.38,0,0,0-1.22,1,6.55,6.55,0,0,0-.72,1.72l-2,7.21-.4-.15-.26-.1-.31-.1c-.13,0-.28-.07-.47-.1Z"/><path d="M111.19,252.24l-.65,8.81-.41-.07-.28-.05-.33,0a2.24,2.24,0,0,0-.35,0h-.68l1.38-18.81.59.09.43.06h1l-.2,2.59h0A6.94,6.94,0,0,1,113.4,243a4.24,4.24,0,0,1,2.92-.56,5,5,0,0,1,2.12.62,4.72,4.72,0,0,1,1.54,1.41,5.68,5.68,0,0,1,.88,2,7,7,0,0,1,.18,2.26,7.42,7.42,0,0,1-1.89,4.82A5,5,0,0,1,115,255a4.24,4.24,0,0,1-3.76-2.76Zm.26-3.54a6.17,6.17,0,0,0,.68,3.63,3.21,3.21,0,0,0,2.72,1.57,2.78,2.78,0,0,0,2.08-.59,4.32,4.32,0,0,0,1.28-1.9,10.35,10.35,0,0,0,.57-2.81,8.76,8.76,0,0,0-.15-2.54,3.78,3.78,0,0,0-1-1.95,3,3,0,0,0-2-.87,2.9,2.9,0,0,0-2.28.72,4.85,4.85,0,0,0-1.34,2.1A11.07,11.07,0,0,0,111.45,248.7Z"/><path d="M123.76,248.94a6.19,6.19,0,0,1,.27-2.53,5.74,5.74,0,0,1,1.22-2.08,6.42,6.42,0,0,1,2-1.44,7.48,7.48,0,0,1,2.53-.65,6.31,6.31,0,0,1,3.16.51,5.36,5.36,0,0,1,2.27,2,7.5,7.5,0,0,1,.81,5.66,6.08,6.08,0,0,1-1.07,2.16,5.86,5.86,0,0,1-1.92,1.58,7.16,7.16,0,0,1-2.68.73,6.28,6.28,0,0,1-3.11-.52,5.54,5.54,0,0,1-2.37-2.06A7,7,0,0,1,123.76,248.94Zm6-5.91a3.61,3.61,0,0,0-2.4,1,4.56,4.56,0,0,0-1.18,2.26,9.75,9.75,0,0,0-.17,2.82,7.89,7.89,0,0,0,.62,2.54,4.22,4.22,0,0,0,1.46,1.83,3.43,3.43,0,0,0,2.34.56,3,3,0,0,0,2.18-1.12,5.76,5.76,0,0,0,1.11-2.37,8.58,8.58,0,0,0,.19-2.53,8.94,8.94,0,0,0-.34-1.87,5.94,5.94,0,0,0-.77-1.65,3.53,3.53,0,0,0-1.26-1.17A3.14,3.14,0,0,0,129.79,243Z"/><path d="M149.61,248.75l.27,1.32a9.51,9.51,0,0,1-1.87,1.56,6.94,6.94,0,0,1-2.11.87,6.32,6.32,0,0,1-3.24-.06,5.29,5.29,0,0,1-2.57-1.67,7.13,7.13,0,0,1-1.48-3.13,7.6,7.6,0,0,1,0-3.32,5.13,5.13,0,0,1,1.48-2.64,6,6,0,0,1,2.94-1.49,5.5,5.5,0,0,1,2-.08,4.89,4.89,0,0,1,1.86.67,5.18,5.18,0,0,1,1.5,1.49,7,7,0,0,1,1,2.39,2.52,2.52,0,0,1,.06.29c0,.08,0,.17,0,.27q-2.56.48-5.1,1.05l-3.54.78a4.47,4.47,0,0,0,.09.53,6,6,0,0,0,.68,1.75,4.55,4.55,0,0,0,1.19,1.32,4.09,4.09,0,0,0,1.62.71,4.76,4.76,0,0,0,1.91-.05A5.45,5.45,0,0,0,149.61,248.75Zm-9-2.63,6.67-1.47a6.75,6.75,0,0,0-1.45-3,2.59,2.59,0,0,0-2.65-.7,3,3,0,0,0-1.74,1,4.07,4.07,0,0,0-.82,1.88A7.31,7.31,0,0,0,140.59,246.12Z"/><path d="M154.6,250l-3.8-11.69.57-.13.43-.11a4.1,4.1,0,0,0,.39-.16l.56-.23.8,2.45,0-.34c.47-1.84,1.24-2.94,2.33-3.29a1.93,1.93,0,0,1,.79-.13l.34,2.16a3.27,3.27,0,0,1-.57-.05,2,2,0,0,0-.72,0,2.92,2.92,0,0,0-.81.44,1.81,1.81,0,0,0-.55.69,3.38,3.38,0,0,0-.31,1.56,8.54,8.54,0,0,0,.43,1.83l2.05,6.33-.41.09-.27.07a1.62,1.62,0,0,0-.32.09,1.72,1.72,0,0,0-.29.1l-.26.11Z"/><path d="M163.61,246.94l-4.86-11.28.56-.19a2.61,2.61,0,0,0,.41-.15,2.66,2.66,0,0,0,.38-.19l.54-.28.93,2.15a4.49,4.49,0,0,1,2.8-3.93,3.87,3.87,0,0,1,3.4-.15,6.1,6.1,0,0,1,2.38,3.11l2.94,6.82-.4.13-.26.09-.31.12a2.55,2.55,0,0,0-.32.15l-.25.13-.35.2-2.7-6.28a9.91,9.91,0,0,0-1.1-2,2.73,2.73,0,0,0-1.37-1,2.6,2.6,0,0,0-1.84.2,2.79,2.79,0,0,0-1.91,2.21,8,8,0,0,0,.86,3.84l2.36,5.47-.4.14-.27.08-.3.12-.28.13-.25.14Z"/><path d="M181.25,229.32l2.87,5.22a5.69,5.69,0,0,0,.39.64.57.57,0,0,0,.84.16,3.44,3.44,0,0,0,.6-.46l.28.49a3.4,3.4,0,0,1-.56.61,4.28,4.28,0,0,1-.68.46,2.1,2.1,0,0,1-1.27.26,1.64,1.64,0,0,1-1.09-.75l-.08.31a5.19,5.19,0,0,1-2.55,3.25,3.51,3.51,0,0,1-2.54.4,2.87,2.87,0,0,1-2-1.49,3.11,3.11,0,0,1-.45-2.16,3.34,3.34,0,0,1,.88-1.68,19.32,19.32,0,0,1,2-1.7,14.22,14.22,0,0,0,1.34-1.14,1.23,1.23,0,0,0,.22-1.68,3,3,0,0,0-1.76-1.57,3,3,0,0,0-2.32.38,3.73,3.73,0,0,0-1.18,1,3.48,3.48,0,0,0-.58,1.13,2.12,2.12,0,0,0-.07.91l-.25.13-.69-1.25a7.3,7.3,0,0,1,2.94-3.24,4.2,4.2,0,0,1,3.24-.55A4.44,4.44,0,0,1,181.25,229.32Zm.83,5.78-1.8-3.28-.7.6q-.68.54-1.23,1a6.7,6.7,0,0,0-1,1,2.62,2.62,0,0,0-.52,1.21,2.15,2.15,0,0,0,.3,1.4,2.32,2.32,0,0,0,1.45,1.27,2.61,2.61,0,0,0,1.93-.36,2.46,2.46,0,0,0,.79-.79,3.55,3.55,0,0,0,.54-1.06l.11-.37a2.34,2.34,0,0,0,.1-.4A.57.57,0,0,0,182.08,235.1Z"/><path d="M79.13,46s-3.08-23.28-14-28.62c0,0,57.36-38.81,116.7,0,0,0-15.66,14.48-15,26.64Z" stroke="#a3822e" stroke-miterlimit="10" stroke-width="0.3" fill="url(#x)"/><path d="M95.06,31.12l-4-19.75,5.67-1.14a14.82,14.82,0,0,1,3.68-.34,4.13,4.13,0,0,1,2.4.84,3.69,3.69,0,0,1,1.2,2.21,4.82,4.82,0,0,1,0,1.89,5,5,0,0,1-.67,1.69,6.11,6.11,0,0,1-1.24,1.4A8.56,8.56,0,0,1,100.48,19a8.63,8.63,0,0,1,1.91-.06,6.47,6.47,0,0,1,1.87.44,4.06,4.06,0,0,1,1.55,1.13,4.33,4.33,0,0,1,.91,2A5.88,5.88,0,0,1,103.46,29a10.14,10.14,0,0,1-1.93.73c-.64.16-1.42.34-2.34.52ZM93.87,11.93l1.53,7.66,1.19-.23a16,16,0,0,0,2-.52,6.66,6.66,0,0,0,1.56-.82,4,4,0,0,0,1.36-1.75,3.91,3.91,0,0,0,.16-2.21,3.52,3.52,0,0,0-1-2,3.12,3.12,0,0,0-1.88-.78A9.91,9.91,0,0,0,96,11.5Zm1.75,8.74,1.77,8.86,2.75-.55a5.52,5.52,0,0,0,2.43-1.08A4.29,4.29,0,0,0,104,26a4.53,4.53,0,0,0,.15-2.43,3.73,3.73,0,0,0-2.24-3.08,8.57,8.57,0,0,0-4.65-.1Z"/><path d="M121.07,18.45l.37,6.85a4.86,4.86,0,0,0,.08.85.75.75,0,0,0,.23.45.77.77,0,0,0,.56.14,4.39,4.39,0,0,0,.86-.17l0,.64a3.48,3.48,0,0,1-.88.35,4.27,4.27,0,0,1-.93.14,2.56,2.56,0,0,1-1.46-.36,1.92,1.92,0,0,1-.74-1.33l-.25.29a6,6,0,0,1-4.27,2.09,4.1,4.1,0,0,1-2.83-.86,3.3,3.3,0,0,1-1.3-2.54,3.61,3.61,0,0,1,.62-2.46,3.93,3.93,0,0,1,1.76-1.3,22.42,22.42,0,0,1,2.86-.78,17.46,17.46,0,0,0,2-.51,1.68,1.68,0,0,0,.84-.56,1.67,1.67,0,0,0,.23-1.07,3.52,3.52,0,0,0-1-2.52,3.47,3.47,0,0,0-2.59-.76,4.08,4.08,0,0,0-1.72.44,3.89,3.89,0,0,0-1.16.88,2.22,2.22,0,0,0-.53.9l-.34,0-.08-1.65A8.35,8.35,0,0,1,116,13.74a4.81,4.81,0,0,1,3.63,1A5.1,5.1,0,0,1,121.07,18.45Zm-2,6.41-.23-4.31-1,.27c-.65.15-1.24.3-1.78.45a8.11,8.11,0,0,0-1.52.58,3,3,0,0,0-1.14,1,2.51,2.51,0,0,0-.4,1.6,2.7,2.7,0,0,0,.87,2,3,3,0,0,0,2.18.59,2.78,2.78,0,0,0,1.22-.42,4.39,4.39,0,0,0,1.09-.83l.3-.32a2.79,2.79,0,0,0,.3-.38A.56.56,0,0,0,119,24.86Z"/><path d="M125.74,27.76l1.12-14.09.67.11.5.07h1.19L129,16.55a5.18,5.18,0,0,1,5-2.49,4.43,4.43,0,0,1,3.54,1.68,7,7,0,0,1,.75,4.44l-.68,8.53-.48-.09-.31-.05-.38,0a3.44,3.44,0,0,0-.4,0h-.79l.63-7.85a10.79,10.79,0,0,0-.06-2.59,3.08,3.08,0,0,0-.85-1.77,3,3,0,0,0-2-.79,3.16,3.16,0,0,0-3.13,1.23,9.18,9.18,0,0,0-1.2,4.36L128.1,28l-.48-.08-.32-.06-.38,0-.35,0h-.83Z"/><path d="M148.45,8.12l-2.79,13a5.25,5.25,0,0,0-.12.74.29.29,0,0,0,.06.24c.54.11,1.5-.27,2.88-1.17l2.19-1.43,2.79-2,.65.2.49.13.45.07.7.09-.05.21c-.36.21-.67.38-.94.52l-1.85,1c-1,.51-1.91,1-2.84,1.57s-1.57.91-1.93,1.14c.23.41.55,1,.94,1.73l1.4,2.58c.53,1,1,1.88,1.45,2.68s.87,1.59,1.3,2.36l0,.14-.58-.17-.37-.1a4.38,4.38,0,0,0-.45-.12l-.44-.08-.4-.06-.62-.08c-.3-.67-.83-1.68-1.56-3s-1.59-2.91-2.57-4.66c-.21-.36-.4-.56-.56-.6s-.45.28-.6,1l-1.27,5.9-.46-.15L143,29.6l-.36-.1-.35-.07-.32,0c-.16,0-.33,0-.51-.06l4.68-21.72.65.2a3.9,3.9,0,0,0,.49.14l.48.07Z"/><circle cx="123.43" cy="132.83" r="98.56" stroke="#a3822e" stroke-miterlimit="10" stroke-width="0.3" fill="url(#y)"/><circle cx="124.9" cy="129.81" r="76.11" fill="#fff"/><path d="M124.9,208.46a78.65,78.65,0,1,1,78.64-78.65A78.74,78.74,0,0,1,124.9,208.46Zm0-152.23a73.59,73.59,0,1,0,73.58,73.58A73.67,73.67,0,0,0,124.9,56.23Z"/><path d="M124.89,62.32a67.5,67.5,0,1,0,67.49,67.49A67.49,67.49,0,0,0,124.89,62.32Zm-2.32,108.17h1.73c-.6.72-1,1.11-1,1.11C123.05,171.23,122.82,170.86,122.57,170.49Z" fill="red"/><path d="M174.09,97.68c-33.34-11.67-50.62,9.13-50.62,9.13-26.85-22.07-52.59-5.89-52.59-5.89C78.34,135.36,104.64,139,104.64,139c-8.18,26.7,18.83,48.64,18.83,48.64C146.25,174.74,145.26,138,145.26,138,171.71,128.33,174.09,97.68,174.09,97.68ZM122.68,122c1.83-2.48,7.6,9.34,6.48,10.45s-10.75,1.62-11.59-.63S122.68,122,122.68,122Zm-15.11,6.53a32.7,32.7,0,0,1-22.49-20.6c20.19-3,31,7,31,7A17,17,0,0,0,107.57,128.48Zm15.16,41.78c-9.44-12.91-8.4-29-8.4-29,7.87,2.25,17.9,0,17.9,0C134.43,158.54,122.73,170.26,122.73,170.26Zm18.38-41.78c-2-6.61-10.05-14.28-10.05-14.28,13.36-11.18,29.54-7.67,29.54-7.67C154.83,121.44,141.11,128.48,141.11,128.48Z" fill="#fff" stroke="#000" stroke-miterlimit="10" stroke-width="0.5"/><path d="M94.09,217.91l.12.06a3,3,0,0,0,.45,1.21,1.92,1.92,0,0,0,.88.8,1.76,1.76,0,0,0,.85.15,1.69,1.69,0,0,0,.82-.26,1.41,1.41,0,0,0,.56-.65,1.14,1.14,0,0,0,0-1.19,6.74,6.74,0,0,0-1.18-1.19,4.43,4.43,0,0,1-1.16-1.33,1.82,1.82,0,0,1,.11-1.56,2.39,2.39,0,0,1,1.52-1.42,3.14,3.14,0,0,1,2.17.2,4.94,4.94,0,0,1,1,.61,3.35,3.35,0,0,1,.63.62,7.15,7.15,0,0,0-.9,1l-.14-.06a2,2,0,0,0-.09-.66,2.12,2.12,0,0,0-.31-.62,1.22,1.22,0,0,0-.5-.4,1.69,1.69,0,0,0-1.2-.1,1.29,1.29,0,0,0-.85.8,1.14,1.14,0,0,0,0,1.15A7.25,7.25,0,0,0,98,216.25a5.09,5.09,0,0,1,1.15,1.36,1.7,1.7,0,0,1-.07,1.5,2.49,2.49,0,0,1-1,1.2,2.88,2.88,0,0,1-1.5.37,3.81,3.81,0,0,1-1.54-.34,4.21,4.21,0,0,1-1.79-1.4A9.76,9.76,0,0,0,94.09,217.91Z"/><path d="M108.14,218.78l-1.09,3.94c-.06.22-.1.38-.12.5a.47.47,0,0,0,0,.29.46.46,0,0,0,.29.19,2.75,2.75,0,0,0,.52.06l-.11.37a1.85,1.85,0,0,1-.56,0,2.43,2.43,0,0,1-.55-.1,1.43,1.43,0,0,1-.76-.48,1.14,1.14,0,0,1-.17-.89l-.19.12a3.56,3.56,0,0,1-2.8.37,2.44,2.44,0,0,1-1.44-1,2,2,0,0,1-.25-1.68,2.2,2.2,0,0,1,.81-1.27,2.31,2.31,0,0,1,1.24-.4,14,14,0,0,1,1.77.1,9.33,9.33,0,0,0,1.2.08,1,1,0,0,0,.58-.15,1.06,1.06,0,0,0,.33-.57,1.86,1.86,0,0,0-1.43-2.53,2.55,2.55,0,0,0-1-.08,2.09,2.09,0,0,0-.82.28,1.39,1.39,0,0,0-.47.4l-.19-.05.26-.94a5,5,0,0,1,3-.18,2.85,2.85,0,0,1,1.85,1.28A3,3,0,0,1,108.14,218.78ZM105.78,222l.69-2.48-.63,0-1.1-.09a6.07,6.07,0,0,0-1,0,1.84,1.84,0,0,0-.84.35,1.51,1.51,0,0,0-.52.83,1.59,1.59,0,0,0,.1,1.32,1.87,1.87,0,0,0,1.12.74,1.65,1.65,0,0,0,.77,0,2.58,2.58,0,0,0,.77-.27l.23-.12.24-.15A.48.48,0,0,0,105.78,222Z"/><path d="M110.54,225l1.61-13.12.4.09.3.05.28,0h.42l-.78,6.37a3.09,3.09,0,0,1,3-1.35,2.6,2.6,0,0,1,2,1.11,4.17,4.17,0,0,1,.34,2.64l-.62,5-.28-.06-.19,0a.78.78,0,0,0-.22,0l-.24,0h-.47l.57-4.65a4.32,4.32,0,0,0-.15-2.26,1.65,1.65,0,0,0-1.42-.87c-1.53-.19-2.41.65-2.64,2.51l-.58,4.76-.28-.07-.19,0-.22,0-.21,0h-.5Z"/><path d="M127.13,220.33l.06,4.08a3.13,3.13,0,0,0,0,.51.42.42,0,0,0,.12.27.47.47,0,0,0,.33.1,2.54,2.54,0,0,0,.52-.08v.38a2,2,0,0,1-.53.19,2.67,2.67,0,0,1-.56.06,1.56,1.56,0,0,1-.86-.25,1.17,1.17,0,0,1-.41-.81l-.15.17a3.54,3.54,0,0,1-2.59,1.14,2.45,2.45,0,0,1-1.66-.57,2,2,0,0,1-.71-1.54,2.14,2.14,0,0,1,.42-1.45,2.29,2.29,0,0,1,1.08-.73,11.73,11.73,0,0,1,1.72-.4,11.46,11.46,0,0,0,1.17-.26,1,1,0,0,0,.52-.32,1,1,0,0,0,.15-.63,2,2,0,0,0-.55-1.51,2.05,2.05,0,0,0-1.53-.52,2.63,2.63,0,0,0-1,.22,2.18,2.18,0,0,0-.71.5,1.39,1.39,0,0,0-.34.52h-.2v-1a5,5,0,0,1,2.82-1,2.89,2.89,0,0,1,2.14.71A3.08,3.08,0,0,1,127.13,220.33Zm-1.36,3.77,0-2.57-.62.13c-.39.08-.75.15-1.07.23a5.23,5.23,0,0,0-.92.31,1.77,1.77,0,0,0-.7.57,1.44,1.44,0,0,0-.27.94,1.62,1.62,0,0,0,.47,1.24,1.8,1.8,0,0,0,1.28.39,1.6,1.6,0,0,0,.73-.21,2.35,2.35,0,0,0,.67-.48l.18-.18a1.24,1.24,0,0,0,.19-.21A.44.44,0,0,0,125.77,224.1Z"/><path d="M130.77,225.61l-1.84-13,.41,0,.3,0,.28-.06.41-.09.9,6.45a4.54,4.54,0,0,1,1.13-1.51,3.07,3.07,0,0,1,1.63-.71,3.31,3.31,0,0,1,2,.3,3.6,3.6,0,0,1,1.39,1.35,5.31,5.31,0,0,1,.66,1.9,5.63,5.63,0,0,1,0,1.74,4.79,4.79,0,0,1-.56,1.55,3.9,3.9,0,0,1-1.1,1.19,3.72,3.72,0,0,1-1.62.61,2.83,2.83,0,0,1-2.65-.9c-.12.12-.27.29-.44.49l-.59.73Zm2.89-8.21a2.11,2.11,0,0,0-1.83,1.45,6.24,6.24,0,0,0-.2,3,4.36,4.36,0,0,0,.52,1.61,2.61,2.61,0,0,0,1,1,2.16,2.16,0,0,0,1.36.22,2.05,2.05,0,0,0,1.15-.53,2.62,2.62,0,0,0,.68-1.08,4.93,4.93,0,0,0,.27-1.31,6.17,6.17,0,0,0-.06-1.35,5.46,5.46,0,0,0-.5-1.71,2.74,2.74,0,0,0-1-1.08A2.2,2.2,0,0,0,133.66,217.4Z"/><path d="M145.8,217.05l1,3.95a2.66,2.66,0,0,0,.15.49.47.47,0,0,0,.18.23.5.5,0,0,0,.35,0,2.8,2.8,0,0,0,.48-.21l.09.38a2.15,2.15,0,0,1-.47.3,2.18,2.18,0,0,1-.52.19,1.51,1.51,0,0,1-.9,0,1.15,1.15,0,0,1-.59-.69l-.11.2a3.56,3.56,0,0,1-2.24,1.72,2.44,2.44,0,0,1-1.75-.16,2,2,0,0,1-1.06-1.33,2.13,2.13,0,0,1,.06-1.51,2.27,2.27,0,0,1,.88-1,12.38,12.38,0,0,1,1.57-.8,10.32,10.32,0,0,0,1.09-.53,1,1,0,0,0,.42-.43,1,1,0,0,0,0-.65,2.05,2.05,0,0,0-.9-1.34,2.09,2.09,0,0,0-1.6-.14,2.55,2.55,0,0,0-1,.46,2.45,2.45,0,0,0-.58.65,1.52,1.52,0,0,0-.2.59l-.19.05-.25-.95a5.06,5.06,0,0,1,2.51-1.65,2.89,2.89,0,0,1,2.24.18A3.07,3.07,0,0,1,145.8,217.05Zm-.42,4-.65-2.49-.56.28c-.36.16-.69.32-1,.47a6,6,0,0,0-.82.52,1.78,1.78,0,0,0-.55.72,1.54,1.54,0,0,0,0,1,1.64,1.64,0,0,0,.75,1.09,1.82,1.82,0,0,0,1.34.08,1.62,1.62,0,0,0,.66-.38,2.72,2.72,0,0,0,.54-.62l.13-.22a1.3,1.3,0,0,0,.14-.26A.5.5,0,0,0,145.38,221Z"/><path d="M147.08,211.8l1.16-1L149,213l1.76-.6a2.49,2.49,0,0,0,.08.34,1.53,1.53,0,0,0,.14.29l-1.77.61,1.43,4.18.21.6a4.19,4.19,0,0,0,.77,1.44,1,1,0,0,0,1.18.23,5.59,5.59,0,0,0,.71-.37l.14.4a4.58,4.58,0,0,1-1.3.78,2.81,2.81,0,0,1-.85.16,1.41,1.41,0,0,1-.74-.21,2.31,2.31,0,0,1-.66-.69,5.85,5.85,0,0,1-.56-1.22l-1.66-4.85-1,.36a1.31,1.31,0,0,0-.22-.64l1-.35Z"/><path d="M198.48,210.83c1,.24,8.56-1.07,19.48-6.74a107.44,107.44,0,0,0,11.22-6.78" fill="none" stroke="#a3822e" stroke-miterlimit="10" stroke-width="0.1"/><path d="M217.45,186.12s14.62-9.28,21-20.81" fill="none" stroke="#a3822e" stroke-miterlimit="10" stroke-width="0.1"/><path d="M222.55,160a62.07,62.07,0,0,0,22.26-27.14" fill="none" stroke="#a3822e" stroke-miterlimit="10" stroke-width="0.1"/><path d="M224.91,129.81s10.54-9.21,13.49-28.33" fill="none" stroke="#a3822e" stroke-miterlimit="10" stroke-width="0.1"/><line x1="213.7" y1="80.84" x2="220.26" y2="57.18" fill="none" stroke="#a3822e" stroke-miterlimit="10" stroke-width="0.1"/></svg>
