<svg xmlns="http://www.w3.org/2000/svg" viewBox="0 0 244.7 54.83"><path d="M222.42,32.52l6.33-1a4.73,4.73,0,0,0,1.64,2.81,5.67,5.67,0,0,0,3.46.94,6.22,6.22,0,0,0,3.68-.9,2,2,0,0,0,.84-1.68,1.69,1.69,0,0,0-.45-1.19,5,5,0,0,0-2.12-.83q-7.63-1.7-9.68-3.08a6.17,6.17,0,0,1-2.83-5.37,6.64,6.64,0,0,1,2.45-5.21q2.44-2.12,7.59-2.11c3.27,0,5.69.53,7.28,1.59a8.18,8.18,0,0,1,3.28,4.72l-5.95,1.1a3.65,3.65,0,0,0-1.46-2.13,5.22,5.22,0,0,0-3-.74,7,7,0,0,0-3.58.69,1.49,1.49,0,0,0-.71,1.28,1.4,1.4,0,0,0,.62,1.15c.57.42,2.54,1,5.89,1.77s5.72,1.7,7.05,2.81a5.83,5.83,0,0,1,2,4.69A7.22,7.22,0,0,1,242,37.51q-2.75,2.35-8.11,2.36a13.35,13.35,0,0,1-7.73-2A9.08,9.08,0,0,1,222.42,32.52Z" fill="#373639" fill-rule="evenodd"/><path d="M162.29,15.48h5.82v3.25a9.35,9.35,0,0,1,7.43-3.79,8,8,0,0,1,4,.94,7.29,7.29,0,0,1,2.76,2.85,11.11,11.11,0,0,1,3.39-2.85,8.31,8.31,0,0,1,3.89-.94A8.54,8.54,0,0,1,194,16a6.47,6.47,0,0,1,2.72,3.12,13.49,13.49,0,0,1,.65,4.94V39.33h-6.31V25.7c0-2.37-.22-3.89-.65-4.58a3,3,0,0,0-2.69-1.35,4.31,4.31,0,0,0-2.5.81A4.44,4.44,0,0,0,183.54,23a16.68,16.68,0,0,0-.52,4.92V39.33h-6.31V26.26a17.77,17.77,0,0,0-.34-4.49,2.8,2.8,0,0,0-1.05-1.51,3.26,3.26,0,0,0-1.91-.49,4.55,4.55,0,0,0-2.63.79,4.33,4.33,0,0,0-1.68,2.26,17.18,17.18,0,0,0-.5,4.92V39.33h-6.31Z" fill="#373639" fill-rule="evenodd"/><path d="M152.51,39.33H146.2V15.48h5.87v3.39a10.36,10.36,0,0,1,2.69-3.17,5,5,0,0,1,2.74-.76,8,8,0,0,1,4.15,1.19l-2,5.5a5.51,5.51,0,0,0-3-1,3.48,3.48,0,0,0-2.25.74A5,5,0,0,0,153,24a38.49,38.49,0,0,0-.52,8Z" fill="#373639" fill-rule="evenodd"/><path d="M119.78,39.33h-6.31V27.16a18.73,18.73,0,0,0-.4-5,3.46,3.46,0,0,0-1.33-1.77,3.68,3.68,0,0,0-2.17-.63,5.07,5.07,0,0,0-2.95.9,4.58,4.58,0,0,0-1.8,2.38,21.26,21.26,0,0,0-.47,5.48v10.8H98V15.48h5.86V19a9.57,9.57,0,0,1,7.86-4,9.31,9.31,0,0,1,3.82.76,6.28,6.28,0,0,1,2.61,1.91,6.65,6.65,0,0,1,1.23,2.65,19.15,19.15,0,0,1,.36,4.25Z" fill="#373639" fill-rule="evenodd"/><rect x="87.61" y="15.48" width="6.31" height="23.85" fill="#373639"/><rect x="87.61" y="6.41" width="6.31" height="5.84" fill="#373639"/><path d="M62.1,32.52l6.34-1a4.68,4.68,0,0,0,1.64,2.81,5.62,5.62,0,0,0,3.45.94,6.23,6.23,0,0,0,3.69-.9,2,2,0,0,0,.83-1.68,1.65,1.65,0,0,0-.45-1.19,5,5,0,0,0-2.11-.83q-7.63-1.7-9.68-3.08A6.14,6.14,0,0,1,63,22.26a6.64,6.64,0,0,1,2.45-5.21q2.44-2.12,7.59-2.11,4.89,0,7.28,1.59a8.16,8.16,0,0,1,3.27,4.72l-5.95,1.1a3.61,3.61,0,0,0-1.46-2.13,5.18,5.18,0,0,0-3-.74,6.91,6.91,0,0,0-3.57.69,1.5,1.5,0,0,0-.72,1.28,1.41,1.41,0,0,0,.63,1.15q.86.63,5.89,1.77c3.36.77,5.71,1.7,7,2.81a5.85,5.85,0,0,1,2,4.69,7.19,7.19,0,0,1-2.74,5.64q-2.74,2.35-8.11,2.36a13.34,13.34,0,0,1-7.72-2A9.09,9.09,0,0,1,62.1,32.52Z" fill="#373639" fill-rule="evenodd"/><rect width="54.82" height="54.83" rx="4.99" fill="#ed2125"/><path d="M43.34,27.92a19.46,19.46,0,0,1-38.9,0h1a15,15,0,0,0,30,0Z" fill="#fff" fill-rule="evenodd"/><path d="M52.37,27.92a25,25,0,0,1-49.92,0h1a20.46,20.46,0,0,0,40.9,0Z" fill="#fff" fill-rule="evenodd"/><path d="M34.38,27.92a14,14,0,0,1-28,0h1c0,.11,0,.23,0,.35a10,10,0,1,0,20,0v-.35Z" fill="#fff" fill-rule="evenodd"/><path d="M20.44,26.91a14,14,0,0,1,28,0h-1v-.35a10,10,0,1,0-20,0v.35Z" fill="#fff" fill-rule="evenodd"/><path d="M2.45,26.91a25,25,0,0,1,49.92,0h-1a20.46,20.46,0,0,0-40.9,0Z" fill="#fff" fill-rule="evenodd"/><path d="M11.48,26.91a19.46,19.46,0,0,1,38.9,0h-1a15,15,0,0,0-30,0Z" fill="#fff" fill-rule="evenodd"/><path d="M214.52,29.14a12.11,12.11,0,0,1-.25,3.07,4,4,0,0,1-1.5,2.09,5.45,5.45,0,0,1-3.26,1.12,3.43,3.43,0,0,1-2.51-1,3.11,3.11,0,0,1-1-2.3,2.65,2.65,0,0,1,1.23-2.22,11.79,11.79,0,0,1,3.44-1.1c1.75-.37,3-.7,3.84-1v1.26Zm6.43,7a26,26,0,0,1-.3-4.65l.07-7.37q0-4.1-.85-5.63A6.12,6.12,0,0,0,217,16a15,15,0,0,0-6.29-1q-4.65,0-7,1.66a8.89,8.89,0,0,0-3.33,5.12l5.73,1a4.56,4.56,0,0,1,1.52-2.32,4.47,4.47,0,0,1,2.63-.67,5.34,5.34,0,0,1,3.39.78,3.25,3.25,0,0,1,.9,2.59v.63a35.09,35.09,0,0,1-6.13,1.54,20.87,20.87,0,0,0-5,1.49,6.16,6.16,0,0,0-2.69,2.43,7.11,7.11,0,0,0,1.14,8.64,8.18,8.18,0,0,0,5.82,2,9.82,9.82,0,0,0,3.93-.79A11.12,11.12,0,0,0,215,36.72c.05.12.12.37.23.75.24.82.44,1.44.61,1.86h6.24A13.71,13.71,0,0,1,221,36.14Z" fill="#373639" fill-rule="evenodd"/><path d="M137,29.14a12.77,12.77,0,0,1-.24,3.07,4,4,0,0,1-1.51,2.09A5.44,5.44,0,0,1,132,35.42a3.47,3.47,0,0,1-2.52-1,3.11,3.11,0,0,1-1-2.3,2.63,2.63,0,0,1,1.24-2.22,11.7,11.7,0,0,1,3.43-1.1c1.75-.37,3-.7,3.84-1v1.26Zm6.43,7a26,26,0,0,1-.3-4.65l.07-7.37q0-4.1-.85-5.63a6.12,6.12,0,0,0-2.9-2.54,15,15,0,0,0-6.29-1q-4.65,0-7,1.66a8.94,8.94,0,0,0-3.33,5.12l5.73,1a4.57,4.57,0,0,1,1.53-2.32,4.44,4.44,0,0,1,2.62-.67,5.34,5.34,0,0,1,3.39.78,3.25,3.25,0,0,1,.9,2.59v.63a34.84,34.84,0,0,1-6.13,1.54,21,21,0,0,0-5,1.49,6.16,6.16,0,0,0-2.69,2.43,7.11,7.11,0,0,0,1.14,8.64,8.18,8.18,0,0,0,5.82,2,9.82,9.82,0,0,0,3.93-.79,11.28,11.28,0,0,0,3.46-2.36c0,.12.12.37.22.75.24.82.45,1.44.61,1.86h6.24A13.71,13.71,0,0,1,143.47,36.14Z" fill="#373639" fill-rule="evenodd"/></svg>
